# Export of HypnoseAR project by David Libeau and Romain Paris
# from Aaro4130 OBJ Exporter  - modified by Romain Paris

#
# object Bread.OBJ
#

v 0.09898834 -0.01852071 0.01600066
v 0.09898834 -0.01852071 -0.0160007
v 0.03935211 -0.02078698 -0.01606166
v 0.03935211 -0.01714588 0.01606164
v 0.1149286 -0.01852071 -0.01021488
v 0.1149286 -0.01852071 0.01021484
v 0.09898834 -0.01520215 0.01987089
v 0.1149286 -0.01521498 0.01412348
v 0.1149286 -0.01521499 -0.01412352
v 0.09898834 -0.01520215 -0.01987092
v 0.122507 -0.01513185 -1.907349E-08
v 0.03935211 -0.01746842 -0.01994663
v -0.02627655 -0.02078698 -0.01506437
v -0.02627655 -0.01714588 0.01506438
v -0.09898834 -0.01852071 0.01513399
v -0.09898834 -0.01852071 -0.01513396
v -0.1149289 -0.01852071 -0.00966154
v -0.1149289 -0.01852071 0.009661579
v -0.122507 -0.01513185 1.907349E-08
v -0.02627655 -0.01746843 -0.01870813
v 0.03934937 0.01436447 -0.01423332
v 0.09898834 0.01650837 -0.01417931
v 0.09898834 0.02078698 -1.907349E-08
v 0.03934937 0.01864307 -9.536743E-09
v 0.1149286 0.01305611 -2.861023E-08
v 0.1149286 0.008777495 -0.009869423
v 0.1149286 0.008777499 0.009869385
v 0.09898834 0.01650837 0.01417927
v 0.1149286 -0.0003721523 0.0172698
v 0.09898834 0.004412394 0.02481138
v 0.03934937 0.01436448 0.0142333
v 0.03934937 0.002268496 0.02490593
v -0.0262738 0.01864307 0
v -0.0262738 0.01436446 -0.01334957
v -0.09898834 0.02078697 9.536743E-09
v -0.09898834 0.01650837 -0.01341124
v -0.1149289 0.01305611 9.536743E-09
v -0.1149289 0.00877749 -0.009334803
v -0.1149289 0.00877749 0.009334821
v -0.09898834 0.01650837 0.01341125
v -0.0262738 0.01436448 0.01334956
v -0.09898834 0.004412389 0.02346746
v -0.0262738 0.002268491 0.02335955
v 0.03935211 -0.01746842 -0.01994663
v 0.09898834 -0.01520215 -0.01987092
v 0.09898834 0.004412389 -0.02481142
v 0.03934937 0.002268496 -0.02490595
v 0.03934937 0.01436447 -0.01423332
v 0.09898834 0.01650837 -0.01417931
v 0.1149286 -0.0003721523 -0.01726984
v 0.1149286 -0.01521499 -0.01412352
v 0.1149286 0.008777495 -0.009869423
v -0.0262738 0.002268496 -0.02335954
v -0.02627655 -0.01746843 -0.01870813
v -0.09898834 0.004412384 -0.02346745
v -0.09898834 -0.01520216 -0.01879456
v -0.0262738 0.01436446 -0.01334957
v -0.09898834 0.01650837 -0.01341124
v -0.1149289 -0.0003721523 -0.01633436
v -0.1149289 -0.01521499 -0.01335846
v -0.1149289 0.00877749 -0.009334803
v 0.09898834 0.004412394 0.02481138
v 0.1149286 -0.0003721523 0.0172698
v 0.1149286 -0.01521498 0.01412348
v 0.09898834 -0.01520215 0.01987089
v 0.03934937 0.002268496 0.02490593
v 0.03935211 -0.01382732 0.01994661
v -0.02627655 -0.01382732 0.01870813
v -0.0262738 0.002268491 0.02335955
v -0.09898834 -0.01520215 0.01879457
v -0.09898834 0.004412389 0.02346746
v -0.1149289 -0.01521498 0.01335849
v -0.1149289 -0.0003721523 0.01633439
v 0.1149286 -0.01521499 -0.01412352
v 0.122507 -0.01513185 -1.907349E-08
v 0.1256003 -0.003328996 -1.907349E-08
v 0.1149286 -0.0003721523 -0.01726984
v 0.1149286 0.008777495 -0.009869423
v 0.1149286 0.01305611 -2.861023E-08
v 0.1149286 0.008777499 0.009869385
v 0.1149286 -0.0003721523 0.0172698
v 0.1149286 -0.01521498 0.01412348
v 0.09898834 -0.01520215 0.01987089
v 0.03935211 -0.01714588 0.01606164
v 0.03935211 -0.01382732 0.01994661
v -0.02627655 -0.01714588 0.01506438
v -0.02627655 -0.01382732 0.01870813
v -0.09898834 -0.01520215 0.01879457
v -0.09898834 -0.01852071 0.01513399
v -0.1149289 -0.01852071 0.009661579
v -0.1149289 -0.01521498 0.01335849
v -0.122507 -0.01513185 1.907349E-08
v 0.1149286 -0.01521498 0.01412348
v 0.122507 -0.01513185 -1.907349E-08
v 0.1149286 -0.01852071 0.01021484
v 0.1149286 -0.01852071 -0.01021488
v 0.1149286 -0.01521499 -0.01412352
v -0.09898834 0.01650837 0.01341125
v -0.09898834 0.004412389 0.02346746
v -0.1149289 -0.0003721523 0.01633439
v -0.1149289 0.00877749 0.009334821
v -0.1256003 -0.003328996 9.536743E-09
v -0.1149289 0.01305611 9.536743E-09
v -0.122507 -0.01513185 1.907349E-08
v -0.1149289 -0.01521498 0.01335849
v -0.1149289 -0.01521499 -0.01335846
v -0.1149289 -0.0003721523 -0.01633436
v -0.1256003 -0.003328996 9.536743E-09
v -0.122507 -0.01513185 1.907349E-08
v -0.1149289 0.00877749 -0.009334803
v -0.1149289 0.01305611 9.536743E-09
v -0.09898834 -0.01852071 -0.01513396
v -0.09898834 -0.01520216 -0.01879456
v -0.1149289 -0.01521499 -0.01335846
v -0.1149289 -0.01852071 -0.00966154
v -0.02627655 -0.02078698 -0.01506437
v -0.02627655 -0.01746843 -0.01870813
v 0.03935211 -0.02078698 -0.01606166
v -0.1149289 -0.01852071 -0.00966154
v -0.1149289 -0.01521499 -0.01335846
v -0.122507 -0.01513185 1.907349E-08

vn 0.03365579 -0.5383525 0.205857
vn 0.04118679 -0.5435569 -0.1902181
vn 0.004046319 -0.5490456 -0.1785104
vn -0.003122661 -0.5315535 0.2253319
vn 0.2260204 -0.504221 -0.1673597
vn 0.2260204 -0.5042211 0.1673596
vn 0.08614489 -0.3035294 0.4835104
vn 0.3456882 -0.2519487 0.3877562
vn 0.3456882 -0.2519487 -0.3877562
vn 0.09433687 -0.2998574 -0.484272
vn 0.4942309 -0.2984446 0
vn 0.001231561 -0.3013273 -0.4924771
vn -0.006250865 -0.5478438 -0.1821028
vn -0.0004059364 -0.5296738 0.2297364
vn -0.03312137 -0.5351836 0.2140439
vn -0.03927657 -0.5410659 -0.1975811
vn -0.2247206 -0.5024116 -0.1744033
vn -0.2247207 -0.5024115 0.1744037
vn -0.4936236 -0.299448 0
vn -0.009058362 -0.2959232 -0.4956619
vn -0.01098687 0.4839776 -0.3146081
vn 0.1336596 0.4680536 -0.3104742
vn 0.1296523 0.5626043 0
vn -0.01094849 0.5772464 0
vn 0.3910805 0.4247227 0
vn 0.3870417 0.3485045 -0.2491517
vn 0.3870418 0.3485046 0.2491516
vn 0.1336596 0.4680536 0.3104742
vn 0.3994889 0.08949322 0.4071031
vn 0.1331918 0.1244735 0.5478135
vn -0.01098674 0.4839777 0.314608
vn -0.008889251 0.1243969 0.5637196
vn 0.007932294 0.5772957 0
vn 0.004788171 0.4803589 -0.3202589
vn -0.1313941 0.5622001 0
vn -0.1328202 0.4608338 -0.321441
vn -0.391199 0.4246136 0
vn -0.3832872 0.3449708 -0.2596525
vn -0.3832872 0.3449708 0.2596523
vn -0.1328202 0.4608339 0.3214408
vn 0.00478825 0.480359 0.3202587
vn -0.1270777 0.1209695 0.5500463
vn -0.00240461 0.1223793 0.5642259
vn 0.001231561 -0.3013273 -0.4924771
vn 0.09433687 -0.2998574 -0.484272
vn 0.1339229 0.1278646 -0.5468534
vn -0.007659284 0.1349848 -0.5612965
vn -0.01098687 0.4839776 -0.3146081
vn 0.1336596 0.4680536 -0.3104742
vn 0.3994889 0.08949323 -0.4071031
vn 0.3456882 -0.2519487 -0.3877562
vn 0.3870417 0.3485045 -0.2491517
vn -0.003341231 0.1327817 -0.561864
vn -0.009058362 -0.2959232 -0.4956619
vn -0.1276006 0.124201 -0.5492045
vn -0.08902036 -0.2899255 -0.4912758
vn 0.004788171 0.4803589 -0.3202589
vn -0.1328202 0.4608338 -0.321441
vn -0.3898961 0.08808479 -0.4165999
vn -0.3384301 -0.2460772 -0.3977995
vn -0.3832872 0.3449708 -0.2596525
vn 0.1331918 0.1244735 0.5478135
vn 0.3994889 0.08949322 0.4071031
vn 0.3456882 -0.2519487 0.3877562
vn 0.08614489 -0.3035294 0.4835104
vn -0.008889251 0.1243969 0.5637196
vn -0.00681301 -0.3105324 0.4866791
vn -0.002544409 -0.3050966 0.4901458
vn -0.00240461 0.1223793 0.5642259
vn -0.08249567 -0.2932893 0.4904173
vn -0.1270777 0.1209695 0.5500463
vn -0.33843 -0.2460769 0.3977997
vn -0.3898961 0.08808491 0.4165998
vn 0.3456882 -0.2519487 -0.3877562
vn 0.4942309 -0.2984446 0
vn 0.5537305 0.16345 0
vn 0.3994889 0.08949323 -0.4071031
vn 0.3870417 0.3485045 -0.2491517
vn 0.3910805 0.4247227 0
vn 0.3870418 0.3485046 0.2491516
vn 0.3994889 0.08949322 0.4071031
vn 0.3456882 -0.2519487 0.3877562
vn 0.08614489 -0.3035294 0.4835104
vn -0.003122661 -0.5315535 0.2253319
vn -0.00681301 -0.3105324 0.4866791
vn -0.0004059364 -0.5296738 0.2297364
vn -0.002544409 -0.3050966 0.4901458
vn -0.08249567 -0.2932893 0.4904173
vn -0.03312137 -0.5351836 0.2140439
vn -0.2247207 -0.5024115 0.1744037
vn -0.33843 -0.2460769 0.3977997
vn -0.4936236 -0.299448 0
vn 0.3456882 -0.2519487 0.3877562
vn 0.4942309 -0.2984446 0
vn 0.2260204 -0.5042211 0.1673596
vn 0.2260204 -0.504221 -0.1673597
vn 0.3456882 -0.2519487 -0.3877562
vn -0.1328202 0.4608339 0.3214408
vn -0.1270777 0.1209695 0.5500463
vn -0.3898961 0.08808491 0.4165998
vn -0.3832872 0.3449708 0.2596523
vn -0.5534995 0.1642304 0
vn -0.391199 0.4246136 0
vn -0.4936236 -0.299448 0
vn -0.33843 -0.2460769 0.3977997
vn -0.3384301 -0.2460772 -0.3977995
vn -0.3898961 0.08808479 -0.4165999
vn -0.5534995 0.1642304 0
vn -0.4936236 -0.299448 0
vn -0.3832872 0.3449708 -0.2596525
vn -0.391199 0.4246136 0
vn -0.03927657 -0.5410659 -0.1975811
vn -0.08902036 -0.2899255 -0.4912758
vn -0.3384301 -0.2460772 -0.3977995
vn -0.2247206 -0.5024116 -0.1744033
vn -0.006250865 -0.5478438 -0.1821028
vn -0.009058362 -0.2959232 -0.4956619
vn 0.004046319 -0.5490456 -0.1785104
vn -0.2247206 -0.5024116 -0.1744033
vn -0.3384301 -0.2460772 -0.3977995
vn -0.4936236 -0.299448 0

vt 0.6495364 0.2437657
vt 0.6495364 0.2437657
vt 0.6495364 0.2437657
vt 0.6495364 0.2437657
vt 0.6495364 0.2437657
vt 0.6495364 0.2437657
vt 0.6495364 0.2437657
vt 0.6495364 0.2437657
vt 0.6495364 0.2437657
vt 0.6495364 0.2437657
vt 0.6495364 0.2437657
vt 0.6495364 0.2437657
vt 0.6495364 0.2437657
vt 0.6495364 0.2437657
vt 0.6495364 0.2437657
vt 0.6495364 0.2437657
vt 0.6495364 0.2437657
vt 0.6495364 0.2437657
vt 0.6495364 0.2437657
vt 0.6495364 0.2437657
vt 0.7656984 0.2206881
vt 0.699983 0.2267499
vt 0.7011113 0.2432485
vt 0.7661666 0.2438335
vt 0.6863676 0.243017
vt 0.6843817 0.2302834
vt 0.6842252 0.2557365
vt 0.6997538 0.2598653
vt 0.6794227 0.2689815
vt 0.6958788 0.2766868
vt 0.7657303 0.2669974
vt 0.7643191 0.2920702
vt 0.8612769 0.2437433
vt 0.8614938 0.2211276
vt 0.945334 0.2430462
vt 0.9463846 0.2278242
vt 0.9599785 0.2428046
vt 0.9620689 0.2310572
vt 0.9622667 0.254539
vt 0.9466547 0.2583755
vt 0.8615221 0.2663772
vt 0.9505743 0.274929
vt 0.8624215 0.291499
vt 0.7632728 0.1690815
vt 0.6837004 0.1788046
vt 0.6964039 0.2102
vt 0.7643793 0.1957199
vt 0.7656984 0.2206881
vt 0.699983 0.2267499
vt 0.6798401 0.2170235
vt 0.6555316 0.205071
vt 0.6843817 0.2302834
vt 0.8622664 0.1960831
vt 0.8644166 0.1690701
vt 0.9499683 0.2115219
vt 0.9603886 0.182514
vt 0.8614938 0.2211276
vt 0.9463846 0.2278242
vt 0.9669177 0.2183889
vt 0.9876073 0.2052639
vt 0.9620689 0.2310572
vt 0.6958788 0.2766868
vt 0.6794227 0.2689815
vt 0.6590697 0.2836731
vt 0.6876115 0.298455
vt 0.7643191 0.2920702
vt 0.7600673 0.3140046
vt 0.8610058 0.3137834
vt 0.8624215 0.291499
vt 0.9497981 0.3050844
vt 0.9505743 0.274929
vt 0.9908676 0.2835815
vt 0.967471 0.2671853
vt 0.6555316 0.205071
vt 0.6494325 0.2437678
vt 0.6660761 0.2428069
vt 0.6798401 0.2170235
vt 0.6843817 0.2302834
vt 0.6863676 0.243017
vt 0.6842252 0.2557365
vt 0.6794227 0.2689815
vt 0.6590697 0.2836731
vt 0.6495364 0.2437657
vt 0.6495364 0.2437657
vt 0.6495364 0.2437657
vt 0.6495364 0.2437657
vt 0.6495364 0.2437657
vt 0.6495364 0.2437657
vt 0.6495364 0.2437657
vt 0.6495364 0.2437657
vt 0.6495364 0.2437657
vt 0.6495364 0.2437657
vt 0.6495364 0.2437657
vt 0.6495364 0.2437657
vt 0.6495364 0.2437657
vt 0.6495364 0.2437657
vt 0.6495364 0.2437657
vt 0.9466547 0.2583755
vt 0.9505743 0.274929
vt 0.967471 0.2671853
vt 0.9622667 0.254539
vt 0.9802892 0.2425417
vt 0.9599785 0.2428046
vt 0.9971716 0.2435459
vt 0.9908676 0.2835815
vt 0.9876073 0.2052639
vt 0.9669177 0.2183889
vt 0.9802892 0.2425417
vt 0.9971716 0.2435459
vt 0.9620689 0.2310572
vt 0.9599785 0.2428046
vt 0.6495364 0.2437657
vt 0.6495364 0.2437657
vt 0.6495364 0.2437657
vt 0.6495364 0.2437657
vt 0.6495364 0.2437657
vt 0.6495364 0.2437657
vt 0.6495364 0.2437657
vt 0.6495364 0.2437657
vt 0.6495364 0.2437657
vt 0.6495364 0.2437657

f 3/3/3 2/2/2 1/1/1
f 4/4/4 3/3/3 1/1/1
f 2/2/2 5/5/5 1/1/1
f 5/5/5 6/6/6 1/1/1
f 4/4/4 1/1/1 7/7/7
f 1/1/1 6/6/6 7/7/7
f 6/6/6 8/8/8 7/7/7
f 9/9/9 5/5/5 2/2/2
f 10/10/10 9/9/9 2/2/2
f 2/2/2 3/3/3 10/10/10
f 5/5/5 11/11/11 6/6/6
f 3/3/3 12/12/12 10/10/10
f 13/13/13 3/3/3 4/4/4
f 14/14/14 13/13/13 4/4/4
f 14/14/14 15/15/15 13/13/13
f 15/15/15 16/16/16 13/13/13
f 17/17/17 16/16/16 15/15/15
f 18/18/18 17/17/17 15/15/15
f 19/19/19 17/17/17 18/18/18
f 12/12/12 3/3/3 20/20/20
f 23/23/23 22/22/22 21/21/21
f 24/24/24 23/23/23 21/21/21
f 23/23/23 25/25/25 22/22/22
f 25/25/25 26/26/26 22/22/22
f 27/27/27 25/25/25 23/23/23
f 28/28/28 27/27/27 23/23/23
f 23/23/23 24/24/24 28/28/28
f 29/29/29 27/27/27 28/28/28
f 30/30/30 29/29/29 28/28/28
f 28/28/28 31/31/31 30/30/30
f 24/24/24 31/31/31 28/28/28
f 31/31/31 32/32/32 30/30/30
f 24/24/24 21/21/21 33/33/33
f 21/21/21 34/34/34 33/33/33
f 33/33/33 34/34/34 35/35/35
f 34/34/34 36/36/36 35/35/35
f 37/37/37 35/35/35 36/36/36
f 38/38/38 37/37/37 36/36/36
f 37/37/37 39/39/39 35/35/35
f 39/39/39 40/40/40 35/35/35
f 35/35/35 40/40/40 33/33/33
f 40/40/40 41/41/41 33/33/33
f 40/40/40 42/42/42 41/41/41
f 42/42/42 43/43/43 41/41/41
f 31/31/31 41/41/41 43/43/43
f 32/32/32 31/31/31 43/43/43
f 24/24/24 33/33/33 41/41/41
f 31/31/31 24/24/24 41/41/41
f 46/46/46 45/45/45 44/44/44
f 47/47/47 46/46/46 44/44/44
f 47/47/47 48/48/48 46/46/46
f 48/48/48 49/49/49 46/46/46
f 46/46/46 50/50/50 45/45/45
f 50/50/50 51/51/51 45/45/45
f 52/52/52 50/50/50 46/46/46
f 49/49/49 52/52/52 46/46/46
f 53/53/53 47/47/47 44/44/44
f 54/54/54 53/53/53 44/44/44
f 53/53/53 54/54/54 55/55/55
f 54/54/54 56/56/56 55/55/55
f 53/53/53 55/55/55 57/57/57
f 57/57/57 48/48/48 47/47/47
f 53/53/53 57/57/57 47/47/47
f 55/55/55 58/58/58 57/57/57
f 59/59/59 55/55/55 56/56/56
f 60/60/60 59/59/59 56/56/56
f 61/61/61 58/58/58 55/55/55
f 59/59/59 61/61/61 55/55/55
f 64/64/64 63/63/63 62/62/62
f 65/65/65 64/64/64 62/62/62
f 62/62/62 66/66/66 65/65/65
f 66/66/66 67/67/67 65/65/65
f 67/67/67 66/66/66 68/68/68
f 66/66/66 69/69/69 68/68/68
f 70/70/70 68/68/68 69/69/69
f 71/71/71 70/70/70 69/69/69
f 72/72/72 70/70/70 71/71/71
f 73/73/73 72/72/72 71/71/71
f 76/76/76 75/75/75 74/74/74
f 77/77/77 76/76/76 74/74/74
f 78/78/78 76/76/76 77/77/77
f 79/79/79 76/76/76 78/78/78
f 80/80/80 76/76/76 79/79/79
f 81/81/81 76/76/76 80/80/80
f 75/75/75 76/76/76 81/81/81
f 82/82/82 75/75/75 81/81/81
f 85/85/85 84/84/84 83/83/83
f 84/84/84 85/85/85 86/86/86
f 85/85/85 87/87/87 86/86/86
f 87/87/87 88/88/88 86/86/86
f 88/88/88 89/89/89 86/86/86
f 90/90/90 89/89/89 88/88/88
f 91/91/91 90/90/90 88/88/88
f 92/92/92 90/90/90 91/91/91
f 95/95/95 94/94/94 93/93/93
f 97/97/97 94/94/94 96/96/96
f 100/100/100 99/99/99 98/98/98
f 101/101/101 100/100/100 98/98/98
f 102/102/102 100/100/100 101/101/101
f 102/102/102 101/101/101 103/103/103
f 102/102/102 104/104/104 100/100/100
f 104/104/104 105/105/105 100/100/100
f 108/108/108 107/107/107 106/106/106
f 109/109/109 108/108/108 106/106/106
f 108/108/108 110/110/110 107/107/107
f 108/108/108 111/111/111 110/110/110
f 114/114/114 113/113/113 112/112/112
f 115/115/115 114/114/114 112/112/112
f 112/112/112 113/113/113 116/116/116
f 113/113/113 117/117/117 116/116/116
f 118/118/118 116/116/116 117/117/117
f 121/121/121 120/120/120 119/119/119
# 0 polygons - 336 triangles
