# Export of HypnoseAR project by David Libeau and Romain Paris
# from Aaro4130 OBJ Exporter  - modified by Romain Paris

#
# object Chicken.OBJ
#

v 0.0294339 -7.152557E-09 -0.01517349
v 0.0294339 -0.01072928 -0.01072929
v 0.04713531 -0.007978744 -0.007978744
v 0.04713531 -9.536743E-09 -0.01128365
v 0.04713531 -0.01128364 0
v 0.0294339 -0.01517349 0
v 0.06457458 -1.192093E-08 -0.01452942
v 0.06457458 -0.01027388 -0.0102739
v 0.06457458 -0.01452945 0
v 0.0294339 0.01072927 -0.01072929
v 0.0294339 -7.152557E-09 -0.01517349
v 0.04713531 -9.536743E-09 -0.01128365
v 0.04713531 0.007978725 -0.007978744
v 0.0294339 0.01517347 0
v 0.04713531 0.01128362 0
v 0.06457458 0.01027386 -0.0102739
v 0.06457458 -1.192093E-08 -0.01452942
v 0.06457458 0.01452943 0
v 0.0294339 0.01072927 0.01072929
v 0.0294339 0.01517347 0
v 0.04713531 0.01128362 0
v 0.04713531 0.007978722 0.007978744
v 0.0294339 -9.536743E-09 0.01517349
v 0.04713531 -1.072884E-08 0.01128365
v 0.06457458 0.01027385 0.0102739
v 0.06457458 0.01452943 0
v 0.06457458 -1.430511E-08 0.01452942
v 0.0294339 -0.01072928 0.01072929
v 0.0294339 -9.536743E-09 0.01517349
v 0.04713531 -1.072884E-08 0.01128365
v 0.04713531 -0.007978744 0.007978744
v 0.0294339 -0.01517349 0
v 0.04713531 -0.01128364 0
v 0.06457458 -0.01027388 0.0102739
v 0.06457458 -1.430511E-08 0.01452942
v 0.06457458 -0.01452945 0
v 0.0294339 -7.152557E-09 -0.01517349
v 0.0005792236 -7.152557E-09 -0.03280388
v 0.0005792236 -0.02319583 -0.0231958
v 0.0294339 -0.01072928 -0.01072929
v 0.0005792236 -0.03280385 0
v 0.0294339 -0.01517349 0
v -0.04562775 -0.028875 -0.02887497
v -0.04562775 -1.192093E-09 -0.04083542
v -0.04562775 -0.04083543 0
v -0.07529907 -0.01692283 -0.01692284
v -0.07529907 3.576279E-09 -0.02393249
v -0.07529907 -0.0239325 0
v 0.0294339 -0.01517349 0
v 0.0005792236 -0.03280385 0
v 0.0005792236 -0.02319582 0.0231958
v 0.0294339 -0.01072928 0.01072929
v 0.0005792236 -1.192093E-08 0.03280388
v 0.0294339 -9.536743E-09 0.01517349
v -0.04562775 -0.02887502 0.02887505
v -0.04562775 -0.04083543 0
v -0.04562775 -8.34465E-09 0.04083542
v -0.07529907 -0.01692283 0.01692284
v -0.07529907 -0.0239325 0
v -0.07529907 -1.192093E-09 0.02393249
v 0.0294339 -9.536743E-09 0.01517349
v 0.0005792236 -1.192093E-08 0.03280388
v 0.0005792236 0.02319582 0.0231958
v 0.0294339 0.01072927 0.01072929
v 0.0005792236 0.03280384 0
v 0.0294339 0.01517347 0
v -0.04562775 0.02887502 0.02887505
v -0.04562775 -8.34465E-09 0.04083542
v -0.04562775 0.04083543 0
v -0.07529907 0.01692284 0.01692284
v -0.07529907 -1.192093E-09 0.02393249
v -0.07529907 0.02393251 0
v 0.0294339 0.01517347 0
v 0.0005792236 0.03280384 0
v 0.0005792236 0.02319582 -0.0231958
v 0.0294339 0.01072927 -0.01072929
v 0.0005792236 -7.152557E-09 -0.03280388
v 0.0294339 -7.152557E-09 -0.01517349
v -0.04562775 0.02887502 -0.02887505
v -0.04562775 0.04083543 0
v -0.04562775 -1.192093E-09 -0.04083542
v -0.07529907 0.01692284 -0.01692284
v -0.07529907 0.02393251 0
v -0.07529907 3.576279E-09 -0.02393249
v -0.07529907 3.576279E-09 -0.02393249
v -0.08628326 5.960464E-09 0
v -0.07529907 -0.01692283 -0.01692284
v -0.07529907 -0.0239325 0
v -0.07529907 0.01692284 -0.01692284
v -0.07529907 0.02393251 0
v -0.07529907 -0.0239325 0
v -0.08628326 5.960464E-09 0
v -0.07529907 -0.01692283 0.01692284
v -0.07529907 -1.192093E-09 0.02393249
v -0.07529907 0.01692284 0.01692284
v -0.07529907 0.02393251 0
v 0.07310211 -0.001379631 -0.001379623
v 0.06457458 -0.01027388 -0.0102739
v 0.07564636 -0.01152591 -0.006214218
v 0.07936584 -0.003112508 -0.00260994
v 0.06457458 0.01027385 0.0102739
v 0.08150817 0.0008647263 0.006176376
v 0.08628326 -0.01438853 0.005393524
v 0.06457458 0.01027385 0.0102739
v 0.08150817 0.0008647263 0.006176376
v 0.07890442 -0.006691391 0.01650803
v 0.06457458 -1.430511E-08 0.01452942
v 0.08628326 -0.01438853 0.005393524
v 0.06457458 -1.430511E-08 0.01452942
v 0.07890442 -0.006691391 0.01650803
v 0.07468658 -0.01627724 0.01276833
v 0.06457458 -0.01027388 0.0102739
v 0.07238586 -0.02047032 0.002729111
v 0.06457458 -0.01452945 0
v 0.08628326 -0.01438853 0.005393524
v 0.06457458 -0.01452945 0
v 0.07238586 -0.02047032 0.002729111
v 0.07564636 -0.01152591 -0.006214218
v 0.06457458 -0.01027388 -0.0102739
v 0.08628326 -0.01438853 0.005393524
v 0.06457458 -0.01027388 -0.0102739
v 0.08319335 0.0007528567 -0.008814926
v 0.07854736 0.007874784 -0.01856171
v 0.06457458 -1.192093E-08 -0.01452942
v 0.06457458 -1.192093E-08 -0.01452942
v 0.07854736 0.007874784 -0.01856171
v 0.0752008 0.01762147 -0.01438271
v 0.06457458 0.01027386 -0.0102739
v 0.07503753 0.02219068 -0.004245758
v 0.06457458 0.01452943 0
v 0.08559021 0.01438342 -0.008597412
v 0.06457458 0.01452943 0
v 0.07503753 0.02219068 -0.004245758
v 0.06457458 0.01027385 0.0102739
v 0.08003692 0.01362636 0.004058532
v 0.08559021 0.01438342 -0.008597412
v 0.0829245 0.005060072 7.240295E-05
v 0.07310211 -0.001379631 -0.001379623
v 0.06457458 0.01027385 0.0102739
v 0.08003692 0.01362636 0.004058532
v 0.0829245 0.005060072 7.240295E-05
v 0.06457458 -0.01027388 -0.0102739
v 0.08319335 0.0007528567 -0.008814926
v 0.08319335 0.0007528567 -0.008814926
v 0.08559021 0.01438342 -0.008597412
v 0.07854736 0.007874784 -0.01856171
v 0.0752008 0.01762147 -0.01438271
v 0.0829245 0.005060072 7.240295E-05
v 0.08559021 0.01438342 -0.008597412
v 0.08319335 0.0007528567 -0.008814926

vn 0.2161922 0 -0.535345
vn 0.2161922 -0.3785462 -0.3785459
vn 0.009376576 -0.4081943 -0.4081946
vn 0.009376748 0 -0.5772741
vn 0.009376429 -0.5772741 0
vn 0.2161921 -0.5353451 0
vn -0.08718326 -0.04625017 -0.5688526
vn 0.06572129 -0.3975749 -0.4134589
vn -0.1690345 -0.5509891 -0.03422982
vn 0.2161922 0.3785462 -0.3785459
vn 0.2161922 0 -0.535345
vn 0.009376748 0 -0.5772741
vn 0.00937669 0.4081943 -0.4081946
vn 0.2161922 0.535345 0
vn 0.009376585 0.5772741 0
vn -0.2260149 0.3621843 -0.3886812
vn -0.08718326 -0.04625017 -0.5688526
vn -0.2267094 0.5309595 0.00425788
vn 0.2161922 0.3785462 0.3785459
vn 0.2161922 0.535345 0
vn 0.009376585 0.5772741 0
vn 0.009376699 0.4081943 0.4081946
vn 0.2161922 0 0.535345
vn 0.009376749 0 0.5772741
vn 0.02883292 0.4298264 0.3843842
vn -0.2267094 0.5309595 0.00425788
vn -0.05205298 0.04449371 0.5732749
vn 0.2161921 -0.3785462 0.3785459
vn 0.2161922 0 0.535345
vn 0.009376749 0 0.5772741
vn 0.009376582 -0.4081943 0.4081946
vn 0.2161921 -0.5353451 0
vn 0.009376429 -0.5772741 0
vn -0.1964011 -0.3635856 0.403194
vn -0.05205298 0.04449371 0.5732749
vn -0.1690345 -0.5509891 -0.03422982
vn 0.2161922 0 -0.535345
vn 0.2044737 0 -0.5399295
vn 0.2044735 -0.381788 -0.3817877
vn 0.2161922 -0.3785462 -0.3785459
vn 0.2044737 -0.5399295 0
vn 0.2161921 -0.5353451 0
vn -0.1009519 -0.4019591 -0.4019589
vn -0.1009519 0 -0.5684558
vn -0.1009519 -0.5684558 0
vn -0.4286064 -0.2735232 -0.2735233
vn -0.4286064 0 -0.3868203
vn -0.4286065 -0.3868202 0
vn 0.2161921 -0.5353451 0
vn 0.2044737 -0.5399295 0
vn 0.2044737 -0.3817879 0.3817877
vn 0.2161921 -0.3785462 0.3785459
vn 0.2044737 0 0.5399294
vn 0.2161922 0 0.535345
vn -0.1009519 -0.4019589 0.401959
vn -0.1009519 -0.5684558 0
vn -0.1009519 0 0.5684558
vn -0.4286065 -0.273523 0.2735232
vn -0.4286065 -0.3868202 0
vn -0.4286064 0 0.3868202
vn 0.2161922 0 0.535345
vn 0.2044737 0 0.5399294
vn 0.2044737 0.3817879 0.3817877
vn 0.2161922 0.3785462 0.3785459
vn 0.2044738 0.5399294 0
vn 0.2161922 0.535345 0
vn -0.1009519 0.4019589 0.401959
vn -0.1009519 0 0.5684558
vn -0.1009518 0.5684559 0
vn -0.4286065 0.273523 0.2735232
vn -0.4286064 0 0.3868202
vn -0.4286065 0.3868202 0
vn 0.2161922 0.535345 0
vn 0.2044738 0.5399294 0
vn 0.2044737 0.3817879 -0.3817876
vn 0.2161922 0.3785462 -0.3785459
vn 0.2044737 0 -0.5399295
vn 0.2161922 0 -0.535345
vn -0.1009519 0.4019589 -0.401959
vn -0.1009518 0.5684559 0
vn -0.1009519 0 -0.5684558
vn -0.4286065 0.273523 -0.2735232
vn -0.4286065 0.3868202 0
vn -0.4286064 0 -0.3868203
vn -0.4286064 0 -0.3868203
vn -0.5773503 0 0
vn -0.4286064 -0.2735232 -0.2735233
vn -0.4286065 -0.3868202 0
vn -0.4286065 0.273523 -0.2735232
vn -0.4286065 0.3868202 0
vn -0.4286065 -0.3868202 0
vn -0.5773503 0 0
vn -0.4286065 -0.273523 0.2735232
vn -0.4286064 0 0.3868202
vn -0.4286065 0.273523 0.2735232
vn -0.4286065 0.3868202 0
vn 0.5717665 0.00533615 -0.07992467
vn 0.06572129 -0.3975749 -0.4134589
vn 0.2323816 -0.2002035 -0.4891325
vn 0.3418898 0.2487265 -0.3931665
vn 0.02883292 0.4298264 0.3843842
vn 0.447031 0.3616811 0.05180153
vn 0.5314495 -0.2239156 -0.02750401
vn 0.02883292 0.4298264 0.3843842
vn 0.447031 0.3616811 0.05180153
vn 0.2651803 0.004482247 0.5128281
vn -0.05205298 0.04449371 0.5732749
vn 0.5314495 -0.2239156 -0.02750401
vn -0.05205298 0.04449371 0.5732749
vn 0.2651803 0.004482247 0.5128281
vn -0.008719463 -0.4214333 0.3945267
vn -0.1964011 -0.3635856 0.403194
vn 0.01167474 -0.5708193 -0.08580406
vn -0.1690345 -0.5509891 -0.03422982
vn 0.5314495 -0.2239156 -0.02750401
vn -0.1690345 -0.5509891 -0.03422982
vn 0.01167474 -0.5708193 -0.08580406
vn 0.2323816 -0.2002035 -0.4891325
vn 0.06572129 -0.3975749 -0.4134589
vn 0.5314495 -0.2239156 -0.02750401
vn 0.06572129 -0.3975749 -0.4134589
vn 0.4663513 -0.3077593 -0.145375
vn 0.2245109 0.01116918 -0.5317926
vn -0.08718326 -0.04625017 -0.5688526
vn -0.08718326 -0.04625017 -0.5688526
vn 0.2245109 0.01116918 -0.5317926
vn -0.01684353 0.4149175 -0.4011148
vn -0.2260149 0.3621843 -0.3886812
vn 0.0186119 0.5681097 0.1011848
vn -0.2267094 0.5309595 0.00425788
vn 0.5282101 0.2163145 -0.08680724
vn -0.2267094 0.5309595 0.00425788
vn 0.0186119 0.5681097 0.1011848
vn 0.02883292 0.4298264 0.3843842
vn 0.3620389 0.1957805 0.4048842
vn 0.5282101 0.2163145 -0.08680724
vn 0.4477777 -0.2201715 0.2904357
vn 0.5717665 0.00533615 -0.07992467
vn 0.02883292 0.4298264 0.3843842
vn 0.3620389 0.1957805 0.4048842
vn 0.4477777 -0.2201715 0.2904357
vn 0.06572129 -0.3975749 -0.4134589
vn 0.4663513 -0.3077593 -0.145375
vn 0.4663513 -0.3077593 -0.145375
vn 0.5282101 0.2163145 -0.08680724
vn 0.2245109 0.01116918 -0.5317926
vn -0.01684353 0.4149175 -0.4011148
vn 0.4477777 -0.2201715 0.2904357
vn 0.5282101 0.2163145 -0.08680724
vn 0.4663513 -0.3077593 -0.145375

vt 0.1475804 0.8550217
vt 0.1475804 0.8689913
vt 0.1250651 0.8689913
vt 0.1250651 0.8550217
vt 0.1250651 0.8758555
vt 0.1475804 0.8758555
vt 0.1111907 0.8550217
vt 0.1111907 0.8689913
vt 0.1111907 0.8758555
vt 0.1475804 0.845523
vt 0.1475804 0.8550217
vt 0.1250651 0.8550217
vt 0.1250651 0.845523
vt 0.1475804 0.8410232
vt 0.1250651 0.8410232
vt 0.1111907 0.845523
vt 0.1111907 0.8550217
vt 0.1111907 0.8410232
vt 0.1475398 0.8498797
vt 0.1475398 0.8410232
vt 0.1253696 0.8410232
vt 0.1253696 0.8498797
vt 0.1475398 0.8581512
vt 0.1253696 0.8581512
vt 0.1108716 0.8498797
vt 0.1108716 0.8410232
vt 0.1108716 0.8581512
vt 0.1475398 0.870316
vt 0.1475398 0.8581512
vt 0.1253696 0.8581512
vt 0.1253696 0.870316
vt 0.1475398 0.8758555
vt 0.1253696 0.8758555
vt 0.1108716 0.870316
vt 0.1108716 0.8581512
vt 0.1108716 0.8758555
vt 0.2389308 0.9298803
vt 0.2174896 0.9070994
vt 0.2312026 0.894565
vt 0.2466635 0.9224057
vt 0.2495133 0.8847283
vt 0.2548274 0.9185746
vt 0.209493 0.8691748
vt 0.1971226 0.8838442
vt 0.224032 0.8518267
vt 0.1906704 0.8562383
vt 0.1827866 0.8677776
vt 0.1929154 0.8421044
vt 0.2548274 0.9185746
vt 0.2495133 0.8847283
vt 0.2322595 0.8959221
vt 0.2466635 0.9224057
vt 0.2176014 0.9071136
vt 0.2388341 0.9300887
vt 0.2096292 0.8722821
vt 0.224032 0.8518267
vt 0.1958207 0.8851768
vt 0.1888607 0.8590707
vt 0.1929154 0.8421044
vt 0.1807911 0.8697571
vt 0.2388341 0.9300887
vt 0.2176014 0.9071136
vt 0.2041426 0.9199207
vt 0.2308016 0.9369883
vt 0.192996 0.9374385
vt 0.2260051 0.943171
vt 0.1803255 0.8964959
vt 0.1958207 0.8851768
vt 0.1619483 0.9097286
vt 0.1687308 0.8768184
vt 0.1807911 0.8697571
vt 0.154416 0.8780106
vt 0.2260051 0.943171
vt 0.192996 0.9374385
vt 0.2053047 0.9209426
vt 0.2307589 0.9374495
vt 0.2174896 0.9070994
vt 0.2389308 0.9298803
vt 0.1832979 0.8967214
vt 0.1619483 0.9097286
vt 0.1971226 0.8838442
vt 0.1715643 0.8750839
vt 0.154416 0.8780106
vt 0.1827866 0.8677776
vt 0.1827866 0.8677776
vt 0.1656383 0.8541166
vt 0.1906704 0.8562383
vt 0.1929154 0.8421044
vt 0.1715643 0.8750839
vt 0.154416 0.8780106
vt 0.1929154 0.8421044
vt 0.1656383 0.8541166
vt 0.1888607 0.8590707
vt 0.1807911 0.8697571
vt 0.1687308 0.8768184
vt 0.154416 0.8780106
vt 0.1031545 0.861712
vt 0.1111779 0.868329
vt 0.1007604 0.8692605
vt 0.09726101 0.8630012
vt 0.1111779 0.8530421
vt 0.09524518 0.8600422
vt 0.09176295 0.8713903
vt 0.1111779 0.8530421
vt 0.09524518 0.8600422
vt 0.09769517 0.8656637
vt 0.1111779 0.8606856
vt 0.09176295 0.8713903
vt 0.1111779 0.8606856
vt 0.09769517 0.8656637
vt 0.1016635 0.8727954
vt 0.1111779 0.868329
vt 0.1038284 0.8759149
vt 0.1111779 0.8714951
vt 0.09176295 0.8713903
vt 0.1111779 0.8714951
vt 0.1038284 0.8759149
vt 0.1007604 0.8692605
vt 0.1111779 0.868329
vt 0.09176295 0.8713903
vt 0.1111779 0.868329
vt 0.0936597 0.8601254
vt 0.09803092 0.8548269
vt 0.1111779 0.8606856
vt 0.1111779 0.8606856
vt 0.09803092 0.8548269
vt 0.1011799 0.8475756
vt 0.1111779 0.8530421
vt 0.1013334 0.8441762
vt 0.1111779 0.849876
vt 0.09241503 0.8499846
vt 0.1111779 0.849876
vt 0.1013334 0.8441762
vt 0.1111779 0.8530421
vt 0.09662944 0.8505479
vt 0.09241503 0.8499846
vt 0.09391254 0.8569209
vt 0.1031545 0.861712
vt 0.1111779 0.8530421
vt 0.09662944 0.8505479
vt 0.09391254 0.8569209
vt 0.1111779 0.868329
vt 0.0936597 0.8601254
vt 0.0936597 0.8601254
vt 0.09241503 0.8499846
vt 0.09803092 0.8548269
vt 0.1011799 0.8475756
vt 0.09391254 0.8569209
vt 0.09241503 0.8499846
vt 0.0936597 0.8601254

f 3/3/3 2/2/2 1/1/1
f 4/4/4 3/3/3 1/1/1
f 3/3/3 5/5/5 2/2/2
f 5/5/5 6/6/6 2/2/2
f 3/3/3 4/4/4 7/7/7
f 8/8/8 3/3/3 7/7/7
f 5/5/5 3/3/3 8/8/8
f 9/9/9 5/5/5 8/8/8
f 12/12/12 11/11/11 10/10/10
f 13/13/13 12/12/12 10/10/10
f 13/13/13 10/10/10 14/14/14
f 15/15/15 13/13/13 14/14/14
f 12/12/12 13/13/13 16/16/16
f 17/17/17 12/12/12 16/16/16
f 13/13/13 15/15/15 18/18/18
f 16/16/16 13/13/13 18/18/18
f 21/21/21 20/20/20 19/19/19
f 22/22/22 21/21/21 19/19/19
f 22/22/22 19/19/19 23/23/23
f 24/24/24 22/22/22 23/23/23
f 21/21/21 22/22/22 25/25/25
f 26/26/26 21/21/21 25/25/25
f 22/22/22 24/24/24 27/27/27
f 25/25/25 22/22/22 27/27/27
f 30/30/30 29/29/29 28/28/28
f 31/31/31 30/30/30 28/28/28
f 31/31/31 28/28/28 32/32/32
f 33/33/33 31/31/31 32/32/32
f 30/30/30 31/31/31 34/34/34
f 35/35/35 30/30/30 34/34/34
f 31/31/31 33/33/33 36/36/36
f 34/34/34 31/31/31 36/36/36
f 39/39/39 38/38/38 37/37/37
f 40/40/40 39/39/39 37/37/37
f 41/41/41 39/39/39 40/40/40
f 42/42/42 41/41/41 40/40/40
f 39/39/39 43/43/43 38/38/38
f 43/43/43 44/44/44 38/38/38
f 45/45/45 43/43/43 39/39/39
f 41/41/41 45/45/45 39/39/39
f 43/43/43 46/46/46 44/44/44
f 46/46/46 47/47/47 44/44/44
f 48/48/48 46/46/46 43/43/43
f 45/45/45 48/48/48 43/43/43
f 51/51/51 50/50/50 49/49/49
f 52/52/52 51/51/51 49/49/49
f 53/53/53 51/51/51 52/52/52
f 54/54/54 53/53/53 52/52/52
f 51/51/51 55/55/55 50/50/50
f 55/55/55 56/56/56 50/50/50
f 57/57/57 55/55/55 51/51/51
f 53/53/53 57/57/57 51/51/51
f 55/55/55 58/58/58 56/56/56
f 58/58/58 59/59/59 56/56/56
f 60/60/60 58/58/58 55/55/55
f 57/57/57 60/60/60 55/55/55
f 63/63/63 62/62/62 61/61/61
f 64/64/64 63/63/63 61/61/61
f 65/65/65 63/63/63 64/64/64
f 66/66/66 65/65/65 64/64/64
f 63/63/63 67/67/67 62/62/62
f 67/67/67 68/68/68 62/62/62
f 69/69/69 67/67/67 63/63/63
f 65/65/65 69/69/69 63/63/63
f 67/67/67 70/70/70 68/68/68
f 70/70/70 71/71/71 68/68/68
f 72/72/72 70/70/70 67/67/67
f 69/69/69 72/72/72 67/67/67
f 75/75/75 74/74/74 73/73/73
f 76/76/76 75/75/75 73/73/73
f 77/77/77 75/75/75 76/76/76
f 78/78/78 77/77/77 76/76/76
f 75/75/75 79/79/79 74/74/74
f 79/79/79 80/80/80 74/74/74
f 81/81/81 79/79/79 75/75/75
f 77/77/77 81/81/81 75/75/75
f 79/79/79 82/82/82 80/80/80
f 82/82/82 83/83/83 80/80/80
f 84/84/84 82/82/82 79/79/79
f 81/81/81 84/84/84 79/79/79
f 87/87/87 86/86/86 85/85/85
f 88/88/88 86/86/86 87/87/87
f 85/85/85 86/86/86 89/89/89
f 89/89/89 86/86/86 90/90/90
f 93/93/93 92/92/92 91/91/91
f 94/94/94 92/92/92 93/93/93
f 95/95/95 92/92/92 94/94/94
f 96/96/96 92/92/92 95/95/95
f 99/99/99 98/98/98 97/97/97
f 100/100/100 99/99/99 97/97/97
f 100/100/100 97/97/97 101/101/101
f 102/102/102 100/100/100 101/101/101
f 100/100/100 103/103/103 99/99/99
f 102/102/102 103/103/103 100/100/100
f 106/106/106 105/105/105 104/104/104
f 107/107/107 106/106/106 104/104/104
f 106/106/106 108/108/108 105/105/105
f 111/111/111 110/110/110 109/109/109
f 112/112/112 111/111/111 109/109/109
f 113/113/113 111/111/111 112/112/112
f 114/114/114 113/113/113 112/112/112
f 111/111/111 115/115/115 110/110/110
f 113/113/113 115/115/115 111/111/111
f 118/118/118 117/117/117 116/116/116
f 119/119/119 118/118/118 116/116/116
f 118/118/118 120/120/120 117/117/117
f 123/123/123 122/122/122 121/121/121
f 124/124/124 123/123/123 121/121/121
f 127/127/127 126/126/126 125/125/125
f 128/128/128 127/127/127 125/125/125
f 129/129/129 127/127/127 128/128/128
f 130/130/130 129/129/129 128/128/128
f 129/129/129 131/131/131 127/127/127
f 134/134/134 133/133/133 132/132/132
f 135/135/135 133/133/133 134/134/134
f 135/135/135 136/136/136 133/133/133
f 137/137/137 136/136/136 135/135/135
f 140/140/140 139/139/139 138/138/138
f 141/141/141 140/140/140 138/138/138
f 141/141/141 138/138/138 142/142/142
f 143/143/143 141/141/141 142/142/142
f 146/146/146 145/145/145 144/144/144
f 147/147/147 145/145/145 146/146/146
f 150/150/150 149/149/149 148/148/148
# 0 polygons - 372 triangles
