# Export of HypnoseAR project by David Libeau and Romain Paris
# from Aaro4130 OBJ Exporter  - modified by Romain Paris

#
# object Gyoza.OBJ
#

v -0.03296204 -0.01209484 0.003639822
v -0.03755188 -0.006751485 -0.01210075
v -0.04962402 -0.007535043 0.01404256
v -0.02837219 -0.006751482 0.0193804
v -0.04428864 -0.007547116 0.0212933
v -0.01036835 -0.006747727 0.01696742
v -0.01015167 -0.01297982 -0.003874583
v 0.01015167 -0.01297982 -0.003874583
v 0.01036835 -0.006747727 0.01696742
v 0.03296204 -0.01209484 0.003639822
v 0.02837219 -0.006751482 0.0193804
v 0.04962402 -0.007535043 0.01404256
v 0.04428864 -0.007547116 0.0212933
v -0.009935303 -0.006747134 -0.02471659
v 0.03755188 -0.006751485 -0.01210075
v 0.009935303 -0.006747134 -0.02471659
v -0.02837219 -0.004185572 0.01366627
v -0.04584656 -0.005915446 0.01929956
v -0.03296204 0.00585088 0.01118217
v -0.01019928 0.008393281 0.003635397
v -0.01034058 -0.002370373 0.00837738
v -0.04428864 -0.007547116 0.0212933
v -0.02837219 -0.006751482 0.0193804
v -0.01036835 -0.006747727 0.01696742
v -0.0488977 -0.006528644 0.02471659
v -0.0517865 -0.004828336 0.02304703
v -0.04914734 -0.003741145 0.0151006
v -0.03755188 0.007175476 -0.002864733
v -0.009864502 0.01297983 -0.01466431
v 0.009864502 0.01297983 -0.01466431
v 0.01019928 0.008393281 0.003635397
v 0.03755188 0.007175476 -0.002864733
v 0.03296204 0.00585088 0.01118217
v 0.02837219 -0.004185572 0.01366627
v 0.04584656 -0.005915446 0.01929956
v 0.01034058 -0.002370373 0.00837738
v 0.04428864 -0.007547116 0.0212933
v 0.02837219 -0.006751482 0.0193804
v 0.01036835 -0.006747727 0.01696742
v 0.0488977 -0.006528644 0.02471659
v 0.0517865 -0.004828336 0.02304703
v 0.04914734 -0.003741145 0.0151006
v -0.009935303 -0.006747134 -0.02471659
v -0.009864502 0.01297983 -0.01466431
v -0.03755188 0.007175476 -0.002864733
v -0.03755188 -0.006751485 -0.01210075
v -0.04914734 -0.003741145 0.0151006
v -0.04962402 -0.007535043 0.01404256
v -0.05213287 -0.006523252 0.02269564
v -0.0517865 -0.004828336 0.02304703
v 0.009935303 -0.006747134 -0.02471659
v -0.0488977 -0.006528644 0.02471659
v -0.05213287 -0.006523252 0.02269564
v -0.0517865 -0.004828336 0.02304703
v -0.04962402 -0.007535043 0.01404256
v -0.05213287 -0.006523252 0.02269564
v -0.0488977 -0.006528644 0.02471659
v -0.04428864 -0.007547116 0.0212933
v 0.009935303 -0.006747134 -0.02471659
v 0.03755188 -0.006751485 -0.01210075
v 0.03755188 0.007175476 -0.002864733
v 0.009864502 0.01297983 -0.01466431
v 0.04914734 -0.003741145 0.0151006
v 0.04962402 -0.007535043 0.01404256
v 0.05213287 -0.006523252 0.02269564
v 0.0517865 -0.004828336 0.02304703
v -0.009864502 0.01297983 -0.01466431
v 0.05213287 -0.006523252 0.02269564
v 0.0488977 -0.006528644 0.02471659
v 0.0517865 -0.004828336 0.02304703
v 0.04962402 -0.007535043 0.01404256
v 0.04428864 -0.007547116 0.0212933
v 0.0488977 -0.006528644 0.02471659
v 0.05213287 -0.006523252 0.02269564

vn -0.07630232 -0.5718558 0.02218469
vn -0.380311 -0.2439737 -0.3594075
vn -0.3234188 -0.4732424 -0.06910303
vn 0.04177668 -0.3430302 0.462513
vn 0.2358638 -0.1567628 0.5031173
vn 0.03867988 -0.04774046 0.5740714
vn -0.01193773 -0.5772246 0.001624424
vn 0.01193773 -0.5772246 0.001624424
vn -0.03867988 -0.04774046 0.5740714
vn 0.07189998 -0.5728115 0.007120311
vn -0.04611062 -0.05813194 0.5725625
vn 0.3960942 -0.4092328 -0.09471647
vn -0.1616102 -0.1164398 0.5419015
vn -0.1210764 -0.2280732 -0.5163879
vn 0.380311 -0.2439737 -0.3594075
vn 0.1210764 -0.2280732 -0.5163879
vn 0.09135112 0.3852732 0.4201819
vn 0.08276235 0.4883529 0.2966399
vn -0.0006489427 0.4239931 0.3918709
vn 0.02538133 0.4443381 0.3677673
vn 0.04512027 0.3954677 0.4182138
vn 0.2358638 -0.1567628 0.5031173
vn 0.04177668 -0.3430302 0.462513
vn 0.03867988 -0.04774046 0.5740714
vn 0.0424712 0.2341072 0.526045
vn -0.374198 0.3484444 0.2681336
vn -0.374898 0.4386771 -0.01863043
vn -0.3247297 0.4616951 -0.1213324
vn -0.08915714 0.5224506 -0.2289754
vn 0.08915714 0.5224506 -0.2289754
vn -0.02538133 0.4443381 0.3677673
vn 0.3247297 0.4616951 -0.1213324
vn 0.0006489427 0.4239931 0.3918709
vn -0.09135112 0.3852732 0.4201819
vn -0.08276235 0.4883529 0.2966399
vn -0.04512027 0.3954677 0.4182138
vn -0.1616102 -0.1164398 0.5419015
vn -0.04611062 -0.05813194 0.5725625
vn -0.03867988 -0.04774046 0.5740714
vn -0.0424712 0.2341072 0.526045
vn 0.374198 0.3484444 0.2681336
vn 0.374898 0.4386771 -0.01863043
vn -0.1210764 -0.2280732 -0.5163879
vn -0.08915714 0.5224506 -0.2289754
vn -0.3247297 0.4616951 -0.1213324
vn -0.380311 -0.2439737 -0.3594075
vn -0.374898 0.4386771 -0.01863043
vn -0.3234188 -0.4732424 -0.06910303
vn -0.477524 -0.2556308 0.1998924
vn -0.374198 0.3484444 0.2681336
vn 0.1210764 -0.2280732 -0.5163879
vn 0.0424712 0.2341072 0.526045
vn -0.477524 -0.2556308 0.1998924
vn -0.374198 0.3484444 0.2681336
vn -0.3234188 -0.4732424 -0.06910303
vn -0.477524 -0.2556308 0.1998924
vn 0.0424712 0.2341072 0.526045
vn 0.2358638 -0.1567628 0.5031173
vn 0.1210764 -0.2280732 -0.5163879
vn 0.380311 -0.2439737 -0.3594075
vn 0.3247297 0.4616951 -0.1213324
vn 0.08915714 0.5224506 -0.2289754
vn 0.374898 0.4386771 -0.01863043
vn 0.3960942 -0.4092328 -0.09471647
vn 0.477524 -0.2556308 0.1998924
vn 0.374198 0.3484444 0.2681336
vn -0.08915714 0.5224506 -0.2289754
vn 0.477524 -0.2556308 0.1998924
vn -0.0424712 0.2341072 0.526045
vn 0.374198 0.3484444 0.2681336
vn 0.3960942 -0.4092328 -0.09471647
vn -0.1616102 -0.1164398 0.5419015
vn -0.0424712 0.2341072 0.526045
vn 0.477524 -0.2556308 0.1998924

vt 0.3138758 0.03780646
vt 0.3095512 0.0183932
vt 0.2945956 0.04989518
vt 0.3184124 0.05759965
vt 0.3002832 0.05909296
vt 0.3389138 0.05557193
vt 0.3400493 0.02972267
vt 0.3630365 0.03078335
vt 0.3623913 0.0566553
vt 0.3885139 0.04125042
vt 0.3826576 0.06056406
vt 0.4069628 0.05507999
vt 0.4005693 0.06372036
vt 0.3414321 0.004316617
vt 0.3945822 0.02231675
vt 0.3639291 0.005354634
vt 0.3306485 0.07765076
vt 0.3045838 0.07860241
vt 0.3254908 0.0913301
vt 0.3571692 0.09765123
vt 0.3567656 0.08193124
vt 0.306287 0.07459013
vt 0.3291697 0.06964401
vt 0.3560732 0.06914269
vt 0.298434 0.07332792
vt 0.294932 0.0773273
vt 0.3009495 0.08682486
vt 0.3212519 0.1096452
vt 0.3585378 0.1225459
vt 0.3832053 0.122824
vt 0.3850481 0.0979801
vt 0.4207977 0.1108995
vt 0.4168375 0.09250224
vt 0.4118765 0.0786628
vt 0.4378632 0.08002017
vt 0.3857109 0.08228394
vt 0.4362497 0.07598109
vt 0.4134802 0.07066997
vt 0.3866373 0.06951624
vt 0.4441133 0.07489273
vt 0.4475198 0.0789236
vt 0.4413461 0.0883056
vt 0.3543869 0.1511512
vt 0.3585378 0.1225459
vt 0.3212519 0.1096452
vt 0.3129551 0.1286555
vt 0.3009495 0.08682486
vt 0.2970497 0.09067003
vt 0.2925715 0.0794692
vt 0.2942607 0.0780167
vt 0.3868363 0.1515275
vt 0.2907459 0.0741667
vt 0.2925715 0.0794692
vt 0.2942607 0.0780167
vt 0.2945956 0.04989518
vt 0.2913542 0.06044473
vt 0.2949186 0.06309962
vt 0.3002832 0.05909296
vt 0.3868363 0.1515275
vt 0.4287626 0.1300175
vt 0.4207977 0.1108995
vt 0.3832053 0.122824
vt 0.4413461 0.0883056
vt 0.4451762 0.09224401
vt 0.4498637 0.08114817
vt 0.4482031 0.07965716
vt 0.3585378 0.1225459
vt 0.4488623 0.07706948
vt 0.4441133 0.07489273
vt 0.4475198 0.0789236
vt 0.4069628 0.05507999
vt 0.4005693 0.06372036
vt 0.4056412 0.06820857
vt 0.4094025 0.06589168

f 3/3/3 2/2/2 1/1/1
f 1/1/1 4/4/4 3/3/3
f 4/4/4 5/5/5 3/3/3
f 6/6/6 4/4/4 1/1/1
f 7/7/7 6/6/6 1/1/1
f 7/7/7 1/1/1 2/2/2
f 7/7/7 8/8/8 6/6/6
f 8/8/8 9/9/9 6/6/6
f 8/8/8 10/10/10 9/9/9
f 10/10/10 11/11/11 9/9/9
f 10/10/10 12/12/12 11/11/11
f 12/12/12 13/13/13 11/11/11
f 14/14/14 7/7/7 2/2/2
f 8/8/8 7/7/7 14/14/14
f 15/15/15 10/10/10 8/8/8
f 15/15/15 12/12/12 10/10/10
f 16/16/16 15/15/15 8/8/8
f 16/16/16 8/8/8 14/14/14
f 19/19/19 18/18/18 17/17/17
f 20/20/20 19/19/19 17/17/17
f 21/21/21 20/20/20 17/17/17
f 18/18/18 22/22/22 17/17/17
f 22/22/22 23/23/23 17/17/17
f 21/21/21 17/17/17 23/23/23
f 24/24/24 21/21/21 23/23/23
f 18/18/18 25/25/25 22/22/22
f 26/26/26 25/25/25 18/18/18
f 27/27/27 26/26/26 18/18/18
f 28/28/28 19/19/19 20/20/20
f 18/18/18 19/19/19 28/28/28
f 27/27/27 18/18/18 28/28/28
f 29/29/29 28/28/28 20/20/20
f 29/29/29 20/20/20 30/30/30
f 20/20/20 31/31/31 30/30/30
f 20/20/20 21/21/21 31/31/31
f 30/30/30 31/31/31 32/32/32
f 31/31/31 33/33/33 32/32/32
f 33/33/33 31/31/31 34/34/34
f 35/35/35 33/33/33 34/34/34
f 32/32/32 33/33/33 35/35/35
f 31/31/31 36/36/36 34/34/34
f 21/21/21 24/24/24 36/36/36
f 21/21/21 36/36/36 31/31/31
f 35/35/35 34/34/34 37/37/37
f 34/34/34 38/38/38 37/37/37
f 34/34/34 36/36/36 38/38/38
f 36/36/36 39/39/39 38/38/38
f 24/24/24 39/39/39 36/36/36
f 40/40/40 35/35/35 37/37/37
f 40/40/40 41/41/41 35/35/35
f 41/41/41 42/42/42 35/35/35
f 42/42/42 32/32/32 35/35/35
f 45/45/45 44/44/44 43/43/43
f 46/46/46 45/45/45 43/43/43
f 47/47/47 45/45/45 46/46/46
f 48/48/48 47/47/47 46/46/46
f 48/48/48 49/49/49 47/47/47
f 49/49/49 50/50/50 47/47/47
f 43/43/43 44/44/44 51/51/51
f 54/54/54 53/53/53 52/52/52
f 57/57/57 56/56/56 55/55/55
f 58/58/58 57/57/57 55/55/55
f 61/61/61 60/60/60 59/59/59
f 62/62/62 61/61/61 59/59/59
f 61/61/61 63/63/63 60/60/60
f 63/63/63 64/64/64 60/60/60
f 65/65/65 64/64/64 63/63/63
f 66/66/66 65/65/65 63/63/63
f 67/67/67 62/62/62 59/59/59
f 70/70/70 69/69/69 68/68/68
f 73/73/73 72/72/72 71/71/71
f 74/74/74 73/73/73 71/71/71
# 0 polygons - 216 triangles
