# Export of HypnoseAR project by David Libeau and Romain Paris
# from Aaro4130 OBJ Exporter  - modified by Romain Paris

#
# object Muffin.OBJ
#

v 0.03201416 -0.05325904 0.002057304
v 0.04607879 -0.01169593 -0.0001534653
v 0.03186798 -0.01474744 -0.03386402
v 0.02273163 -0.05325904 -0.02513512
v 0.02273163 -0.05325903 0.02924972
v 0.03298218 -0.01169594 0.03607399
v 0.02273163 -0.05325904 -0.02513512
v 0.03186798 -0.01474744 -0.03386402
v 0.0003216553 -0.01169595 -0.04591057
v 0.0003216553 -0.05325904 -0.02817501
v -0.03203338 -0.01169593 -0.03250862
v -0.02208801 -0.05325904 -0.01932018
v -0.02208801 -0.05325904 -0.01932018
v -0.03203338 -0.01169593 -0.03250862
v -0.04543548 -0.01169593 -0.0001534653
v -0.03137054 -0.05325904 0.002057304
v -0.03203338 -0.01169594 0.03220169
v -0.02208801 -0.05325903 0.02343475
v -0.02208801 -0.05325903 0.02343475
v -0.03203338 -0.01169594 0.03220169
v 0.0003216553 -0.01169593 0.04560364
v 0.0003216553 -0.05325903 0.03228958
v 0.03298218 -0.01169594 0.03607399
v 0.02273163 -0.05325903 0.02924972
v 0.02273163 -0.05325904 -0.02513512
v 0.0003216553 -0.05325904 -0.02817501
v -0.02208801 -0.05325904 -0.01932018
v 0.03201416 -0.05325904 0.002057304
v -0.03137054 -0.05325904 0.002057304
v 0.02273163 -0.05325903 0.02924972
v -0.02208801 -0.05325903 0.02343475
v 0.0003216553 -0.05325903 0.03228958
v 0.04607879 -0.01169593 -0.0001534653
v 0.05310547 -0.006929502 -0.001270409
v 0.03619446 -0.009710913 -0.03565082
v 0.03186798 -0.01474744 -0.03386402
v 0.03298218 -0.01169594 0.03607399
v 0.03852936 -0.009877982 0.03881424
v 0.0003216553 -0.01169593 0.04560364
v 0.04250732 0.02241264 -0.03280071
v 0.06062805 0.02480824 -0.001762428
v 0.04384064 0.02088564 0.0342263
v 0.03186798 -0.01474744 -0.03386402
v 0.03619446 -0.009710913 -0.03565082
v 0.001600647 -0.01198548 -0.05265476
v 0.003008423 0.01953079 -0.04708198
v 0.04250732 0.02241264 -0.03280071
v -0.04323517 0.02429302 -0.03410736
v -0.03827057 -0.007991209 -0.03817459
v 0.03044617 0.03890006 -0.02613831
v 0.0005151367 0.04135969 -0.03776878
v -0.03216003 0.041269 -0.02805241
v 0.03186798 -0.01474744 -0.03386402
v 0.001600647 -0.01198548 -0.05265476
v 0.0003216553 -0.01169595 -0.04591057
v -0.03827057 -0.007991209 -0.03817459
v -0.03203338 -0.01169593 -0.03250862
v -0.05220398 -0.01038162 0.002333488
v -0.04543548 -0.01169593 -0.0001534653
v -0.03593597 -0.00700582 0.03629051
v -0.04543548 -0.01169593 -0.0001534653
v -0.03593597 -0.00700582 0.03629051
v -0.03203338 -0.01169594 0.03220169
v -0.03203338 -0.01169594 0.03220169
v -0.03593597 -0.00700582 0.03629051
v -0.001789856 -0.007021675 0.05265472
v 0.0003216553 -0.01169593 0.04560364
v 0.03852936 -0.009877982 0.03881424
v -0.002557983 0.02472324 0.04769089
v -0.04190185 0.02547034 0.03291962
v -0.05220398 -0.01038162 0.002333488
v -0.06062805 0.01993851 0.001892166
v 0.04384064 0.02088564 0.0342263
v -0.04402222 0.04326196 -0.0008442688
v -0.02928833 0.04716486 0.02621071
v 0.0009564209 0.04313614 0.03892693
v 0.03257751 0.03780716 0.02812485
v -0.03827057 -0.007991209 -0.03817459
v -0.04323517 0.02429302 -0.03410736
v -0.06062805 0.01993851 0.001892166
v -0.05220398 -0.01038162 0.002333488
v -0.03216003 0.041269 -0.02805241
v -0.04402222 0.04326196 -0.0008442688
v 0.04377136 0.03780106 0.0001318741
v -0.0007073975 0.05325907 0.0007489776
v 0.03044617 0.03890006 -0.02613831
v 0.0005151367 0.04135969 -0.03776878
v -0.03216003 0.041269 -0.02805241
v -0.04402222 0.04326196 -0.0008442688
v -0.02928833 0.04716486 0.02621071
v 0.0009564209 0.04313614 0.03892693
v 0.03257751 0.03780716 0.02812485
v 0.04250732 0.02241264 -0.03280071
v 0.06062805 0.02480824 -0.001762428
v 0.04384064 0.02088564 0.0342263

vn 0.2588103 -0.5160894 -0.001488659
vn 0.4541274 -0.356197 -0.01501242
vn 0.3124034 -0.3784138 -0.3042046
vn 0.2089925 -0.4866486 -0.2298447
vn 0.1649716 -0.5211096 0.18591
vn 0.2871571 -0.3836204 0.3220397
vn 0.2089925 -0.4866486 -0.2298447
vn 0.3124034 -0.3784138 -0.3042046
vn -0.01419359 -0.4225813 -0.3931373
vn -0.02675484 -0.397695 -0.4176796
vn -0.2796818 -0.4297982 -0.2653016
vn -0.1734765 -0.5222501 -0.1746258
vn -0.1734765 -0.5222501 -0.1746258
vn -0.2796818 -0.4297982 -0.2653016
vn -0.4093526 -0.4069903 0.01107814
vn -0.2528274 -0.5190484 0.0006366365
vn -0.3019234 -0.36756 0.3272236
vn -0.2305323 -0.4748936 0.2338039
vn -0.2305323 -0.4748936 0.2338039
vn -0.3019234 -0.36756 0.3272236
vn -0.04100649 -0.3471727 0.4594811
vn -0.0352832 -0.3700011 0.4418004
vn 0.2871571 -0.3836204 0.3220397
vn 0.1649716 -0.5211096 0.18591
vn 0.2089925 -0.4866486 -0.2298447
vn -0.02675484 -0.397695 -0.4176796
vn -0.1734765 -0.5222501 -0.1746258
vn 0.2588103 -0.5160894 -0.001488659
vn -0.2528274 -0.5190484 0.0006366365
vn 0.1649716 -0.5211096 0.18591
vn -0.2305323 -0.4748936 0.2338039
vn -0.0352832 -0.3700011 0.4418004
vn 0.4541274 -0.356197 -0.01501242
vn 0.4731306 -0.3296077 -0.02897509
vn 0.3503807 -0.3053195 -0.3425591
vn 0.3124034 -0.3784138 -0.3042046
vn 0.2871571 -0.3836204 0.3220397
vn 0.3261802 -0.3199804 0.3529198
vn -0.04100649 -0.3471727 0.4594811
vn 0.3566422 0.1753356 -0.4188043
vn 0.5462559 0.1858476 -0.01996068
vn 0.3645751 0.1754062 0.4118871
vn 0.3124034 -0.3784138 -0.3042046
vn 0.3503807 -0.3053195 -0.3425591
vn 0.02349326 -0.3223501 -0.4784054
vn 0.02625345 0.1645816 -0.5527721
vn 0.3566422 0.1753356 -0.4188043
vn -0.3628823 0.1507274 -0.4230024
vn -0.3113873 -0.3662383 -0.3197512
vn 0.2222261 0.4721431 -0.247042
vn 0.0278626 0.4428951 -0.369325
vn -0.2106039 0.4637947 -0.2717973
vn 0.3124034 -0.3784138 -0.3042046
vn 0.02349326 -0.3223501 -0.4784054
vn -0.01419359 -0.4225813 -0.3931373
vn -0.3113873 -0.3662383 -0.3197512
vn -0.2796818 -0.4297982 -0.2653016
vn -0.4323327 -0.3816075 0.02823994
vn -0.4093526 -0.4069903 0.01107814
vn -0.3194674 -0.3071525 0.3700422
vn -0.4093526 -0.4069903 0.01107814
vn -0.3194674 -0.3071525 0.3700422
vn -0.3019234 -0.36756 0.3272236
vn -0.3019234 -0.36756 0.3272236
vn -0.3194674 -0.3071525 0.3700422
vn -0.03415547 -0.2561955 0.516266
vn -0.04100649 -0.3471727 0.4594811
vn 0.3261802 -0.3199804 0.3529198
vn -0.01083522 0.1668365 0.5526133
vn -0.3708539 0.1479897 0.417013
vn -0.4323327 -0.3816075 0.02823994
vn -0.5616216 0.1325448 0.01861074
vn 0.3645751 0.1754062 0.4118871
vn -0.3115295 0.4853065 -0.02757273
vn -0.2071604 0.4853902 0.2341245
vn 0.04452344 0.4525366 0.355755
vn 0.2416353 0.4649938 0.2423354
vn -0.3113873 -0.3662383 -0.3197512
vn -0.3628823 0.1507274 -0.4230024
vn -0.5616216 0.1325448 0.01861074
vn -0.4323327 -0.3816075 0.02823994
vn -0.2106039 0.4637947 -0.2717973
vn -0.3115295 0.4853065 -0.02757273
vn 0.2947753 0.4964218 -0.002513881
vn 0.04306868 0.5753942 -0.01999791
vn 0.2222261 0.4721431 -0.247042
vn 0.0278626 0.4428951 -0.369325
vn -0.2106039 0.4637947 -0.2717973
vn -0.3115295 0.4853065 -0.02757273
vn -0.2071604 0.4853902 0.2341245
vn 0.04452344 0.4525366 0.355755
vn 0.2416353 0.4649938 0.2423354
vn 0.3566422 0.1753356 -0.4188043
vn 0.5462559 0.1858476 -0.01996068
vn 0.3645751 0.1754062 0.4118871

vt 0.5318875 0.7726943
vt 0.5318875 0.8275861
vt 0.567701 0.8275861
vt 0.5607342 0.7726943
vt 0.5010556 0.7726943
vt 0.4942937 0.8275861
vt 0.5010556 0.7726943
vt 0.4942937 0.8275861
vt 0.5270122 0.8275861
vt 0.5270122 0.7726943
vt 0.567701 0.8275861
vt 0.5607342 0.7726943
vt 0.5010556 0.7726943
vt 0.4942937 0.8275861
vt 0.5287182 0.8275861
vt 0.5287182 0.7726943
vt 0.567701 0.8275861
vt 0.5607342 0.7726943
vt 0.4999893 0.7731133
vt 0.4941788 0.8277633
vt 0.5286953 0.8277633
vt 0.5286953 0.7731133
vt 0.5677361 0.8277633
vt 0.5573782 0.7731133
vt 0.5291224 0.8014904
vt 0.5291224 0.8014904
vt 0.5291224 0.8014904
vt 0.5291224 0.8014904
vt 0.5291224 0.8014904
vt 0.5291224 0.8014904
vt 0.5291224 0.8014904
vt 0.5291224 0.8014904
vt 0.4290478 0.6870481
vt 0.4268163 0.6968423
vt 0.4606738 0.7273076
vt 0.4691066 0.7239102
vt 0.3785639 0.6862323
vt 0.3822982 0.6922322
vt 0.3354632 0.7302676
vt 0.4351515 0.736523
vt 0.4191802 0.7220368
vt 0.3964747 0.7183649
vt 0.4691066 0.7239102
vt 0.4606738 0.7273076
vt 0.473882 0.7850834
vt 0.442426 0.770201
vt 0.4351515 0.736523
vt 0.4182768 0.7937775
vt 0.4326938 0.8199218
vt 0.4253509 0.7461219
vt 0.4260321 0.7654361
vt 0.4154201 0.7800292
vt 0.4691066 0.7239102
vt 0.473882 0.7850834
vt 0.4832462 0.7900772
vt 0.4326938 0.8199218
vt 0.4364886 0.8308257
vt 0.389125 0.8218741
vt 0.3886416 0.8297906
vt 0.3583042 0.7889013
vt 0.3886416 0.8297906
vt 0.3583042 0.7889013
vt 0.3506173 0.7946166
vt 0.3506173 0.7946166
vt 0.3583042 0.7889013
vt 0.3472073 0.7335966
vt 0.3354632 0.7302676
vt 0.3822982 0.6922322
vt 0.3770554 0.7467802
vt 0.3830119 0.7778915
vt 0.389125 0.8218741
vt 0.3966263 0.795842
vt 0.3964747 0.7183649
vt 0.4023682 0.7794743
vt 0.3933726 0.7678082
vt 0.3901648 0.7499881
vt 0.3998371 0.7335467
vt 0.4326938 0.8199218
vt 0.4182768 0.7937775
vt 0.3966263 0.795842
vt 0.389125 0.8218741
vt 0.4154201 0.7800292
vt 0.4023682 0.7794743
vt 0.4147631 0.7337918
vt 0.407656 0.7579677
vt 0.4253509 0.7461219
vt 0.4260321 0.7654361
vt 0.4154201 0.7800292
vt 0.4023682 0.7794743
vt 0.3933726 0.7678082
vt 0.3901648 0.7499881
vt 0.3998371 0.7335467
vt 0.4351515 0.736523
vt 0.4191802 0.7220368
vt 0.3964747 0.7183649

f 3/3/3 2/2/2 1/1/1
f 4/4/4 3/3/3 1/1/1
f 1/1/1 2/2/2 5/5/5
f 2/2/2 6/6/6 5/5/5
f 9/9/9 8/8/8 7/7/7
f 10/10/10 9/9/9 7/7/7
f 11/11/11 9/9/9 10/10/10
f 12/12/12 11/11/11 10/10/10
f 15/15/15 14/14/14 13/13/13
f 16/16/16 15/15/15 13/13/13
f 17/17/17 15/15/15 16/16/16
f 18/18/18 17/17/17 16/16/16
f 21/21/21 20/20/20 19/19/19
f 22/22/22 21/21/21 19/19/19
f 23/23/23 21/21/21 22/22/22
f 24/24/24 23/23/23 22/22/22
f 27/27/27 26/26/26 25/25/25
f 25/25/25 28/28/28 27/27/27
f 28/28/28 29/29/29 27/27/27
f 28/28/28 30/30/30 29/29/29
f 30/30/30 31/31/31 29/29/29
f 30/30/30 32/32/32 31/31/31
f 35/35/35 34/34/34 33/33/33
f 36/36/36 35/35/35 33/33/33
f 33/33/33 34/34/34 37/37/37
f 34/34/34 38/38/38 37/37/37
f 37/37/37 38/38/38 39/39/39
f 35/35/35 40/40/40 34/34/34
f 40/40/40 41/41/41 34/34/34
f 34/34/34 41/41/41 38/38/38
f 41/41/41 42/42/42 38/38/38
f 45/45/45 44/44/44 43/43/43
f 45/45/45 46/46/46 44/44/44
f 46/46/46 47/47/47 44/44/44
f 48/48/48 46/46/46 45/45/45
f 49/49/49 48/48/48 45/45/45
f 50/50/50 47/47/47 46/46/46
f 51/51/51 50/50/50 46/46/46
f 51/51/51 46/46/46 48/48/48
f 52/52/52 51/51/51 48/48/48
f 55/55/55 54/54/54 53/53/53
f 56/56/56 54/54/54 55/55/55
f 57/57/57 56/56/56 55/55/55
f 58/58/58 56/56/56 57/57/57
f 59/59/59 58/58/58 57/57/57
f 60/60/60 58/58/58 59/59/59
f 63/63/63 62/62/62 61/61/61
f 66/66/66 65/65/65 64/64/64
f 67/67/67 66/66/66 64/64/64
f 68/68/68 66/66/66 67/67/67
f 66/66/66 69/69/69 65/65/65
f 69/69/69 70/70/70 65/65/65
f 65/65/65 70/70/70 71/71/71
f 70/70/70 72/72/72 71/71/71
f 73/73/73 69/69/69 66/66/66
f 68/68/68 73/73/73 66/66/66
f 74/74/74 72/72/72 70/70/70
f 75/75/75 74/74/74 70/70/70
f 75/75/75 70/70/70 69/69/69
f 76/76/76 75/75/75 69/69/69
f 76/76/76 69/69/69 73/73/73
f 77/77/77 76/76/76 73/73/73
f 80/80/80 79/79/79 78/78/78
f 81/81/81 80/80/80 78/78/78
f 82/82/82 79/79/79 80/80/80
f 83/83/83 82/82/82 80/80/80
f 86/86/86 85/85/85 84/84/84
f 87/87/87 85/85/85 86/86/86
f 88/88/88 85/85/85 87/87/87
f 89/89/89 85/85/85 88/88/88
f 90/90/90 85/85/85 89/89/89
f 91/91/91 85/85/85 90/90/90
f 92/92/92 85/85/85 91/91/91
f 84/84/84 85/85/85 92/92/92
f 86/86/86 84/84/84 93/93/93
f 84/84/84 94/94/94 93/93/93
f 84/84/84 92/92/92 94/94/94
f 92/92/92 95/95/95 94/94/94
# 0 polygons - 234 triangles
