# Export of HypnoseAR project by David Libeau and Romain Paris
# from Aaro4130 OBJ Exporter  - modified by Romain Paris

#
# object Salad.OBJ
#

v -0.02946472 -0.05018929 0.005870514
v 0.001177063 -0.04111364 0.001095581
v -0.006489258 -0.07995132 0.005870514
v 0.003643494 -0.07995132 0.005870514
v -0.01866455 -0.001883497 -0.002205429
v -0.05864593 -0.02752185 0.005870514
v 0.01892242 -0.002275958 -0.002205429
v 0.0713501 -0.0004151201 0.005870514
v 0.05760467 -0.03758318 0.005870514
v 0.0252124 -0.05231873 0.005870514
v 0.003276977 0.03656173 -0.005870514
v -0.03121887 0.03656172 -0.002205429
v -0.07226837 0.03656172 0.005870514
v -0.06122528 0.006753464 0.005870514
v 0.03777252 0.03656172 -0.002205429
v 0.07226837 0.03101238 0.005870514
v -0.03327759 0.07995132 0.005870514
v -0.05948578 0.06345561 0.005870514
v -5.462646E-05 0.07402979 0.005870514
v 0.03777252 0.0753994 0.005870514
v 0.06267761 0.05832921 0.005870514
v -0.02946472 -0.05018929 0.005618286
v -0.006489258 -0.07995132 0.005618286
v 0.001177063 -0.04111364 0.0008434295
v 0.003643494 -0.07995132 0.005618286
v -0.01866455 -0.001883497 -0.002457581
v -0.05864593 -0.02752185 0.005618286
v 0.01892242 -0.002275958 -0.002457581
v 0.0713501 -0.0004151201 0.005618286
v 0.05760467 -0.03758318 0.005618286
v 0.0252124 -0.05231873 0.005618286
v 0.003276977 0.03656173 -0.006122665
v -0.03121887 0.03656172 -0.002457581
v -0.07226837 0.03656172 0.005618286
v -0.06122528 0.006753464 0.005618286
v 0.03777252 0.03656172 -0.002457581
v 0.07226837 0.03101238 0.005618286
v -0.03327759 0.07995132 0.005618286
v -0.05948578 0.06345561 0.005618286
v -5.462646E-05 0.07402979 0.005618286
v 0.03777252 0.0753994 0.005618286
v 0.06267761 0.05832921 0.005618286

vn 0.06801475 0.06829631 0.5692477
vn -0.01025061 0.07115523 0.5728571
vn 0.03622601 0.06326389 0.5727292
vn -0.04145559 0.06767631 0.5718694
vn 0.06344602 0.0431178 0.5722314
vn 0.08669936 0.04460302 0.5690581
vn -0.04117607 0.04002121 0.5744877
vn -0.08713777 0.0415724 0.5692206
vn -0.06268462 0.08763865 0.5672067
vn -0.06901197 0.09299827 0.5656165
vn -0.009765958 -0.0543986 0.5746988
vn 0.06272339 -0.03470697 0.5728827
vn 0.1006602 -0.01967148 0.5681671
vn 0.1112311 0.02367841 0.5660391
vn -0.07550044 -0.04328097 0.5707537
vn -0.1067362 -0.02756679 0.5667281
vn 0.05291855 -0.1075523 0.5647703
vn 0.08707637 -0.0782486 0.5653567
vn -0.003539155 -0.141223 0.5598007
vn -0.06717404 -0.11556 0.5616644
vn -0.1082965 -0.0841638 0.5608223
vn -0.06801375 -0.06829554 -0.5692479
vn -0.03622545 -0.06326289 -0.5727293
vn 0.01025048 -0.07115439 -0.5728571
vn 0.04145495 -0.06767523 -0.5718696
vn -0.06344543 -0.04311758 -0.5722315
vn -0.08669841 -0.04460264 -0.5690582
vn 0.04117571 -0.04002108 -0.5744877
vn 0.08713689 -0.0415721 -0.5692207
vn 0.0626838 -0.08763756 -0.5672069
vn 0.06901091 -0.09299684 -0.5656168
vn 0.00976594 0.05439806 -0.5746989
vn -0.06272294 0.03470661 -0.5728827
vn -0.1006593 0.0196713 -0.5681673
vn -0.11123 -0.0236782 -0.5660393
vn 0.07549997 0.04328056 -0.5707538
vn 0.1067352 0.02756654 -0.5667283
vn -0.0529182 0.1075514 -0.5647705
vn -0.08707557 0.07824788 -0.5653569
vn 0.003539118 0.1412219 -0.559801
vn 0.06717358 0.115559 -0.5616646
vn 0.1082955 0.08416303 -0.5608225

vt 0.7438884 0.6952879
vt 0.7322736 0.7296468
vt 0.7799155 0.7211913
vt 0.7798971 0.7324823
vt 0.6846043 0.707764
vt 0.7161646 0.6628154
vt 0.6850624 0.749055
vt 0.6830602 0.8077946
vt 0.7265338 0.7836224
vt 0.7463879 0.7567018
vt 0.638662 0.7318617
vt 0.6383032 0.694175
vt 0.6378588 0.6445029
vt 0.6744274 0.6596493
vt 0.6384051 0.7695034
vt 0.6448069 0.8087944
vt 0.5849691 0.691044
vt 0.6051018 0.6619685
vt 0.5915957 0.7281254
vt 0.5905042 0.7702242
vt 0.6114524 0.7980101
vt 0.7438884 0.6952879
vt 0.7799155 0.7211913
vt 0.7322736 0.7296468
vt 0.7798971 0.7324823
vt 0.6846043 0.707764
vt 0.7161646 0.6628154
vt 0.6850624 0.749055
vt 0.6830602 0.8077946
vt 0.7265338 0.7836224
vt 0.7463879 0.7567018
vt 0.638662 0.7318617
vt 0.6383032 0.694175
vt 0.6378588 0.6445029
vt 0.6744274 0.6596493
vt 0.6384051 0.7695034
vt 0.6448069 0.8087944
vt 0.5849691 0.691044
vt 0.6051018 0.6619685
vt 0.5915957 0.7281254
vt 0.5905042 0.7702242
vt 0.6114524 0.7980101

f 3/3/3 2/2/2 1/1/1
f 4/4/4 2/2/2 3/3/3
f 2/2/2 5/5/5 1/1/1
f 5/5/5 6/6/6 1/1/1
f 2/2/2 7/7/7 5/5/5
f 8/8/8 7/7/7 2/2/2
f 9/9/9 8/8/8 2/2/2
f 10/10/10 9/9/9 2/2/2
f 4/4/4 10/10/10 2/2/2
f 7/7/7 11/11/11 5/5/5
f 11/11/11 12/12/12 5/5/5
f 5/5/5 12/12/12 13/13/13
f 14/14/14 5/5/5 13/13/13
f 5/5/5 14/14/14 6/6/6
f 7/7/7 15/15/15 11/11/11
f 16/16/16 15/15/15 7/7/7
f 8/8/8 16/16/16 7/7/7
f 12/12/12 17/17/17 13/13/13
f 17/17/17 18/18/18 13/13/13
f 19/19/19 17/17/17 12/12/12
f 11/11/11 19/19/19 12/12/12
f 20/20/20 19/19/19 11/11/11
f 15/15/15 20/20/20 11/11/11
f 21/21/21 20/20/20 15/15/15
f 16/16/16 21/21/21 15/15/15
f 24/24/24 23/23/23 22/22/22
f 24/24/24 25/25/25 23/23/23
f 24/24/24 22/22/22 26/26/26
f 22/22/22 27/27/27 26/26/26
f 28/28/28 24/24/24 26/26/26
f 24/24/24 28/28/28 29/29/29
f 30/30/30 24/24/24 29/29/29
f 30/30/30 31/31/31 24/24/24
f 31/31/31 25/25/25 24/24/24
f 28/28/28 26/26/26 32/32/32
f 26/26/26 33/33/33 32/32/32
f 33/33/33 26/26/26 34/34/34
f 26/26/26 35/35/35 34/34/34
f 35/35/35 26/26/26 27/27/27
f 36/36/36 28/28/28 32/32/32
f 28/28/28 36/36/36 37/37/37
f 29/29/29 28/28/28 37/37/37
f 33/33/33 34/34/34 38/38/38
f 34/34/34 39/39/39 38/38/38
f 33/33/33 38/38/38 40/40/40
f 32/32/32 33/33/33 40/40/40
f 32/32/32 40/40/40 41/41/41
f 36/36/36 32/32/32 41/41/41
f 36/36/36 41/41/41 42/42/42
f 37/37/37 36/36/36 42/42/42
# 0 polygons - 150 triangles
