# Export of HypnoseAR project by David Libeau and Romain Paris
# from Aaro4130 OBJ Exporter  - modified by Romain Paris

#
# object Saucisson.OBJ
#

v 0.0008422851 -0.02162527 0.0706657
v 0.0008102417 -0.02092288 0.007198486
v -0.01245758 -0.0185059 0.006073026
v -0.01443451 -0.02031243 0.06821878
v -0.01443451 -0.02031243 0.06821878
v -0.01245758 -0.0185059 0.006073026
v -0.02143249 -0.007385146 0.003126516
v -0.0255603 -0.008144631 0.06181265
v -0.02140472 0.006095297 -0.0005155563
v -0.02387604 0.006895602 0.05389423
v -0.02387604 0.006895602 0.05389423
v -0.02140472 0.006095297 -0.0005155563
v -0.01357758 0.01700121 -0.003462067
v -0.01686951 0.01906341 0.0474881
v 0.0008102417 0.02116689 -0.004587526
v 0.0008422851 0.02371109 0.04504116
v 0.0008422851 0.02371109 0.04504116
v 0.0008102417 0.02116689 -0.004587526
v 0.01422394 0.01368443 -0.003462057
v 0.01611877 0.01479044 0.0474881
v 0.02227844 0.006095297 -0.0005155563
v 0.0255603 0.006895599 0.05389423
v 0.0255603 0.006895599 0.05389423
v 0.02227844 0.006095297 -0.0005155563
v 0.02226288 -0.007385151 0.003126526
v 0.02449249 -0.008144636 0.06181265
v 0.01293823 -0.01863633 0.006073026
v 0.01611877 -0.02031244 0.06821878
v 0.01611877 -0.02031244 0.06821878
v 0.01293823 -0.01863633 0.006073026
v 0.0008102417 -0.02092288 0.007198486
v 0.0008422851 -0.02162527 0.0706657
v 0.01611877 0.01479044 0.0474881
v 0.0255603 0.006895599 0.05389423
v 0.02449249 -0.008144636 0.06181265
v 0.01611877 -0.02031244 0.06821878
v 0.0008422851 0.02371109 0.04504116
v 0.0008422851 -0.02162527 0.0706657
v -0.01686951 0.01906341 0.0474881
v -0.01443451 -0.02031243 0.06821878
v -0.0255603 -0.008144631 0.06181265
v -0.02387604 0.006895602 0.05389423
v 0.0008422851 -0.02371108 -0.0367693
v 0.0008422851 -0.02132311 -0.0462352
v -0.01132416 -0.01783714 -0.0462352
v -0.01272766 -0.01976906 -0.0367693
v 0.0008422851 -0.01431012 -0.05570108
v -0.007202148 -0.0116964 -0.05570108
v -0.01245758 -0.0185059 0.006073026
v 0.0008102417 -0.02092288 0.007198486
v -0.01272766 -0.01976906 -0.0367693
v -0.01132416 -0.01783714 -0.0462352
v -0.01884338 -0.007020743 -0.04623521
v -0.0211145 -0.007758667 -0.0367693
v -0.02046722 0.00577168 -0.04623521
v -0.02273834 0.006509609 -0.03676931
v -0.007202148 -0.0116964 -0.05570108
v -0.01217346 -0.004853611 -0.05570108
v -0.002384644 -0.001672964 -0.06148436
v -0.001152039 -0.003369355 -0.06148436
v -0.002384644 0.0004238939 -0.06148436
v -0.01217346 0.003604545 -0.05570108
v -0.02143249 -0.007385146 0.003126516
v -0.01245758 -0.0185059 0.006073026
v -0.02140472 0.006095297 -0.0005155563
v -0.02273834 0.006509609 -0.03676931
v -0.02046722 0.00577168 -0.04623521
v -0.01132416 0.01612097 -0.04623522
v -0.01272766 0.01805288 -0.03676931
v 0.0008422851 0.02007404 -0.04623522
v 0.0008422851 0.02246202 -0.03676931
v -0.01217346 0.003604545 -0.05570108
v -0.007202148 0.01044734 -0.05570108
v -0.001152039 0.002120287 -0.06148436
v -0.002384644 0.0004238939 -0.06148436
v 0.0008422851 0.002768249 -0.06148436
v 0.0008422851 0.01306105 -0.05570108
v -0.01357758 0.01700121 -0.003462067
v -0.02140472 0.006095297 -0.0005155563
v 0.0008102417 0.02116689 -0.004587526
v 0.0008422851 0.02246202 -0.03676931
v 0.0008422851 0.02007404 -0.04623522
v 0.01332519 0.01318278 -0.04623521
v 0.0147287 0.01511469 -0.03676931
v 0.02052765 0.00577168 -0.04623521
v 0.02279877 0.006509609 -0.03676931
v 0.008886414 0.01044734 -0.05570108
v 0.01385803 0.003604545 -0.05570108
v 0.01422394 0.01368443 -0.003462057
v 0.0008102417 0.02116689 -0.004587526
v 0.02227844 0.006095297 -0.0005155563
v 0.02279877 0.006509609 -0.03676931
v 0.02052765 0.00577168 -0.04623521
v 0.02156158 -0.007020747 -0.04623521
v 0.0238327 -0.00775867 -0.0367693
v 0.01052948 -0.0181207 -0.0462352
v 0.01193298 -0.02005261 -0.0367693
v 0.0008422851 -0.02132311 -0.0462352
v 0.0008422851 -0.02371108 -0.0367693
v 0.01385803 0.003604545 -0.05570108
v 0.01385803 -0.004853613 -0.05570108
v 0.004068909 -0.001672964 -0.06148436
v 0.004068909 0.0004238939 -0.06148436
v 0.002836304 -0.003369357 -0.06148436
v 0.008886414 -0.01169641 -0.05570108
v 0.0008422851 -0.00401732 -0.06148436
v 0.0008422851 -0.01431012 -0.05570108
v 0.02226288 -0.007385151 0.003126526
v 0.02227844 0.006095297 -0.0005155563
v 0.01293823 -0.01863633 0.006073026
v 0.0008422851 -0.01431012 -0.05570108
v 0.0008422851 -0.00401732 -0.06148436
v -0.001152039 -0.003369355 -0.06148436
v -0.007202148 -0.0116964 -0.05570108
v 0.0008422851 0.01306105 -0.05570108
v 0.0008422851 0.002768249 -0.06148436
v 0.002836304 0.002120285 -0.06148436
v 0.008886414 0.01044734 -0.05570108
v 0.01332519 0.01318278 -0.04623521
v 0.0008422851 0.02007404 -0.04623522
v 0.008886414 0.01044734 -0.05570108
v 0.002836304 0.002120285 -0.06148436
v 0.004068909 0.0004238939 -0.06148436
v 0.01385803 0.003604545 -0.05570108
v 0.0008422851 -0.02132311 -0.0462352
v 0.01052948 -0.0181207 -0.0462352
v 0.008886414 -0.01169641 -0.05570108
v 0.0008422851 -0.01431012 -0.05570108
v 0.0008422851 -0.00401732 -0.06148436
v 0.0008422851 -0.004841647 -0.06773048
v -0.001636658 -0.00403625 -0.06773048
v -0.001152039 -0.003369355 -0.06148436
v -0.00316864 -0.001927695 -0.06773048
v -0.002384644 -0.001672964 -0.06148436
v -0.00316864 0.0006786227 -0.06773048
v -0.002384644 0.0004238939 -0.06148436
v -0.001636658 0.00278718 -0.06773048
v -0.001152039 0.002120287 -0.06148436
v 0.0008422851 -0.0006245375 -0.0706657
v -0.001152039 0.002120287 -0.06148436
v -0.001636658 0.00278718 -0.06773048
v 0.0008422851 0.003592575 -0.06773048
v 0.0008422851 0.002768249 -0.06148436
v 0.0008422851 -0.0006245375 -0.0706657
v -0.00316864 0.0006786227 -0.06773048
v 0.0008422851 0.002768249 -0.06148436
v 0.0008422851 0.003592575 -0.06773048
v 0.003320923 0.002787177 -0.06773048
v 0.002836304 0.002120285 -0.06148436
v 0.004852905 0.0006786227 -0.06773048
v 0.004068909 0.0004238939 -0.06148436
v 0.004852905 -0.001927695 -0.06773048
v 0.004068909 -0.001672964 -0.06148436
v 0.004068909 -0.001672964 -0.06148436
v 0.004852905 -0.001927695 -0.06773048
v 0.003320923 -0.004036252 -0.06773048
v 0.002836304 -0.003369357 -0.06148436
v 0.0008422851 -0.0006245375 -0.0706657
v 0.004852905 0.0006786227 -0.06773048
v 0.0008422851 -0.004841647 -0.06773048
v 0.002836304 -0.003369357 -0.06148436
v 0.003320923 -0.004036252 -0.06773048
v 0.0008422851 -0.004841647 -0.06773048
v 0.0008422851 -0.00401732 -0.06148436
v 0.0008422851 -0.004841647 -0.06773048
v 0.0008422851 -0.0006245375 -0.0706657
v -0.001636658 -0.00403625 -0.06773048
v 0.0008422851 0.003592575 -0.06773048
v 0.0008422851 -0.0006245375 -0.0706657
v 0.003320923 0.002787177 -0.06773048
v 0.003320923 0.002787177 -0.06773048
v 0.0008422851 -0.0006245375 -0.0706657
v 0.004852905 0.0006786227 -0.06773048
v 0.0008102417 -0.02092288 0.007198486
v 0.01293823 -0.01863633 0.006073026
v 0.01193298 -0.02005261 -0.0367693
v 0.0008422851 -0.02371108 -0.0367693

vn -0.002989865 -0.1190865 0.5649273
vn 0.002675795 -0.577304 0.006803615
vn -0.2935067 -0.497173 -0.002492584
vn -0.269597 -0.2024265 0.4686942
vn -0.269597 -0.2024265 0.4686942
vn -0.2935067 -0.497173 -0.002492584
vn -0.5426936 -0.1965861 -0.01307333
vn -0.4148581 0.07226325 0.3949735
vn -0.5512473 0.1711278 -0.0132308
vn -0.4747545 0.2631288 0.1967352
vn -0.4747545 0.2631288 0.1967352
vn -0.5512473 0.1711278 -0.0132308
vn -0.3361485 0.4692969 -0.009897106
vn -0.143711 0.3928442 0.3979371
vn 0.06480531 0.5736904 -0.00359803
vn 0.06571116 0.4581696 0.3451028
vn 0.06571116 0.4581696 0.3451028
vn 0.06480531 0.5736904 -0.00359803
vn 0.3432644 0.4642156 -0.00259982
vn 0.1493144 0.434021 0.3502346
vn 0.5318456 0.2245815 -0.006059433
vn 0.4222934 0.3271345 0.219054
vn 0.4222934 0.3271345 0.219054
vn 0.5318456 0.2245815 -0.006059433
vn 0.5417026 -0.1995857 -0.007564333
vn 0.389605 0.07808015 0.4188613
vn 0.2929602 -0.4975005 -0.0009372091
vn 0.2299403 -0.02260765 0.5291026
vn 0.2299403 -0.02260765 0.5291026
vn 0.2929602 -0.4975005 -0.0009372091
vn 0.002675795 -0.577304 0.006803615
vn -0.002989865 -0.1190865 0.5649273
vn 0.1493144 0.434021 0.3502346
vn 0.4222934 0.3271345 0.219054
vn 0.389605 0.07808015 0.4188613
vn 0.2299403 -0.02260765 0.5291026
vn 0.06571116 0.4581696 0.3451028
vn -0.002989865 -0.1190865 0.5649273
vn -0.143711 0.3928442 0.3979371
vn -0.269597 -0.2024265 0.4686942
vn -0.4148581 0.07226325 0.3949735
vn -0.4747545 0.2631288 0.1967352
vn 0.008005654 -0.5744775 -0.05696293
vn 0.008680411 -0.5208651 -0.2489126
vn -0.3029167 -0.4215383 -0.2527453
vn -0.3246447 -0.4732232 -0.06323721
vn 0.003254049 -0.3797672 -0.4348558
vn -0.2211925 -0.30579 -0.4369207
vn -0.2935067 -0.497173 -0.002492584
vn 0.002675795 -0.577304 0.006803615
vn -0.3246447 -0.4732232 -0.06323721
vn -0.3029167 -0.4215383 -0.2527453
vn -0.4862422 -0.181878 -0.2526306
vn -0.5374478 -0.2001763 -0.06642734
vn -0.4884119 0.1527559 -0.2673065
vn -0.5469879 0.1718002 -0.06798683
vn -0.2211925 -0.30579 -0.4369207
vn -0.3546647 -0.1240626 -0.4383546
vn -0.4879766 -0.1585557 -0.2647116
vn -0.3015808 -0.4151018 -0.2647128
vn -0.4879767 0.1585556 -0.2647117
vn -0.3496635 0.1120312 -0.4455533
vn -0.5426936 -0.1965861 -0.01307333
vn -0.2935067 -0.497173 -0.002492584
vn -0.5512473 0.1711278 -0.0132308
vn -0.5469879 0.1718002 -0.06798683
vn -0.4884119 0.1527559 -0.2673065
vn -0.2884507 0.4325477 -0.2510618
vn -0.3193413 0.4768232 -0.06319876
vn 0.04300744 0.5235854 -0.2394621
vn 0.05461738 0.5714095 -0.06197981
vn -0.3496635 0.1120312 -0.4455533
vn -0.2154116 0.3099491 -0.4368784
vn -0.3015807 0.4151017 -0.264713
vn -0.4879767 0.1585556 -0.2647117
vn 8.570061E-06 0.5130886 -0.2647137
vn 0.01731615 0.3880309 -0.4271597
vn -0.3361485 0.4692969 -0.009897106
vn -0.5512473 0.1711278 -0.0132308
vn 0.06480531 0.5736904 -0.00359803
vn 0.05461738 0.5714095 -0.06197981
vn 0.04300744 0.5235854 -0.2394621
vn 0.3230971 0.425478 -0.2188836
vn 0.3458099 0.4587215 -0.05764876
vn 0.4803343 0.2060841 -0.2452377
vn 0.5248567 0.2320617 -0.06329384
vn 0.239752 0.3221179 -0.4148401
vn 0.3583852 0.1350914 -0.4320228
vn 0.3432644 0.4642156 -0.00259982
vn 0.06480531 0.5736904 -0.00359803
vn 0.5318456 0.2245815 -0.006059433
vn 0.5248567 0.2320617 -0.06329384
vn 0.4803343 0.2060841 -0.2452377
vn 0.4860976 -0.1769263 -0.2563973
vn 0.5392514 -0.1954319 -0.06593678
vn 0.2825413 -0.4423695 -0.2404434
vn 0.3008814 -0.4890263 -0.06047305
vn 0.008680411 -0.5208651 -0.2489126
vn 0.008005654 -0.5744775 -0.05696293
vn 0.3583852 0.1350914 -0.4320228
vn 0.3550256 -0.1235847 -0.4381973
vn 0.4879745 -0.1585574 -0.2647144
vn 0.4879744 0.1585575 -0.2647144
vn 0.3015858 -0.4150985 -0.2647122
vn 0.2174613 -0.3183517 -0.4297628
vn 8.141558E-06 -0.5130888 -0.2647136
vn 0.003254049 -0.3797672 -0.4348558
vn 0.5417026 -0.1995857 -0.007564333
vn 0.5318456 0.2245815 -0.006059433
vn 0.2929602 -0.4975005 -0.0009372091
vn 0.003254049 -0.3797672 -0.4348558
vn 8.141558E-06 -0.5130888 -0.2647136
vn -0.3015808 -0.4151018 -0.2647128
vn -0.2211925 -0.30579 -0.4369207
vn 0.01731615 0.3880309 -0.4271597
vn 8.570061E-06 0.5130886 -0.2647137
vn 0.3015858 0.4150984 -0.2647123
vn 0.239752 0.3221179 -0.4148401
vn 0.3230971 0.425478 -0.2188836
vn 0.04300744 0.5235854 -0.2394621
vn 0.239752 0.3221179 -0.4148401
vn 0.3015858 0.4150984 -0.2647123
vn 0.4879744 0.1585575 -0.2647144
vn 0.3583852 0.1350914 -0.4320228
vn 0.008680411 -0.5208651 -0.2489126
vn 0.2825413 -0.4423695 -0.2404434
vn 0.2174613 -0.3183517 -0.4297628
vn 0.003254049 -0.3797672 -0.4348558
vn 8.141558E-06 -0.5130888 -0.2647136
vn 1.01554E-05 -0.5258374 -0.2383869
vn -0.3090703 -0.4254166 -0.2383893
vn -0.3015808 -0.4151018 -0.2647128
vn -0.500097 -0.1624965 -0.2383929
vn -0.4879766 -0.1585557 -0.2647116
vn -0.500097 0.1624963 -0.2383929
vn -0.4879767 0.1585556 -0.2647117
vn -0.3090702 0.4254166 -0.2383896
vn -0.3015807 0.4151017 -0.264713
vn 7.946695E-06 0 -0.5773503
vn -0.3015807 0.4151017 -0.264713
vn -0.3090702 0.4254166 -0.2383896
vn 1.06525E-05 0.5258374 -0.2383871
vn 8.570061E-06 0.5130886 -0.2647137
vn 7.946695E-06 0 -0.5773503
vn -0.500097 0.1624963 -0.2383929
vn 8.570061E-06 0.5130886 -0.2647137
vn 1.06525E-05 0.5258374 -0.2383871
vn 0.3090809 0.4254122 -0.2383835
vn 0.3015858 0.4150984 -0.2647123
vn 0.500101 0.1624974 -0.238384
vn 0.4879744 0.1585575 -0.2647144
vn 0.500101 -0.1624973 -0.238384
vn 0.4879745 -0.1585574 -0.2647144
vn 0.4879745 -0.1585574 -0.2647144
vn 0.500101 -0.1624973 -0.238384
vn 0.3090809 -0.4254123 -0.2383834
vn 0.3015858 -0.4150985 -0.2647122
vn 7.946695E-06 0 -0.5773503
vn 0.500101 0.1624974 -0.238384
vn 1.01554E-05 -0.5258374 -0.2383869
vn 0.3015858 -0.4150985 -0.2647122
vn 0.3090809 -0.4254123 -0.2383834
vn 1.01554E-05 -0.5258374 -0.2383869
vn 8.141558E-06 -0.5130888 -0.2647136
vn 1.01554E-05 -0.5258374 -0.2383869
vn 7.946695E-06 0 -0.5773503
vn -0.3090703 -0.4254166 -0.2383893
vn 1.06525E-05 0.5258374 -0.2383871
vn 7.946695E-06 0 -0.5773503
vn 0.3090809 0.4254122 -0.2383835
vn 0.3090809 0.4254122 -0.2383835
vn 7.946695E-06 0 -0.5773503
vn 0.500101 0.1624974 -0.238384
vn 0.002675795 -0.577304 0.006803615
vn 0.2929602 -0.4975005 -0.0009372091
vn 0.3008814 -0.4890263 -0.06047305
vn 0.008005654 -0.5744775 -0.05696293

vt 0.2210762 0.1575177
vt 0.4138184 0.1552879
vt 0.4138184 0.1751119
vt 0.2248562 0.1807538
vt 0.2248562 0.1807538
vt 0.4138184 0.1751119
vt 0.4138184 0.1962668
vt 0.2407123 0.2010856
vt 0.4138184 0.2160298
vt 0.2635531 0.2159728
vt 0.2635531 0.2159728
vt 0.4138184 0.2160298
vt 0.4138184 0.2354797
vt 0.2825095 0.2367792
vt 0.4138184 0.2571044
vt 0.2920507 0.2610705
vt 0.2942683 0.2553423
vt 0.4149013 0.2567333
vt 0.4149013 0.2337034
vt 0.2853135 0.2374257
vt 0.4149013 0.2170747
vt 0.2654952 0.2230403
vt 0.2654952 0.2230403
vt 0.4149013 0.2170747
vt 0.4149013 0.1965946
vt 0.2425759 0.2050218
vt 0.4149013 0.1743343
vt 0.2252979 0.1872629
vt 0.2252979 0.1872629
vt 0.4149013 0.1743343
vt 0.4149013 0.1555445
vt 0.2208445 0.1632631
vt 0.5140892 0.2452397
vt 0.5321965 0.2251914
vt 0.5301485 0.1922827
vt 0.5140892 0.1656591
vt 0.484791 0.2619843
vt 0.484791 0.1606215
vt 0.4508232 0.251815
vt 0.4554928 0.1656591
vt 0.4341552 0.1922828
vt 0.4373855 0.2251914
vt 0.3000582 0.1609673
vt 0.2721722 0.1674621
vt 0.2832268 0.183773
vt 0.3062403 0.1800942
vt 0.2446905 0.1808001
vt 0.2563723 0.1908345
vt 0.4138184 0.1751119
vt 0.4138184 0.1552879
vt 0.3062403 0.1800942
vt 0.2832268 0.183773
vt 0.287987 0.199674
vt 0.3099178 0.1983133
vt 0.2895733 0.2145855
vt 0.3106295 0.2154838
vt 0.2563723 0.1908345
vt 0.2618583 0.2018178
vt 0.2334062 0.2047317
vt 0.2310518 0.2005627
vt 0.2335557 0.2097134
vt 0.2623847 0.213144
vt 0.4138184 0.1962668
vt 0.4138184 0.1751119
vt 0.4138184 0.2160298
vt 0.3106295 0.2154838
vt 0.2895733 0.2145855
vt 0.2840184 0.2307944
vt 0.3074756 0.2342346
vt 0.2736326 0.2475465
vt 0.3019091 0.2536192
vt 0.2623847 0.213144
vt 0.2576781 0.2244225
vt 0.2318264 0.2144674
vt 0.2335557 0.2097134
vt 0.2278408 0.2179774
vt 0.2464614 0.2349621
vt 0.4138184 0.2354797
vt 0.4138184 0.2160298
vt 0.4138184 0.2571044
vt 0.3016347 0.2537282
vt 0.2735502 0.2478197
vt 0.2830361 0.2278218
vt 0.3069305 0.231388
vt 0.2878751 0.2150884
vt 0.3098826 0.2163785
vt 0.2562637 0.2242677
vt 0.2616144 0.2129657
vt 0.4149013 0.2337034
vt 0.4149013 0.2567333
vt 0.4149013 0.2170747
vt 0.3098826 0.2163785
vt 0.2878751 0.2150884
vt 0.2887013 0.1996623
vt 0.3101668 0.1985986
vt 0.2813911 0.180068
vt 0.3061973 0.1762328
vt 0.2726842 0.1658871
vt 0.3014994 0.1595139
vt 0.2616144 0.2129657
vt 0.2618829 0.2014096
vt 0.233397 0.2052198
vt 0.2328124 0.2103155
vt 0.2314679 0.2004098
vt 0.2568934 0.1898852
vt 0.2273925 0.1969142
vt 0.2452862 0.1793349
vt 0.4149013 0.1965946
vt 0.4149013 0.2170747
vt 0.4149013 0.1743343
vt 0.2446905 0.1808001
vt 0.2274146 0.1980427
vt 0.2310518 0.2005627
vt 0.2563723 0.1908345
vt 0.2450874 0.2347858
vt 0.2270122 0.2173438
vt 0.2305633 0.2146883
vt 0.2562637 0.2242677
vt 0.2830361 0.2278218
vt 0.2735502 0.2478197
vt 0.2562637 0.2242677
vt 0.2305633 0.2146883
vt 0.2328124 0.2103155
vt 0.2616144 0.2129657
vt 0.2726842 0.1658871
vt 0.2813911 0.180068
vt 0.2568934 0.1898852
vt 0.2452862 0.1793349
vt 0.2288311 0.195815
vt 0.2455362 0.1975076
vt 0.2433895 0.2018057
vt 0.2281721 0.200425
vt 0.2423888 0.2057716
vt 0.2274787 0.2051991
vt 0.2423526 0.2096419
vt 0.2278675 0.210052
vt 0.2432398 0.2136052
vt 0.228377 0.2146735
vt 0.2526553 0.2079283
vt 0.228377 0.2146735
vt 0.2432398 0.2136052
vt 0.245223 0.2179136
vt 0.2288416 0.2190929
vt 0.2526553 0.2079283
vt 0.2423526 0.2096419
vt 0.2288686 0.2192022
vt 0.2451659 0.217931
vt 0.2431606 0.2136524
vt 0.2283341 0.2147006
vt 0.242246 0.2097117
vt 0.227774 0.210048
vt 0.2422464 0.2058582
vt 0.2273391 0.2051991
vt 0.2273391 0.2051991
vt 0.2422464 0.2058582
vt 0.2432138 0.2018737
vt 0.2279789 0.2004635
vt 0.2525156 0.2079283
vt 0.242246 0.2097117
vt 0.2453334 0.1975523
vt 0.2279789 0.2004635
vt 0.2432138 0.2018737
vt 0.2453334 0.1975523
vt 0.2285632 0.1959428
vt 0.2455362 0.1975076
vt 0.2526553 0.2079283
vt 0.2433895 0.2018057
vt 0.2451659 0.217931
vt 0.2525156 0.2079283
vt 0.2431606 0.2136524
vt 0.2431606 0.2136524
vt 0.2525156 0.2079283
vt 0.242246 0.2097117
vt 0.4149013 0.1555445
vt 0.4149013 0.1743343
vt 0.3061973 0.1762328
vt 0.3014994 0.1595139

f 3/3/3 2/2/2 1/1/1
f 4/4/4 3/3/3 1/1/1
f 7/7/7 6/6/6 5/5/5
f 8/8/8 7/7/7 5/5/5
f 9/9/9 7/7/7 8/8/8
f 10/10/10 9/9/9 8/8/8
f 13/13/13 12/12/12 11/11/11
f 14/14/14 13/13/13 11/11/11
f 15/15/15 13/13/13 14/14/14
f 16/16/16 15/15/15 14/14/14
f 19/19/19 18/18/18 17/17/17
f 20/20/20 19/19/19 17/17/17
f 21/21/21 19/19/19 20/20/20
f 22/22/22 21/21/21 20/20/20
f 25/25/25 24/24/24 23/23/23
f 26/26/26 25/25/25 23/23/23
f 27/27/27 25/25/25 26/26/26
f 28/28/28 27/27/27 26/26/26
f 31/31/31 30/30/30 29/29/29
f 32/32/32 31/31/31 29/29/29
f 35/35/35 34/34/34 33/33/33
f 33/33/33 36/36/36 35/35/35
f 33/33/33 37/37/37 36/36/36
f 37/37/37 38/38/38 36/36/36
f 37/37/37 39/39/39 38/38/38
f 39/39/39 40/40/40 38/38/38
f 39/39/39 41/41/41 40/40/40
f 39/39/39 42/42/42 41/41/41
f 45/45/45 44/44/44 43/43/43
f 46/46/46 45/45/45 43/43/43
f 47/47/47 44/44/44 45/45/45
f 48/48/48 47/47/47 45/45/45
f 46/46/46 43/43/43 49/49/49
f 43/43/43 50/50/50 49/49/49
f 53/53/53 52/52/52 51/51/51
f 54/54/54 53/53/53 51/51/51
f 55/55/55 53/53/53 54/54/54
f 56/56/56 55/55/55 54/54/54
f 57/57/57 52/52/52 53/53/53
f 58/58/58 57/57/57 53/53/53
f 58/58/58 53/53/53 55/55/55
f 58/58/58 59/59/59 57/57/57
f 59/59/59 60/60/60 57/57/57
f 61/61/61 59/59/59 58/58/58
f 62/62/62 61/61/61 58/58/58
f 62/62/62 58/58/58 55/55/55
f 54/54/54 51/51/51 63/63/63
f 51/51/51 64/64/64 63/63/63
f 54/54/54 63/63/63 65/65/65
f 56/56/56 54/54/54 65/65/65
f 68/68/68 67/67/67 66/66/66
f 69/69/69 68/68/68 66/66/66
f 70/70/70 68/68/68 69/69/69
f 71/71/71 70/70/70 69/69/69
f 72/72/72 67/67/67 68/68/68
f 73/73/73 72/72/72 68/68/68
f 73/73/73 68/68/68 70/70/70
f 73/73/73 74/74/74 72/72/72
f 74/74/74 75/75/75 72/72/72
f 76/76/76 74/74/74 73/73/73
f 77/77/77 76/76/76 73/73/73
f 77/77/77 73/73/73 70/70/70
f 69/69/69 66/66/66 78/78/78
f 66/66/66 79/79/79 78/78/78
f 69/69/69 78/78/78 80/80/80
f 71/71/71 69/69/69 80/80/80
f 83/83/83 82/82/82 81/81/81
f 84/84/84 83/83/83 81/81/81
f 85/85/85 83/83/83 84/84/84
f 86/86/86 85/85/85 84/84/84
f 87/87/87 83/83/83 85/85/85
f 88/88/88 87/87/87 85/85/85
f 84/84/84 81/81/81 89/89/89
f 81/81/81 90/90/90 89/89/89
f 84/84/84 89/89/89 91/91/91
f 86/86/86 84/84/84 91/91/91
f 94/94/94 93/93/93 92/92/92
f 95/95/95 94/94/94 92/92/92
f 96/96/96 94/94/94 95/95/95
f 97/97/97 96/96/96 95/95/95
f 98/98/98 96/96/96 97/97/97
f 99/99/99 98/98/98 97/97/97
f 100/100/100 93/93/93 94/94/94
f 101/101/101 100/100/100 94/94/94
f 101/101/101 94/94/94 96/96/96
f 101/101/101 102/102/102 100/100/100
f 102/102/102 103/103/103 100/100/100
f 104/104/104 102/102/102 101/101/101
f 105/105/105 104/104/104 101/101/101
f 105/105/105 101/101/101 96/96/96
f 106/106/106 104/104/104 105/105/105
f 107/107/107 106/106/106 105/105/105
f 95/95/95 92/92/92 108/108/108
f 92/92/92 109/109/109 108/108/108
f 95/95/95 108/108/108 110/110/110
f 97/97/97 95/95/95 110/110/110
f 113/113/113 112/112/112 111/111/111
f 114/114/114 113/113/113 111/111/111
f 117/117/117 116/116/116 115/115/115
f 118/118/118 117/117/117 115/115/115
f 118/118/118 115/115/115 119/119/119
f 115/115/115 120/120/120 119/119/119
f 123/123/123 122/122/122 121/121/121
f 124/124/124 123/123/123 121/121/121
f 127/127/127 126/126/126 125/125/125
f 128/128/128 127/127/127 125/125/125
f 131/131/131 130/130/130 129/129/129
f 132/132/132 131/131/131 129/129/129
f 133/133/133 131/131/131 132/132/132
f 134/134/134 133/133/133 132/132/132
f 135/135/135 133/133/133 134/134/134
f 136/136/136 135/135/135 134/134/134
f 137/137/137 135/135/135 136/136/136
f 138/138/138 137/137/137 136/136/136
f 133/133/133 139/139/139 131/131/131
f 135/135/135 139/139/139 133/133/133
f 142/142/142 141/141/141 140/140/140
f 143/143/143 142/142/142 140/140/140
f 142/142/142 144/144/144 141/141/141
f 141/141/141 144/144/144 145/145/145
f 148/148/148 147/147/147 146/146/146
f 149/149/149 148/148/148 146/146/146
f 150/150/150 148/148/148 149/149/149
f 151/151/151 150/150/150 149/149/149
f 152/152/152 150/150/150 151/151/151
f 153/153/153 152/152/152 151/151/151
f 156/156/156 155/155/155 154/154/154
f 157/157/157 156/156/156 154/154/154
f 156/156/156 158/158/158 155/155/155
f 155/155/155 158/158/158 159/159/159
f 160/160/160 158/158/158 156/156/156
f 163/163/163 162/162/162 161/161/161
f 164/164/164 163/163/163 161/161/161
f 167/167/167 166/166/166 165/165/165
f 170/170/170 169/169/169 168/168/168
f 173/173/173 172/172/172 171/171/171
f 176/176/176 175/175/175 174/174/174
f 177/177/177 176/176/176 174/174/174
# 0 polygons - 414 triangles
