# Export of HypnoseAR project by David Libeau and Romain Paris
# from Aaro4130 OBJ Exporter  - modified by Romain Paris

#
# object Steak_Uncooked.OBJ
#

v 0.05724823 0.008415971 -0.0002148247
v 0.04271393 0.008415976 0.01981728
v 0.03330353 0.008415971 -0.00141922
v 0.04267883 0.008415971 -0.02073135
v 0.02006225 0.008416271 -0.01246624
v 0.02660644 0.008415971 0.00579052
v -0.01266296 0.008415966 -0.0311429
v 0.008145447 0.008415971 -0.0112311
v -0.04210602 0.008415971 -0.02120449
v 0.003146057 0.008415971 -0.00437664
v -0.01334808 0.008415976 0.03187267
v -0.05771545 0.008415971 0.0007762146
v -0.04576996 0.008415976 0.02707886
v 0.01046356 0.008415971 0.00618042
v 0.01489502 0.008415971 0.01554274
v 0.01046356 0.008415971 0.00618042
v 0.003146057 0.008415971 -0.00437664
v 0.008145447 0.008415971 -0.0112311
v 0.02660644 0.008415971 0.00579052
v 0.03330353 0.008415971 -0.00141922
v 0.02006225 0.008416271 -0.01246624
v 0.06145965 0.008415971 0
v 0.05724823 0.008415971 -0.0002148247
v 0.04267883 0.008415971 -0.02073135
v 0.04345855 0.008415966 -0.02519955
v -0.01266296 0.008415966 -0.0311429
v -0.01235229 0.008415966 -0.03563755
v -0.04210602 0.008415971 -0.02120449
v -0.04345855 0.008415966 -0.02519955
v -0.05771545 0.008415971 0.0007762146
v -0.06145965 0.008415971 0
v -0.04576996 0.008415976 0.02707886
v -0.04852783 0.008415976 0.03032022
v -0.01334808 0.008415976 0.03187267
v -0.01235229 0.008415976 0.03563755
v 0.01489502 0.008415971 0.01554274
v 0.01630646 0.008415976 0.01959396
v 0.04271393 0.008415976 0.01981728
v 0.04388153 0.008415976 0.02380613
v 0.04345855 0.008415966 -0.02519955
v 0.0426059 -4.768371E-09 -0.02467201
v 0.0602655 0 4.919052E-05
v 0.06145965 0.008415971 0
v -0.01235229 0.008415966 -0.03563755
v -0.01214539 -4.768371E-09 -0.03491186
v -0.04345855 0.008415966 -0.02519955
v -0.04266113 -4.768371E-09 -0.02467201
v 0.04345855 -0.008415976 -0.02519955
v 0.06145965 -0.008415971 0
v -0.01235229 -0.008415976 -0.03563755
v -0.06145965 0.008415971 0
v -0.06032043 0 4.919052E-05
v -0.04266113 -4.768371E-09 -0.02467201
v -0.04345855 0.008415966 -0.02519955
v -0.06145965 -0.008415971 0
v -0.04345855 -0.008415976 -0.02519955
v -0.01214539 -4.768371E-09 -0.03491186
v -0.01235229 -0.008415976 -0.03563755
v -0.04852783 0.008415976 0.03032022
v -0.04763397 4.768371E-09 0.02979385
v -0.06032043 0 4.919052E-05
v -0.06145965 0.008415971 0
v -0.01235229 0.008415976 0.03563755
v -0.01214539 4.768371E-09 0.03501022
v -0.04852783 -0.008415966 0.03032022
v -0.06145965 -0.008415971 0
v -0.01235229 -0.008415966 0.03563755
v 0.01630646 0.008415976 0.01959396
v 0.01596924 0 0.0192712
v -0.01214539 4.768371E-09 0.03501022
v -0.01235229 0.008415976 0.03563755
v 0.04388153 0.008415976 0.02380613
v 0.04302124 4.768371E-09 0.02340343
v 0.06145965 0.008415971 0
v 0.0602655 0 4.919052E-05
v 0.01630646 -0.008415971 0.01959396
v -0.01235229 -0.008415966 0.03563755
v 0.06145965 -0.008415971 0
v 0.04388153 -0.008415966 0.02380615
v 0.05724823 -0.008415971 -0.0002148247
v 0.03330353 -0.008415971 -0.00141922
v 0.04271393 -0.008415966 0.01981728
v 0.04267883 -0.008415976 -0.02073135
v 0.02006225 -0.008416271 -0.01246624
v 0.02660644 -0.008415971 0.00579052
v -0.01266296 -0.008415976 -0.0311429
v 0.008145447 -0.008415971 -0.0112311
v -0.04210602 -0.008415976 -0.02120449
v 0.003146057 -0.008415971 -0.00437664
v -0.01334808 -0.008415966 0.03187267
v -0.05771545 -0.008415971 0.0007762146
v -0.04576996 -0.008415966 0.02707886
v 0.01046356 -0.008415971 0.00618042
v 0.01489502 -0.008415971 0.01554274
v 0.008145447 -0.008415971 -0.0112311
v 0.003146057 -0.008415971 -0.00437664
v 0.01046356 -0.008415971 0.00618042
v 0.02660644 -0.008415971 0.00579052
v 0.03330353 -0.008415971 -0.00141922
v 0.02006225 -0.008416271 -0.01246624
v 0.06145965 -0.008415971 0
v 0.04345855 -0.008415976 -0.02519955
v 0.04267883 -0.008415976 -0.02073135
v 0.05724823 -0.008415971 -0.0002148247
v -0.01266296 -0.008415976 -0.0311429
v -0.01235229 -0.008415976 -0.03563755
v -0.04210602 -0.008415976 -0.02120449
v -0.04345855 -0.008415976 -0.02519955
v -0.05771545 -0.008415971 0.0007762146
v -0.06145965 -0.008415971 0
v -0.04576996 -0.008415966 0.02707886
v -0.04852783 -0.008415966 0.03032022
v -0.01334808 -0.008415966 0.03187267
v -0.01235229 -0.008415966 0.03563755
v 0.01489502 -0.008415971 0.01554274
v 0.01630646 -0.008415971 0.01959396
v 0.04271393 -0.008415966 0.01981728
v 0.04388153 -0.008415966 0.02380615

vn 0 0.5773503 0
vn 0 0.5773503 0
vn 0 0.5773503 3.11396E-06
vn 2.379202E-06 0.5773503 -1.883424E-06
vn 0 0.5773503 3.806336E-06
vn 0 0.5773503 2.208802E-06
vn -2.114292E-06 0.5773503 0
vn -4.36302E-06 0.5773503 6.160616E-06
vn 0 0.5773503 0
vn 0 0.5773503 0
vn 0 0.5773503 0
vn 0 0.5773503 0
vn 0 0.5773503 0
vn 0 0.5773503 0
vn 0 0.5773503 0
vn 0 0.5773503 0
vn 0 0.5773503 0
vn -4.36302E-06 0.5773503 6.160616E-06
vn 0 0.5773503 2.208802E-06
vn 0 0.5773503 3.11396E-06
vn 0 0.5773503 3.806336E-06
vn 0.3879286 0.4275917 0.00318291
vn 0 0.5773503 0
vn 2.379202E-06 0.5773503 -1.883424E-06
vn 0.2218647 0.4033173 -0.3484889
vn -2.114292E-06 0.5773503 0
vn -0.02900774 0.3974822 -0.4177317
vn 0 0.5773503 0
vn -0.2488857 0.3976358 -0.3365635
vn 0 0.5773503 0
vn -0.4018612 0.4122041 -0.04391688
vn 0 0.5773503 0
vn -0.2441833 0.4157895 0.3175326
vn 0 0.5773503 0
vn 0.0744581 0.4061587 0.4035151
vn 0 0.5773503 0
vn 0.07228885 0.4109795 0.3990031
vn 0 0.5773503 0
vn 0.1484423 0.4252308 0.361216
vn 0.2218647 0.4033173 -0.3484889
vn 0.3100637 0 -0.4870256
vn 0.5773308 0 0.004736871
vn 0.3879286 0.4275917 0.00318291
vn -0.02900774 0.3974822 -0.4177317
vn -0.0399955 0 -0.5759633
vn -0.2488857 0.3976358 -0.3365635
vn -0.3432801 0 -0.4642113
vn 0.2218647 -0.4033173 -0.3484889
vn 0.3879286 -0.4275916 0.003182824
vn -0.02900774 -0.3974822 -0.4177317
vn -0.4018612 0.4122041 -0.04391688
vn -0.5739332 0 -0.06272157
vn -0.3432801 0 -0.4642113
vn -0.2488857 0.3976358 -0.3365635
vn -0.4018612 -0.4122041 -0.04391691
vn -0.2488857 -0.3976358 -0.3365636
vn -0.0399955 0 -0.5759633
vn -0.02900774 -0.3974822 -0.4177317
vn -0.2441833 0.4157895 0.3175326
vn -0.351951 0 0.4576722
vn -0.5739332 0 -0.06272157
vn -0.4018612 0.4122041 -0.04391688
vn 0.0744581 0.4061587 0.4035151
vn 0.1047662 0 0.5677652
vn -0.2441833 -0.4157895 0.3175326
vn -0.4018612 -0.4122041 -0.04391691
vn 0.07445814 -0.4061587 0.4035151
vn 0.07228885 0.4109795 0.3990031
vn 0.1029251 0 0.5681019
vn 0.1047662 0 0.5677652
vn 0.0744581 0.4061587 0.4035151
vn 0.1484423 0.4252308 0.361216
vn 0.2194547 0 0.5340158
vn 0.3879286 0.4275917 0.00318291
vn 0.5773308 0 0.004736871
vn 0.07228885 -0.4109794 0.3990032
vn 0.07445814 -0.4061587 0.4035151
vn 0.3879286 -0.4275916 0.003182824
vn 0.1484424 -0.4252306 0.3612161
vn 0 -0.5773503 0
vn 0 -0.5773503 3.134253E-06
vn 0 -0.5773503 0
vn 2.360567E-06 -0.5773503 -1.801181E-06
vn 0 -0.5773503 3.971514E-06
vn 0 -0.5773503 2.208802E-06
vn -2.110826E-06 -0.5773503 0
vn -4.356556E-06 -0.5773503 6.222991E-06
vn 0 -0.5773503 0
vn 0 -0.5773503 0
vn 0 -0.5773503 0
vn 0 -0.5773503 0
vn 0 -0.5773503 0
vn 0 -0.5773503 0
vn 0 -0.5773503 0
vn -4.356556E-06 -0.5773503 6.222991E-06
vn 0 -0.5773503 0
vn 0 -0.5773503 0
vn 0 -0.5773503 2.208802E-06
vn 0 -0.5773503 3.134253E-06
vn 0 -0.5773503 3.971514E-06
vn 0.3879286 -0.4275916 0.003182824
vn 0.2218647 -0.4033173 -0.3484889
vn 2.360567E-06 -0.5773503 -1.801181E-06
vn 0 -0.5773503 0
vn -2.110826E-06 -0.5773503 0
vn -0.02900774 -0.3974822 -0.4177317
vn 0 -0.5773503 0
vn -0.2488857 -0.3976358 -0.3365636
vn 0 -0.5773503 0
vn -0.4018612 -0.4122041 -0.04391691
vn 0 -0.5773503 0
vn -0.2441833 -0.4157895 0.3175326
vn 0 -0.5773503 0
vn 0.07445814 -0.4061587 0.4035151
vn 0 -0.5773503 0
vn 0.07228885 -0.4109794 0.3990032
vn 0 -0.5773503 0
vn 0.1484424 -0.4252306 0.3612161

vt 0.3595093 0.6684607
vt 0.3595093 0.6684607
vt 0.3595093 0.6408674
vt 0.3595093 0.6684607
vt 0.3595093 0.6408674
vt 0.3595093 0.6408674
vt 0.3595093 0.6684607
vt 0.3595093 0.6408674
vt 0.3595093 0.6684607
vt 0.3595093 0.6408674
vt 0.3595093 0.6684607
vt 0.3595093 0.6684607
vt 0.3595093 0.6684607
vt 0.3595093 0.6408674
vt 0.3595093 0.6684607
vt 0.4497589 0.9939492
vt 0.4784375 0.9875411
vt 0.4806583 0.9682599
vt 0.4232138 0.9682599
vt 0.4231304 0.9457484
vt 0.4625317 0.9477029
vt 0.38379 0.9634906
vt 0.4089514 0.9634906
vt 0.4089514 0.9634906
vt 0.38379 0.9634906
vt 0.4089514 0.9634906
vt 0.38379 0.9634906
vt 0.4089514 0.9634906
vt 0.38379 0.9634906
vt 0.4089514 0.9634906
vt 0.38379 0.9634906
vt 0.4089514 0.9634906
vt 0.38379 0.9634906
vt 0.4089514 0.9634906
vt 0.38379 0.9634906
vt 0.4089514 0.9634906
vt 0.38379 0.9634906
vt 0.4089514 0.9634906
vt 0.38379 0.9634906
vt 0.38379 0.9634906
vt 0.3485808 0.9634906
vt 0.3485808 0.9634906
vt 0.38379 0.9634906
vt 0.38379 0.9634906
vt 0.3485808 0.9634906
vt 0.38379 0.9634906
vt 0.3485808 0.9634906
vt 0.38379 0.9634906
vt 0.38379 0.9634906
vt 0.38379 0.9634906
vt 0.38379 0.9634906
vt 0.3485808 0.9634906
vt 0.3485808 0.9634906
vt 0.38379 0.9634906
vt 0.38379 0.9634906
vt 0.38379 0.9634906
vt 0.3485808 0.9634906
vt 0.38379 0.9634906
vt 0.38379 0.9634906
vt 0.3485808 0.9634906
vt 0.3485808 0.9634906
vt 0.38379 0.9634906
vt 0.38379 0.9634906
vt 0.3485808 0.9634906
vt 0.38379 0.9634906
vt 0.38379 0.9634906
vt 0.38379 0.9634906
vt 0.38379 0.9634906
vt 0.3485808 0.9634906
vt 0.3485808 0.9634906
vt 0.38379 0.9634906
vt 0.38379 0.9634906
vt 0.3485808 0.9634906
vt 0.38379 0.9634906
vt 0.3485808 0.9634906
vt 0.38379 0.9634906
vt 0.38379 0.9634906
vt 0.38379 0.9634906
vt 0.38379 0.9634906
vt 0.3595093 0.6684607
vt 0.3595093 0.6408674
vt 0.3595093 0.6684607
vt 0.3595093 0.6684607
vt 0.3595093 0.6408674
vt 0.3595093 0.6408674
vt 0.3595093 0.6684607
vt 0.3595093 0.6408674
vt 0.3595093 0.6684607
vt 0.3595093 0.6408674
vt 0.3595093 0.6684607
vt 0.3595093 0.6684607
vt 0.3595093 0.6684607
vt 0.3595093 0.6408674
vt 0.3595093 0.6684607
vt 0.4806583 0.9682599
vt 0.4784375 0.9875411
vt 0.4497589 0.9939492
vt 0.4232138 0.9682599
vt 0.4231304 0.9457484
vt 0.4625317 0.9477029
vt 0.38379 0.9634906
vt 0.38379 0.9634906
vt 0.4089514 0.9634906
vt 0.4089514 0.9634906
vt 0.4089514 0.9634906
vt 0.38379 0.9634906
vt 0.4089514 0.9634906
vt 0.38379 0.9634906
vt 0.4089514 0.9634906
vt 0.38379 0.9634906
vt 0.4089514 0.9634906
vt 0.38379 0.9634906
vt 0.4089514 0.9634906
vt 0.38379 0.9634906
vt 0.4089514 0.9634906
vt 0.38379 0.9634906
vt 0.4089514 0.9634906
vt 0.38379 0.9634906

f 3/3/3 2/2/2 1/1/1
f 4/4/4 3/3/3 1/1/1
f 5/5/5 3/3/3 4/4/4
f 6/6/6 2/2/2 3/3/3
f 7/7/7 5/5/5 4/4/4
f 8/8/8 5/5/5 7/7/7
f 7/7/7 9/9/9 8/8/8
f 9/9/9 10/10/10 8/8/8
f 9/9/9 11/11/11 10/10/10
f 11/11/11 9/9/9 12/12/12
f 13/13/13 11/11/11 12/12/12
f 11/11/11 14/14/14 10/10/10
f 15/15/15 6/6/6 14/14/14
f 11/11/11 15/15/15 14/14/14
f 15/15/15 2/2/2 6/6/6
f 18/18/18 17/17/17 16/16/16
f 19/19/19 18/18/18 16/16/16
f 19/19/19 20/20/20 18/18/18
f 20/20/20 21/21/21 18/18/18
f 24/24/24 23/23/23 22/22/22
f 25/25/25 24/24/24 22/22/22
f 26/26/26 24/24/24 25/25/25
f 27/27/27 26/26/26 25/25/25
f 28/28/28 26/26/26 27/27/27
f 29/29/29 28/28/28 27/27/27
f 30/30/30 28/28/28 29/29/29
f 31/31/31 30/30/30 29/29/29
f 32/32/32 30/30/30 31/31/31
f 33/33/33 32/32/32 31/31/31
f 34/34/34 32/32/32 33/33/33
f 35/35/35 34/34/34 33/33/33
f 36/36/36 34/34/34 35/35/35
f 37/37/37 36/36/36 35/35/35
f 38/38/38 36/36/36 37/37/37
f 39/39/39 38/38/38 37/37/37
f 23/23/23 38/38/38 39/39/39
f 22/22/22 23/23/23 39/39/39
f 42/42/42 41/41/41 40/40/40
f 43/43/43 42/42/42 40/40/40
f 40/40/40 41/41/41 44/44/44
f 41/41/41 45/45/45 44/44/44
f 44/44/44 45/45/45 46/46/46
f 45/45/45 47/47/47 46/46/46
f 48/48/48 41/41/41 42/42/42
f 49/49/49 48/48/48 42/42/42
f 50/50/50 45/45/45 41/41/41
f 48/48/48 50/50/50 41/41/41
f 53/53/53 52/52/52 51/51/51
f 54/54/54 53/53/53 51/51/51
f 55/55/55 52/52/52 53/53/53
f 56/56/56 55/55/55 53/53/53
f 56/56/56 53/53/53 57/57/57
f 58/58/58 56/56/56 57/57/57
f 61/61/61 60/60/60 59/59/59
f 62/62/62 61/61/61 59/59/59
f 59/59/59 60/60/60 63/63/63
f 60/60/60 64/64/64 63/63/63
f 65/65/65 60/60/60 61/61/61
f 66/66/66 65/65/65 61/61/61
f 67/67/67 64/64/64 60/60/60
f 65/65/65 67/67/67 60/60/60
f 70/70/70 69/69/69 68/68/68
f 71/71/71 70/70/70 68/68/68
f 68/68/68 69/69/69 72/72/72
f 69/69/69 73/73/73 72/72/72
f 72/72/72 73/73/73 74/74/74
f 73/73/73 75/75/75 74/74/74
f 76/76/76 69/69/69 70/70/70
f 77/77/77 76/76/76 70/70/70
f 78/78/78 75/75/75 73/73/73
f 79/79/79 78/78/78 73/73/73
f 79/79/79 73/73/73 69/69/69
f 76/76/76 79/79/79 69/69/69
f 82/82/82 81/81/81 80/80/80
f 81/81/81 83/83/83 80/80/80
f 81/81/81 84/84/84 83/83/83
f 82/82/82 85/85/85 81/81/81
f 84/84/84 86/86/86 83/83/83
f 84/84/84 87/87/87 86/86/86
f 86/86/86 87/87/87 88/88/88
f 87/87/87 89/89/89 88/88/88
f 88/88/88 89/89/89 90/90/90
f 91/91/91 88/88/88 90/90/90
f 92/92/92 91/91/91 90/90/90
f 89/89/89 93/93/93 90/90/90
f 85/85/85 94/94/94 93/93/93
f 94/94/94 90/90/90 93/93/93
f 82/82/82 94/94/94 85/85/85
f 97/97/97 96/96/96 95/95/95
f 98/98/98 97/97/97 95/95/95
f 98/98/98 95/95/95 99/99/99
f 95/95/95 100/100/100 99/99/99
f 103/103/103 102/102/102 101/101/101
f 104/104/104 103/103/103 101/101/101
f 103/103/103 105/105/105 102/102/102
f 105/105/105 106/106/106 102/102/102
f 105/105/105 107/107/107 106/106/106
f 107/107/107 108/108/108 106/106/106
f 107/107/107 109/109/109 108/108/108
f 109/109/109 110/110/110 108/108/108
f 109/109/109 111/111/111 110/110/110
f 111/111/111 112/112/112 110/110/110
f 111/111/111 113/113/113 112/112/112
f 113/113/113 114/114/114 112/112/112
f 113/113/113 115/115/115 114/114/114
f 115/115/115 116/116/116 114/114/114
f 115/115/115 117/117/117 116/116/116
f 117/117/117 118/118/118 116/116/116
f 117/117/117 104/104/104 118/118/118
f 104/104/104 101/101/101 118/118/118
# 0 polygons - 330 triangles
