# Export of HypnoseAR project by David Libeau and Romain Paris
# from Aaro4130 OBJ Exporter  - modified by Romain Paris

#
# object Chili.OBJ
#

v -0.09490875 -0.02216695 0
v -0.1050095 0.01676131 0
v -0.08495453 0.01676132 0.04003174
v -0.07678284 -0.02216695 0.03618114
v -0.03244964 0.01676132 0.06477268
v -0.02932861 -0.02216694 0.05854233
v -0.02932861 -0.02216694 0.05854233
v -0.03244964 0.01676132 0.06477268
v 0.03244964 0.01676132 0.06477268
v 0.02932861 -0.02216694 0.05854233
v 0.08495453 0.01676132 0.0400317
v 0.07678284 -0.02216695 0.03618114
v 0.1050095 0.01676131 0
v 0.09490875 -0.02216695 0
v 0.07678284 -0.02216695 0.03618114
v 0.09490875 -0.02216695 0
v -0.09490875 -0.02216695 0
v -0.07678284 -0.02216695 0.03618114
v 0.02932861 -0.02216694 0.05854233
v -0.02932861 -0.02216694 0.05854233
v 0.07678284 -0.02216695 -0.03618111
v -0.07678284 -0.02216695 -0.03618114
v -0.02932861 -0.02216695 -0.05854231
v 0.02932861 -0.02216695 -0.05854231
v -0.1050095 0.01676131 0
v -0.09345428 0.01676132 0
v -0.07560608 0.01676132 0.0356266
v -0.08495453 0.01676132 0.04003174
v -0.02887909 0.01676132 0.05764503
v -0.03244964 0.01676132 0.06477268
v 0.02887909 0.01676132 0.05764503
v 0.03244964 0.01676132 0.06477268
v 0.07560608 0.01676132 0.03562656
v 0.08495453 0.01676132 0.0400317
v 0.09345428 0.01676132 0
v 0.1050095 0.01676131 0
v -0.06763092 0.007932113 0.03186867
v -0.0835965 0.00793211 0
v -0.02583282 0.007932114 0.05156456
v 0.02583282 0.007932114 0.05156456
v 0.06763092 0.007932113 0.03186863
v 0.0835965 0.00793211 0
v 0.08495453 0.01676131 -0.0400317
v 0.07560608 0.01676131 -0.03562656
v 0.03244964 0.0167613 -0.0647727
v 0.02887909 0.01676131 -0.05764503
v -0.03244964 0.0167613 -0.0647727
v -0.02887909 0.01676131 -0.05764503
v -0.08495453 0.01676131 -0.04003174
v -0.07560608 0.01676131 -0.0356266
v -0.06763092 0.007932105 -0.03186867
v -0.02583282 0.007932102 -0.05156454
v 0.02583282 0.007932102 -0.05156456
v 0.06763092 0.007932105 -0.03186863
v -0.09490875 -0.02216695 0
v -0.07678284 -0.02216695 -0.03618114
v -0.08495453 0.01676131 -0.04003174
v -0.1050095 0.01676131 0
v -0.03244964 0.0167613 -0.0647727
v -0.02932861 -0.02216695 -0.05854231
v 0.03244964 0.0167613 -0.0647727
v 0.02932861 -0.02216695 -0.05854231
v 0.02932861 -0.02216695 -0.05854231
v 0.07678284 -0.02216695 -0.03618111
v 0.08495453 0.01676131 -0.0400317
v 0.03244964 0.0167613 -0.0647727
v 0.1050095 0.01676131 0
v 0.09490875 -0.02216695 0
v 0.03398987 0.02216694 0
v 0.02583282 0.007932102 -0.05156456
v 0.06763092 0.007932105 -0.03186863
v 0.0835965 0.00793211 0
v -0.02583282 0.007932102 -0.05156454
v -0.03398987 0.02216694 0
v -0.06763092 0.007932105 -0.03186867
v -0.0835965 0.00793211 0
v -0.06763092 0.007932113 0.03186867
v -0.02583282 0.007932114 0.05156456
v 0.02583282 0.007932114 0.05156456
v 0.06763092 0.007932113 0.03186863

vn -0.2103674 -0.5376605 0
vn -0.4315568 0.3835259 0
vn -0.3047178 0.3772796 0.3132737
vn -0.1923801 -0.5071544 0.1977818
vn -0.0951848 0.3778875 0.4259979
vn -0.1034609 -0.3289766 0.4630373
vn -0.1034609 -0.3289766 0.4630373
vn -0.0951848 0.3778875 0.4259979
vn 0.09518488 0.3778875 0.4259979
vn 0.08008217 -0.4454945 0.358406
vn 0.3047178 0.3772797 0.3132737
vn 0.1923802 -0.5071543 0.1977818
vn 0.4315567 0.3835259 0
vn 0.3343681 -0.4706711 0
vn 0.1923802 -0.5071543 0.1977818
vn 0.3343681 -0.4706711 0
vn -0.2103674 -0.5376605 0
vn -0.1923801 -0.5071544 0.1977818
vn 0.08008217 -0.4454945 0.358406
vn -0.1034609 -0.3289766 0.4630373
vn 0.156027 -0.5322201 -0.1604079
vn -0.2457023 -0.4573362 -0.2526011
vn -0.08008207 -0.4454946 -0.3584058
vn 0.103461 -0.3289769 -0.4630371
vn -0.4315568 0.3835259 0
vn 0.2007272 0.5413335 0
vn 0.1553424 0.5308709 -0.1654634
vn -0.3047178 0.3772796 0.3132737
vn 0.0549715 0.5171603 -0.2507122
vn -0.0951848 0.3778875 0.4259979
vn -0.05497158 0.5171604 -0.2507122
vn 0.09518488 0.3778875 0.4259979
vn -0.1553425 0.5308709 -0.1654634
vn 0.3047178 0.3772797 0.3132737
vn -0.2007271 0.5413335 0
vn 0.4315567 0.3835259 0
vn 0.1763677 0.5175475 -0.185398
vn 0.1466777 0.5584075 0
vn 0.02495811 0.5460273 -0.1859155
vn -0.02495817 0.5460273 -0.1859155
vn -0.1763677 0.5175475 -0.1853979
vn -0.1345619 0.5612755 0.01400854
vn 0.304718 0.3772796 -0.3132738
vn -0.1553425 0.5308709 0.1654634
vn 0.09518497 0.3778873 -0.425998
vn -0.05497158 0.5171604 0.2507121
vn -0.09518484 0.3778873 -0.425998
vn 0.05497146 0.5171604 0.2507121
vn -0.3047179 0.3772796 -0.3132738
vn 0.1553424 0.530871 0.1654634
vn 0.1763676 0.5175475 0.1853978
vn 0.02495806 0.5460274 0.1859153
vn -0.03625681 0.5487033 0.1759073
vn -0.09790695 0.5589225 0.1065512
vn -0.2103674 -0.5376605 0
vn -0.2457023 -0.4573362 -0.2526011
vn -0.3047179 0.3772796 -0.3132738
vn -0.4315568 0.3835259 0
vn -0.09518484 0.3778873 -0.425998
vn -0.08008207 -0.4454946 -0.3584058
vn 0.09518497 0.3778873 -0.425998
vn 0.103461 -0.3289769 -0.4630371
vn 0.103461 -0.3289769 -0.4630371
vn 0.156027 -0.5322201 -0.1604079
vn 0.304718 0.3772796 -0.3132738
vn 0.09518497 0.3778873 -0.425998
vn 0.4315567 0.3835259 0
vn 0.3343681 -0.4706711 0
vn 0.07210591 0.5723282 -0.02396878
vn -0.03625681 0.5487033 0.1759073
vn -0.09790695 0.5589225 0.1065512
vn -0.1345619 0.5612755 0.01400854
vn 0.02495806 0.5460274 0.1859153
vn -0.05869878 0.5743586 0
vn 0.1763676 0.5175475 0.1853978
vn 0.1466777 0.5584075 0
vn 0.1763677 0.5175475 -0.185398
vn 0.02495811 0.5460273 -0.1859155
vn -0.02495817 0.5460273 -0.1859155
vn -0.1763677 0.5175475 -0.1853979

vt 0.6926479 0.5461664
vt 0.6926479 0.6130338
vt 0.6926479 0.6130338
vt 0.6926479 0.5461664
vt 0.6926479 0.6130338
vt 0.6926479 0.5461664
vt 0.6926479 0.5461664
vt 0.6926479 0.6130338
vt 0.6926479 0.6130338
vt 0.6926479 0.5461664
vt 0.6926479 0.6130338
vt 0.6926479 0.5461664
vt 0.6926479 0.6130338
vt 0.6926479 0.5461664
vt 0.6642712 0.5491518
vt 0.6642712 0.5491518
vt 0.6642712 0.5491518
vt 0.6642712 0.5491518
vt 0.6642712 0.5491518
vt 0.6642712 0.5491518
vt 0.6642712 0.5491518
vt 0.6642712 0.5491518
vt 0.6642712 0.5491518
vt 0.6642712 0.5491518
vt 0.6863348 0.6130193
vt 0.6863348 0.5545203
vt 0.6863348 0.5545203
vt 0.6863348 0.6130193
vt 0.6863348 0.5545203
vt 0.6863348 0.6130193
vt 0.6863348 0.5545203
vt 0.6863348 0.6130193
vt 0.6863348 0.5545203
vt 0.6863348 0.6130193
vt 0.6863348 0.5545203
vt 0.6863348 0.6130193
vt 0.6863348 0.5466392
vt 0.6863348 0.5466392
vt 0.6863348 0.5466392
vt 0.6863348 0.5466392
vt 0.6863348 0.5466392
vt 0.6863348 0.5466392
vt 0.6863348 0.6130193
vt 0.6863348 0.5545203
vt 0.6863348 0.6130193
vt 0.6863348 0.5545203
vt 0.6863348 0.6130193
vt 0.6863348 0.5545203
vt 0.6863348 0.6130193
vt 0.6863348 0.5545203
vt 0.6863348 0.5466392
vt 0.6863348 0.5466392
vt 0.6863348 0.5466392
vt 0.6863348 0.5466392
vt 0.6926479 0.5461664
vt 0.6926479 0.5461664
vt 0.6926479 0.6130338
vt 0.6926479 0.6130338
vt 0.6926479 0.6130338
vt 0.6926479 0.5461664
vt 0.6926479 0.6130338
vt 0.6926479 0.5461664
vt 0.6926479 0.5461664
vt 0.6926479 0.5461664
vt 0.6926479 0.6130338
vt 0.6926479 0.6130338
vt 0.6926479 0.6130338
vt 0.6926479 0.5461664
vt 0.2282386 0.32626
vt 0.2934794 0.3363677
vt 0.2690156 0.2861256
vt 0.2286587 0.2666033
vt 0.292706 0.3981389
vt 0.227221 0.4075365
vt 0.2669907 0.4478447
vt 0.2261559 0.466499
vt 0.1857991 0.4469768
vt 0.1613353 0.3967346
vt 0.1621087 0.3349634
vt 0.187824 0.2852577

f 3/3/3 2/2/2 1/1/1
f 4/4/4 3/3/3 1/1/1
f 5/5/5 3/3/3 4/4/4
f 6/6/6 5/5/5 4/4/4
f 9/9/9 8/8/8 7/7/7
f 10/10/10 9/9/9 7/7/7
f 11/11/11 9/9/9 10/10/10
f 12/12/12 11/11/11 10/10/10
f 13/13/13 11/11/11 12/12/12
f 14/14/14 13/13/13 12/12/12
f 17/17/17 16/16/16 15/15/15
f 15/15/15 18/18/18 17/17/17
f 15/15/15 19/19/19 18/18/18
f 19/19/19 20/20/20 18/18/18
f 21/21/21 16/16/16 17/17/17
f 21/21/21 17/17/17 22/22/22
f 21/21/21 22/22/22 23/23/23
f 23/23/23 24/24/24 21/21/21
f 27/27/27 26/26/26 25/25/25
f 28/28/28 27/27/27 25/25/25
f 29/29/29 27/27/27 28/28/28
f 30/30/30 29/29/29 28/28/28
f 31/31/31 29/29/29 30/30/30
f 32/32/32 31/31/31 30/30/30
f 33/33/33 31/31/31 32/32/32
f 34/34/34 33/33/33 32/32/32
f 35/35/35 33/33/33 34/34/34
f 36/36/36 35/35/35 34/34/34
f 27/27/27 37/37/37 26/26/26
f 37/37/37 38/38/38 26/26/26
f 39/39/39 37/37/37 27/27/27
f 29/29/29 39/39/39 27/27/27
f 40/40/40 39/39/39 29/29/29
f 31/31/31 40/40/40 29/29/29
f 41/41/41 40/40/40 31/31/31
f 33/33/33 41/41/41 31/31/31
f 42/42/42 41/41/41 33/33/33
f 35/35/35 42/42/42 33/33/33
f 35/35/35 36/36/36 43/43/43
f 44/44/44 35/35/35 43/43/43
f 42/42/42 35/35/35 44/44/44
f 44/44/44 43/43/43 45/45/45
f 46/46/46 44/44/44 45/45/45
f 46/46/46 45/45/45 47/47/47
f 48/48/48 46/46/46 47/47/47
f 48/48/48 47/47/47 49/49/49
f 50/50/50 48/48/48 49/49/49
f 50/50/50 49/49/49 25/25/25
f 26/26/26 50/50/50 25/25/25
f 51/51/51 50/50/50 26/26/26
f 38/38/38 51/51/51 26/26/26
f 52/52/52 48/48/48 50/50/50
f 51/51/51 52/52/52 50/50/50
f 53/53/53 46/46/46 48/48/48
f 52/52/52 53/53/53 48/48/48
f 54/54/54 44/44/44 46/46/46
f 53/53/53 54/54/54 46/46/46
f 54/54/54 42/42/42 44/44/44
f 57/57/57 56/56/56 55/55/55
f 58/58/58 57/57/57 55/55/55
f 57/57/57 59/59/59 56/56/56
f 59/59/59 60/60/60 56/56/56
f 59/59/59 61/61/61 60/60/60
f 61/61/61 62/62/62 60/60/60
f 65/65/65 64/64/64 63/63/63
f 66/66/66 65/65/65 63/63/63
f 65/65/65 67/67/67 64/64/64
f 67/67/67 68/68/68 64/64/64
f 71/71/71 70/70/70 69/69/69
f 69/69/69 72/72/72 71/71/71
f 69/69/69 70/70/70 73/73/73
f 74/74/74 69/69/69 73/73/73
f 74/74/74 73/73/73 75/75/75
f 76/76/76 74/74/74 75/75/75
f 74/74/74 76/76/76 77/77/77
f 78/78/78 74/74/74 77/77/77
f 69/69/69 74/74/74 78/78/78
f 79/79/79 69/69/69 78/78/78
f 80/80/80 72/72/72 69/69/69
f 79/79/79 80/80/80 69/69/69
# 0 polygons - 240 triangles
