# Export of HypnoseAR project by David Libeau and Romain Paris
# from Aaro4130 OBJ Exporter  - modified by Romain Paris

#
# object Coconut.OBJ
#

v 0.04325836 -0.03298869 7.629394E-08
v 0.05428009 0.002026849 0
v 0.0271402 0.002026801 -0.04700806
v 0.02162933 -0.03298873 -0.03746285
v 0.025018 0.04897222 -0.04333229
v 0.0500357 0.0460618 -7.629394E-08
v 0.02162933 -0.03298873 -0.03746285
v 0.0271402 0.002026801 -0.04700806
v -0.0271402 0.002026801 -0.04700798
v -0.02162933 -0.03298873 -0.03746285
v -0.0250177 0.04322793 -0.04333229
v 0.025018 0.04897222 -0.04333229
v -0.02162933 -0.03298873 -0.03746285
v -0.0271402 0.002026801 -0.04700798
v -0.05428009 0.002026849 0
v -0.04325836 -0.03298869 7.629394E-08
v -0.0500357 0.04144521 -7.629394E-08
v -0.0250177 0.04322793 -0.04333229
v -0.04325836 -0.03298869 7.629394E-08
v -0.05428009 0.002026849 0
v -0.0271402 0.002026906 0.04700798
v -0.02162933 -0.03298865 0.03746292
v -0.03534546 0.03751471 0.02544426
v -0.0500357 0.04144521 -7.629394E-08
v -0.02619324 0.01961376 0.04536804
v -0.02162933 -0.03298865 0.03746292
v -0.0271402 0.002026906 0.04700798
v 0.0271402 0.002026906 0.04700798
v 0.02162933 -0.03298865 0.03746292
v -0.003672485 0.04144524 0.04333214
v -0.02619324 0.01961376 0.04536804
v 0.025018 0.04144524 0.04333214
v 0.02162933 -0.03298865 0.03746292
v 0.0271402 0.002026906 0.04700798
v 0.05428009 0.002026849 0
v 0.04325836 -0.03298869 7.629394E-08
v 0.0500357 0.0460618 -7.629394E-08
v 0.025018 0.04144524 0.04333214
v 0.04325836 -0.03298869 7.629394E-08
v 0.02162933 -0.03298873 -0.03746285
v 0 -0.04897227 7.629394E-08
v 0.02162933 -0.03298873 -0.03746285
v -0.02162933 -0.03298873 -0.03746285
v 0 -0.04897227 7.629394E-08
v -0.02162933 -0.03298873 -0.03746285
v -0.04325836 -0.03298869 7.629394E-08
v 0 -0.04897227 7.629394E-08
v -0.04325836 -0.03298869 7.629394E-08
v -0.02162933 -0.03298865 0.03746292
v 0 -0.04897227 7.629394E-08
v -0.02162933 -0.03298865 0.03746292
v 0.02162933 -0.03298865 0.03746292
v 0 -0.04897227 7.629394E-08
v 0.02162933 -0.03298865 0.03746292
v 0.04325836 -0.03298869 7.629394E-08
v 0 -0.04897227 7.629394E-08
v 0.02234253 0.002921424 -0.03869865
v 0.04468536 0.002921467 0
v 0.03574066 -0.02695998 0
v 0.01787048 -0.02696001 -0.0309523
v 0.02022736 0.04710184 -0.03503487
v 0.04045471 0.04419139 -7.629394E-08
v -0.02234253 0.002921419 -0.03869865
v 0.02234253 0.002921424 -0.03869865
v 0.01787048 -0.02696001 -0.0309523
v -0.01787048 -0.02696001 -0.0309523
v -0.02022736 0.04135752 -0.03503487
v 0.02022736 0.04710184 -0.03503487
v -0.04468536 0.002921457 0
v -0.02234253 0.002921419 -0.03869865
v -0.01787048 -0.02696001 -0.0309523
v -0.03574066 -0.02695997 0
v -0.04045471 0.03957478 -7.629394E-08
v -0.02022736 0.04135752 -0.03503487
v -0.02234253 0.002921505 0.03869865
v -0.04468536 0.002921457 0
v -0.03574066 -0.02695997 0
v -0.01787048 -0.02695993 0.03095238
v -0.02703613 0.03578119 0.02064682
v -0.02138733 0.02382884 0.03707954
v -0.04045471 0.03957478 -7.629394E-08
v 0.02234253 0.00292151 0.03869865
v -0.02234253 0.002921505 0.03869865
v -0.01787048 -0.02695993 0.03095238
v 0.01787048 -0.02695993 0.03095238
v -0.003672485 0.03971174 0.03373734
v 0.02022736 0.03957481 0.03503471
v -0.02138733 0.02382884 0.03707954
v 0.04468536 0.002921467 0
v 0.02234253 0.00292151 0.03869865
v 0.01787048 -0.02695993 0.03095238
v 0.03574066 -0.02695998 0
v 0.04045471 0.04419139 -7.629394E-08
v 0.02022736 0.03957481 0.03503471
v 0.01787048 -0.02696001 -0.0309523
v 0.03574066 -0.02695998 0
v 0 -0.03933581 7.629394E-08
v 0.01787048 -0.02695993 0.03095238
v -0.01787048 -0.02696001 -0.0309523
v 0 -0.03933581 7.629394E-08
v -0.03574066 -0.02695997 0
v -0.01787048 -0.02695993 0.03095238
v 0.0500357 0.0460618 -7.629394E-08
v 0.04045471 0.04419139 -7.629394E-08
v 0.02022736 0.04710184 -0.03503487
v 0.025018 0.04897222 -0.04333229
v -0.02022736 0.04135752 -0.03503487
v -0.0250177 0.04322793 -0.04333229
v -0.04045471 0.03957478 -7.629394E-08
v -0.0500357 0.04144521 -7.629394E-08
v 0.025018 0.04144524 0.04333214
v 0.02022736 0.03957481 0.03503471
v -0.02703613 0.03578119 0.02064682
v -0.03534546 0.03751471 0.02544426
v -0.02138733 0.02382884 0.03707954
v -0.02619324 0.01961376 0.04536804
v -0.003672485 0.04144524 0.04333214
v -0.003672485 0.03971174 0.03373734

vn 0.4069665 -0.409526 0
vn 0.5741735 -0.06047622 0.000845979
vn 0.2867649 -0.06129292 -0.4973352
vn 0.2034834 -0.4095271 -0.3524419
vn 0.136251 0.4962188 -0.2617936
vn 0.306623 0.4880454 0.03357594
vn 0.2034834 -0.4095271 -0.3524419
vn 0.2867649 -0.06129292 -0.4973352
vn -0.2878666 -0.05950161 -0.4969161
vn -0.2034837 -0.409527 -0.352442
vn -0.1865599 0.4818366 -0.2576088
vn 0.136251 0.4962188 -0.2617936
vn -0.2034837 -0.409527 -0.352442
vn -0.2878666 -0.05950161 -0.4969161
vn -0.572382 -0.03253263 0.06821793
vn -0.4069666 -0.4095259 0
vn -0.3061857 0.4874932 0.0439778
vn -0.1865599 0.4818366 -0.2576088
vn -0.4069666 -0.4095259 0
vn -0.572382 -0.03253263 0.06821793
vn -0.2875995 -0.05619813 0.4974552
vn -0.2034835 -0.409526 0.3524431
vn -0.2431888 0.4112238 0.3241721
vn -0.3061857 0.4874932 0.0439778
vn -0.2446248 0.3481682 0.3902191
vn -0.2034835 -0.409526 0.3524431
vn -0.2875995 -0.05619813 0.4974552
vn 0.2279117 -0.03393228 0.5293753
vn 0.2034835 -0.409526 0.3524431
vn -0.149042 0.4135986 0.3742405
vn -0.2446248 0.3481682 0.3902191
vn 0.1418138 0.4803665 0.2871762
vn 0.2034835 -0.409526 0.3524431
vn 0.2279117 -0.03393228 0.5293753
vn 0.5741735 -0.06047622 0.000845979
vn 0.4069665 -0.409526 0
vn 0.306623 0.4880454 0.03357594
vn 0.1418138 0.4803665 0.2871762
vn 0.4069665 -0.409526 0
vn 0.2034834 -0.4095271 -0.3524419
vn 0 -0.5773503 0
vn 0.2034834 -0.4095271 -0.3524419
vn -0.2034837 -0.409527 -0.352442
vn 0 -0.5773503 0
vn -0.2034837 -0.409527 -0.352442
vn -0.4069666 -0.4095259 0
vn 0 -0.5773503 0
vn -0.4069666 -0.4095259 0
vn -0.2034835 -0.409526 0.3524431
vn 0 -0.5773503 0
vn -0.2034835 -0.409526 0.3524431
vn 0.2034835 -0.409526 0.3524431
vn 0 -0.5773503 0
vn 0.2034835 -0.409526 0.3524431
vn 0.4069665 -0.409526 0
vn 0 -0.5773503 0
vn -0.2869723 0.05549357 0.4978963
vn -0.5747653 0.0545612 -0.001107689
vn -0.4048081 0.4116597 0
vn -0.2024039 0.4116606 0.3505731
vn -0.2336292 0.362314 0.3840304
vn -0.4433071 0.3688236 0.02795225
vn 0.2883889 0.05344906 0.497301
vn -0.2869723 0.05549357 0.4978963
vn -0.2024039 0.4116606 0.3505731
vn 0.2024039 0.4116606 0.350573
vn 0.1951106 0.3738979 0.3942911
vn -0.2336292 0.362314 0.3840304
vn 0.5724 0.02360056 -0.07165606
vn 0.2883889 0.05344906 0.497301
vn 0.2024039 0.4116606 0.350573
vn 0.4048081 0.4116597 0
vn 0.4392098 0.3738419 0.0258902
vn 0.1951106 0.3738979 0.3942911
vn 0.2884789 0.04180028 -0.4983634
vn 0.5724 0.02360056 -0.07165606
vn 0.4048081 0.4116597 0
vn 0.2024041 0.4116598 -0.350574
vn 0.4700304 0.3196973 -0.1009873
vn 0.1739517 0.422718 -0.3526807
vn 0.4392098 0.3738419 0.0258902
vn -0.2246749 0.02552104 -0.531228
vn 0.2884789 0.04180028 -0.4983634
vn 0.2024041 0.4116598 -0.350574
vn -0.2024041 0.4116597 -0.350574
vn -0.1343032 0.3069861 -0.4701654
vn -0.2243572 0.3806328 -0.3716394
vn 0.1739517 0.422718 -0.3526807
vn -0.5747653 0.0545612 -0.001107689
vn -0.2246749 0.02552104 -0.531228
vn -0.2024041 0.4116597 -0.350574
vn -0.4048081 0.4116597 0
vn -0.4433071 0.3688236 0.02795225
vn -0.2243572 0.3806328 -0.3716394
vn -0.2024039 0.4116606 0.3505731
vn -0.4048081 0.4116597 0
vn 0 0.5773503 0
vn -0.2024041 0.4116597 -0.350574
vn 0.2024039 0.4116606 0.350573
vn 0 0.5773503 0
vn 0.4048081 0.4116597 0
vn 0.2024041 0.4116598 -0.350574
vn 0.306623 0.4880454 0.03357594
vn -0.4433071 0.3688236 0.02795225
vn -0.2336292 0.362314 0.3840304
vn 0.136251 0.4962188 -0.2617936
vn 0.1951106 0.3738979 0.3942911
vn -0.1865599 0.4818366 -0.2576088
vn 0.4392098 0.3738419 0.0258902
vn -0.3061857 0.4874932 0.0439778
vn 0.1418138 0.4803665 0.2871762
vn -0.2243572 0.3806328 -0.3716394
vn 0.4700304 0.3196973 -0.1009873
vn -0.2431888 0.4112238 0.3241721
vn 0.1739517 0.422718 -0.3526807
vn -0.2446248 0.3481682 0.3902191
vn -0.149042 0.4135986 0.3742405
vn -0.1343032 0.3069861 -0.4701654

vt 0.5111976 0.7219534
vt 0.5052457 0.6888733
vt 0.5638705 0.6888733
vt 0.5579184 0.7219534
vt 0.5613204 0.6481084
vt 0.5078878 0.648106
vt 0.5579187 0.7219534
vt 0.5638705 0.6888733
vt 0.5052457 0.6888733
vt 0.5111978 0.7219534
vt 0.5077958 0.6481084
vt 0.5612285 0.648106
vt 0.5111976 0.7219534
vt 0.5052457 0.6888733
vt 0.5638705 0.6888733
vt 0.5579184 0.7219534
vt 0.5613204 0.6481084
vt 0.5078878 0.648106
vt 0.5579187 0.7219534
vt 0.5638705 0.6888733
vt 0.5052457 0.6888733
vt 0.5111978 0.7219534
vt 0.5298532 0.6481074
vt 0.5612285 0.648106
vt 0.5063834 0.6706856
vt 0.5111976 0.7219534
vt 0.5052457 0.6888733
vt 0.5638705 0.6888733
vt 0.5579184 0.7219534
vt 0.5306823 0.6481071
vt 0.5064245 0.6706846
vt 0.5613204 0.6481084
vt 0.5579187 0.7219534
vt 0.5638705 0.6888733
vt 0.5052457 0.6888733
vt 0.5111978 0.7219534
vt 0.5077958 0.6481084
vt 0.5612285 0.648106
vt 0.5111976 0.7219534
vt 0.5579184 0.7219534
vt 0.5345581 0.7353988
vt 0.5579187 0.7219534
vt 0.5111978 0.7219534
vt 0.5345582 0.7353988
vt 0.5111976 0.7219534
vt 0.5579184 0.7219534
vt 0.5345581 0.7353988
vt 0.5579187 0.7219534
vt 0.5111978 0.7219534
vt 0.5345582 0.7353988
vt 0.5111976 0.7219534
vt 0.5579184 0.7219534
vt 0.5345581 0.7353988
vt 0.5579187 0.7219534
vt 0.5111978 0.7219534
vt 0.5345582 0.7353988
vt 0.4267385 0.9699087
vt 0.4267385 0.9699087
vt 0.4296045 0.9699087
vt 0.4296045 0.9699087
vt 0.4632059 0.9699087
vt 0.4632059 0.9699087
vt 0.4267385 0.9699087
vt 0.4267385 0.9699087
vt 0.4296045 0.9699087
vt 0.4296045 0.9699087
vt 0.4632059 0.9699087
vt 0.4632059 0.9699087
vt 0.4267385 0.9699087
vt 0.4267385 0.9699087
vt 0.4296045 0.9699087
vt 0.4296045 0.9699087
vt 0.4632059 0.9699087
vt 0.4632059 0.9699087
vt 0.4267385 0.9699087
vt 0.4267385 0.9699087
vt 0.4296045 0.9699087
vt 0.4296045 0.9699087
vt 0.4632059 0.9699087
vt 0.4632059 0.9699087
vt 0.4632059 0.9699087
vt 0.4267385 0.9699087
vt 0.4267385 0.9699087
vt 0.4296045 0.9699087
vt 0.4296045 0.9699087
vt 0.4632059 0.9699087
vt 0.4632059 0.9699087
vt 0.4632059 0.9699087
vt 0.4267385 0.9699087
vt 0.4267385 0.9699087
vt 0.4296045 0.9699087
vt 0.4296045 0.9699087
vt 0.4632059 0.9699087
vt 0.4632059 0.9699087
vt 0.4296045 0.9699087
vt 0.4296045 0.9699087
vt 0.413189 0.9699087
vt 0.4296045 0.9699087
vt 0.4296045 0.9699087
vt 0.4159501 0.9699087
vt 0.4296045 0.9699087
vt 0.4296045 0.9699087
vt 0.3043304 0.9923945
vt 0.3043304 0.9923945
vt 0.3043304 0.9923945
vt 0.3043304 0.9923945
vt 0.3043304 0.9923945
vt 0.3043304 0.9923945
vt 0.3043304 0.9923945
vt 0.3043304 0.9923945
vt 0.3043304 0.9923945
vt 0.3043304 0.9923945
vt 0.3043304 0.9923945
vt 0.3043304 0.9923945
vt 0.3043304 0.9923945
vt 0.3043304 0.9923945
vt 0.3043304 0.9923945
vt 0.3043304 0.9923945

f 3/3/3 2/2/2 1/1/1
f 4/4/4 3/3/3 1/1/1
f 2/2/2 3/3/3 5/5/5
f 6/6/6 2/2/2 5/5/5
f 9/9/9 8/8/8 7/7/7
f 10/10/10 9/9/9 7/7/7
f 8/8/8 9/9/9 11/11/11
f 12/12/12 8/8/8 11/11/11
f 15/15/15 14/14/14 13/13/13
f 16/16/16 15/15/15 13/13/13
f 14/14/14 15/15/15 17/17/17
f 18/18/18 14/14/14 17/17/17
f 21/21/21 20/20/20 19/19/19
f 22/22/22 21/21/21 19/19/19
f 23/23/23 20/20/20 21/21/21
f 23/23/23 24/24/24 20/20/20
f 25/25/25 23/23/23 21/21/21
f 28/28/28 27/27/27 26/26/26
f 29/29/29 28/28/28 26/26/26
f 28/28/28 30/30/30 27/27/27
f 30/30/30 31/31/31 27/27/27
f 32/32/32 30/30/30 28/28/28
f 35/35/35 34/34/34 33/33/33
f 36/36/36 35/35/35 33/33/33
f 34/34/34 35/35/35 37/37/37
f 38/38/38 34/34/34 37/37/37
f 41/41/41 40/40/40 39/39/39
f 44/44/44 43/43/43 42/42/42
f 47/47/47 46/46/46 45/45/45
f 50/50/50 49/49/49 48/48/48
f 53/53/53 52/52/52 51/51/51
f 56/56/56 55/55/55 54/54/54
f 59/59/59 58/58/58 57/57/57
f 60/60/60 59/59/59 57/57/57
f 61/61/61 57/57/57 58/58/58
f 62/62/62 61/61/61 58/58/58
f 65/65/65 64/64/64 63/63/63
f 66/66/66 65/65/65 63/63/63
f 67/67/67 63/63/63 64/64/64
f 68/68/68 67/67/67 64/64/64
f 71/71/71 70/70/70 69/69/69
f 72/72/72 71/71/71 69/69/69
f 73/73/73 69/69/69 70/70/70
f 74/74/74 73/73/73 70/70/70
f 77/77/77 76/76/76 75/75/75
f 78/78/78 77/77/77 75/75/75
f 76/76/76 79/79/79 75/75/75
f 79/79/79 80/80/80 75/75/75
f 81/81/81 79/79/79 76/76/76
f 84/84/84 83/83/83 82/82/82
f 85/85/85 84/84/84 82/82/82
f 86/86/86 82/82/82 83/83/83
f 82/82/82 86/86/86 87/87/87
f 88/88/88 86/86/86 83/83/83
f 91/91/91 90/90/90 89/89/89
f 92/92/92 91/91/91 89/89/89
f 93/93/93 89/89/89 90/90/90
f 94/94/94 93/93/93 90/90/90
f 97/97/97 96/96/96 95/95/95
f 97/97/97 98/98/98 96/96/96
f 100/100/100 95/95/95 99/99/99
f 97/97/97 99/99/99 101/101/101
f 97/97/97 101/101/101 102/102/102
f 100/100/100 102/102/102 98/98/98
f 105/105/105 104/104/104 103/103/103
f 106/106/106 105/105/105 103/103/103
f 107/107/107 105/105/105 106/106/106
f 108/108/108 107/107/107 106/106/106
f 109/109/109 107/107/107 108/108/108
f 110/110/110 109/109/109 108/108/108
f 103/103/103 104/104/104 111/111/111
f 104/104/104 112/112/112 111/111/111
f 113/113/113 109/109/109 110/110/110
f 114/114/114 113/113/113 110/110/110
f 115/115/115 113/113/113 114/114/114
f 116/116/116 115/115/115 114/114/114
f 111/111/111 112/112/112 117/117/117
f 112/112/112 118/118/118 117/117/117
f 118/118/118 115/115/115 116/116/116
f 117/117/117 118/118/118 116/116/116
# 0 polygons - 240 triangles
