# Export of HypnoseAR project by David Libeau and Romain Paris
# from Aaro4130 OBJ Exporter  - modified by Romain Paris

#
# object Maki.OBJ
#

v 0.03696197 -0.0238954 4.768371E-09
v 0.03696197 0.02694478 -4.768371E-09
v 0.02990295 0.02694478 -0.01917364
v 0.02990295 -0.02389541 -0.01917364
v 0.01142181 0.02694478 -0.03102361
v 0.01142181 -0.02389541 -0.0310236
v 0.01142181 -0.02389541 -0.0310236
v 0.01142181 0.02694478 -0.03102361
v -0.01142181 0.02694478 -0.03102361
v -0.01142181 -0.02389541 -0.0310236
v -0.02990295 0.02694478 -0.01917364
v -0.02990295 -0.02389541 -0.01917364
v -0.02990295 -0.02389541 -0.01917364
v -0.02990295 0.02694478 -0.01917364
v -0.03696197 0.02694478 0
v -0.03696197 -0.0238954 4.768371E-09
v -0.03696197 -0.0238954 4.768371E-09
v -0.03696197 0.02694478 0
v -0.02990295 0.02694478 0.01917364
v -0.02990295 -0.0238954 0.01917365
v -0.01142181 0.02694478 0.0310236
v -0.01142181 -0.0238954 0.0310236
v -0.01142181 -0.0238954 0.0310236
v -0.01142181 0.02694478 0.0310236
v 0.01142181 0.02694478 0.0310236
v 0.01142181 -0.0238954 0.0310236
v 0.02990295 0.02694478 0.01917363
v 0.02990295 -0.0238954 0.01917363
v 0.02990295 -0.0238954 0.01917363
v 0.02990295 0.02694478 0.01917363
v 0.03696197 0.02694478 -4.768371E-09
v 0.03696197 -0.0238954 4.768371E-09
v 0.03696197 0.02694478 -4.768371E-09
v 0 0.03449373 -4.768371E-09
v 0.02990295 0.02694478 -0.01917364
v 0.01142181 0.02694478 -0.03102361
v -0.01142181 0.02694478 -0.03102361
v -0.02990295 0.02694478 -0.01917364
v -0.03696197 0.02694478 0
v -0.02990295 0.02694478 0.01917364
v -0.01142181 0.02694478 0.0310236
v 0.01142181 0.02694478 0.0310236
v 0.02990295 0.02694478 0.01917363
v 0.02990295 -0.02389541 -0.01917364
v 0 -0.03449374 4.768371E-09
v 0.03696197 -0.0238954 4.768371E-09
v 0.02990295 -0.0238954 0.01917363
v 0.01142181 -0.0238954 0.0310236
v -0.01142181 -0.0238954 0.0310236
v -0.02990295 -0.0238954 0.01917365
v -0.03696197 -0.0238954 4.768371E-09
v -0.02990295 -0.02389541 -0.01917364
v -0.01142181 -0.02389541 -0.0310236
v 0.01142181 -0.02389541 -0.0310236

vn 0.4533334 -0.3575222 0
vn 0.4380316 0.376114 0
vn 0.3435371 0.3721923 -0.2771074
vn 0.355533 -0.3528823 -0.2870605
vn 0.1249467 0.3668001 -0.4279945
vn 0.1293424 -0.3463832 -0.4434214
vn 0.1293424 -0.3463832 -0.4434214
vn 0.1249467 0.3668001 -0.4279945
vn -0.1249467 0.3668001 -0.4279945
vn -0.1293424 -0.3463832 -0.4434214
vn -0.3435371 0.3721923 -0.2771074
vn -0.355533 -0.3528823 -0.2870605
vn -0.355533 -0.3528823 -0.2870605
vn -0.3435371 0.3721923 -0.2771074
vn -0.4380316 0.3761139 0
vn -0.4533335 -0.3575222 0
vn -0.4533335 -0.3575222 0
vn -0.4380316 0.3761139 0
vn -0.3435371 0.3721924 0.2771074
vn -0.3555329 -0.3528822 0.2870607
vn -0.1249467 0.3668001 0.4279945
vn -0.1293424 -0.3463831 0.4434215
vn -0.1293424 -0.3463831 0.4434215
vn -0.1249467 0.3668001 0.4279945
vn 0.1249468 0.3668001 0.4279945
vn 0.1293425 -0.3463832 0.4434214
vn 0.3435371 0.3721924 0.2771073
vn 0.3555329 -0.3528822 0.2870606
vn 0.3555329 -0.3528822 0.2870606
vn 0.3435371 0.3721924 0.2771073
vn 0.4380316 0.376114 0
vn 0.4533334 -0.3575222 0
vn 0.4380316 0.376114 0
vn 0 0.5773503 0
vn 0.3435371 0.3721923 -0.2771074
vn 0.1249467 0.3668001 -0.4279945
vn -0.1249467 0.3668001 -0.4279945
vn -0.3435371 0.3721923 -0.2771074
vn -0.4380316 0.3761139 0
vn -0.3435371 0.3721924 0.2771074
vn -0.1249467 0.3668001 0.4279945
vn 0.1249468 0.3668001 0.4279945
vn 0.3435371 0.3721924 0.2771073
vn 0.355533 -0.3528823 -0.2870605
vn 0 -0.5773503 0
vn 0.4533334 -0.3575222 0
vn 0.3555329 -0.3528822 0.2870606
vn 0.1293425 -0.3463832 0.4434214
vn -0.1293424 -0.3463831 0.4434215
vn -0.3555329 -0.3528822 0.2870607
vn -0.4533335 -0.3575222 0
vn -0.355533 -0.3528823 -0.2870605
vn -0.1293424 -0.3463832 -0.4434214
vn 0.1293424 -0.3463832 -0.4434214

vt 0.14638 0.4882139
vt 0.14638 0.5518093
vt 0.1749551 0.5518093
vt 0.1749551 0.4882138
vt 0.2035301 0.5518093
vt 0.2035301 0.4882138
vt 0.2035301 0.4882138
vt 0.2035301 0.5518093
vt 0.2321052 0.5518093
vt 0.2321052 0.4882139
vt 0.2606802 0.5518093
vt 0.2606802 0.4882139
vt 0.2606802 0.4882139
vt 0.2606802 0.5518093
vt 0.2892552 0.5518093
vt 0.2892552 0.4882139
vt 0.2892553 0.4882138
vt 0.2892552 0.5518093
vt 0.2606801 0.5518093
vt 0.2606802 0.4882138
vt 0.2321051 0.5518092
vt 0.2321051 0.4882137
vt 0.2321051 0.4882137
vt 0.2321051 0.5518092
vt 0.2035301 0.5518092
vt 0.2035301 0.4882137
vt 0.174955 0.5518093
vt 0.174955 0.4882138
vt 0.174955 0.4882138
vt 0.174955 0.5518093
vt 0.14638 0.5518093
vt 0.14638 0.4882138
vt 0.08374318 0.2342217
vt 0.04321716 0.2321805
vt 0.07498569 0.2557045
vt 0.05409368 0.2682019
vt 0.02904723 0.2669403
vt 0.009413207 0.2524016
vt 0.002691151 0.2301392
vt 0.01144865 0.2086565
vt 0.03234064 0.1961591
vt 0.05738711 0.1974206
vt 0.07702114 0.2119593
vt 0.006529185 0.243742
vt 0.04321716 0.2321805
vt 0.00483957 0.2208686
vt 0.01780888 0.2023159
vt 0.04048329 0.1951704
vt 0.06420197 0.2021616
vt 0.07990514 0.2206189
vt 0.08159475 0.2434924
vt 0.06862544 0.2620451
vt 0.04595103 0.2691905
vt 0.02223236 0.2621993

f 3/3/3 2/2/2 1/1/1
f 4/4/4 3/3/3 1/1/1
f 5/5/5 3/3/3 4/4/4
f 6/6/6 5/5/5 4/4/4
f 9/9/9 8/8/8 7/7/7
f 10/10/10 9/9/9 7/7/7
f 11/11/11 9/9/9 10/10/10
f 12/12/12 11/11/11 10/10/10
f 15/15/15 14/14/14 13/13/13
f 16/16/16 15/15/15 13/13/13
f 19/19/19 18/18/18 17/17/17
f 20/20/20 19/19/19 17/17/17
f 21/21/21 19/19/19 20/20/20
f 22/22/22 21/21/21 20/20/20
f 25/25/25 24/24/24 23/23/23
f 26/26/26 25/25/25 23/23/23
f 27/27/27 25/25/25 26/26/26
f 28/28/28 27/27/27 26/26/26
f 31/31/31 30/30/30 29/29/29
f 32/32/32 31/31/31 29/29/29
f 35/35/35 34/34/34 33/33/33
f 36/36/36 34/34/34 35/35/35
f 37/37/37 34/34/34 36/36/36
f 38/38/38 34/34/34 37/37/37
f 39/39/39 34/34/34 38/38/38
f 40/40/40 34/34/34 39/39/39
f 41/41/41 34/34/34 40/40/40
f 42/42/42 34/34/34 41/41/41
f 43/43/43 34/34/34 42/42/42
f 33/33/33 34/34/34 43/43/43
f 46/46/46 45/45/45 44/44/44
f 47/47/47 45/45/45 46/46/46
f 48/48/48 45/45/45 47/47/47
f 49/49/49 45/45/45 48/48/48
f 50/50/50 45/45/45 49/49/49
f 51/51/51 45/45/45 50/50/50
f 52/52/52 45/45/45 51/51/51
f 53/53/53 45/45/45 52/52/52
f 54/54/54 45/45/45 53/53/53
f 44/44/44 45/45/45 54/54/54
# 0 polygons - 120 triangles
