# Export of HypnoseAR project by David Libeau and Romain Paris
# from Aaro4130 OBJ Exporter  - modified by Romain Paris

#
# object Mochi.OBJ
#

v -0.003121338 0.02956674 0.01379559
v -0.01210022 0.02454572 -0.01393697
v 0.0003359985 0.02454572 -0.01442581
v -0.02262604 0.02454572 -0.007295484
v -0.02657226 0.02454573 0.008489647
v -0.02680786 0.02454573 0.01858186
v 0.0113504 0.02454572 -0.00863101
v 0.0198407 0.02454572 0.006665282
v 0.02009796 0.02454573 0.01663731
v -0.01731995 0.01082807 -0.03074632
v 0.004220276 0.01082807 -0.03159302
v -0.03555115 0.01082807 -0.01924292
v -0.04373932 0.01082807 0.004605426
v -0.04273132 0.01082808 0.02499566
v 0.02329803 0.01082807 -0.02155612
v -0.04028198 -0.00791059 -0.02361598
v -0.01923065 -0.007910592 -0.03689896
v -0.05002289 -0.007910588 0.003183703
v -0.04904541 -0.007910584 0.02805625
v 0.02009796 0.02454573 0.01663731
v 0.0198407 0.02454572 0.006665282
v 0.03665008 0.01082807 0.001445537
v 0.03779999 0.01082808 0.02164455
v 0.02329803 0.01082807 -0.02155612
v 0.0113504 0.02454572 -0.00863101
v 0.04280273 -0.007910588 -0.0004650211
v 0.04378021 -0.007910585 0.02440752
v 0.0276709 -0.00791059 -0.02628703
v 0.005641785 -0.007910592 -0.03787663
v 0.004220276 0.01082807 -0.03159302
v -0.01923065 -0.007910592 -0.03689896
v -0.01731995 0.01082807 -0.03074632
v 0.03665008 -0.02664925 0.001445541
v 0.03779999 -0.02664925 0.02164456
v 0.02329803 -0.02664925 -0.02155611
v 0.004220276 -0.02664925 -0.031593
v 0.03223236 -0.02956671 0.002817297
v 0.03328857 -0.02956671 0.02062377
v 0.005641785 -0.007910592 -0.03787663
v -0.01923065 -0.007910592 -0.03689896
v -0.01731995 -0.02664925 -0.03074631
v 0.004220276 -0.02664925 -0.031593
v -0.01594818 -0.02956671 -0.02632878
v 0.003199463 -0.02956671 -0.02708143
v 0.02329803 -0.02664925 -0.02155611
v 0.02015808 -0.02956671 -0.01815937
v 0.03665008 -0.02664925 0.001445541
v 0.03223236 -0.02956671 0.002817297
v -0.01045929 -0.02956671 -0.008651876
v 0.0009634399 -0.0295667 -0.004257622
v 0.009442749 -0.0295667 0.0002034092
v 0.01455566 -0.02956671 0.00830645
v 0.03328857 -0.02956671 0.02062377
v 0.01548096 -0.02956671 0.0209237
v -0.03215454 -0.02956671 -0.01610311
v -0.01671356 -0.02956671 0.001231537
v -0.02117462 -0.02956671 0.009710908
v -0.0392279 -0.02956671 0.005626211
v -0.02074219 -0.0295667 0.02244834
v -0.0383136 -0.0295667 0.02362389
v -0.002636108 -0.0295667 0.02130807
v -0.01923065 -0.007910592 -0.03689896
v -0.04028198 -0.00791059 -0.02361598
v -0.03555115 -0.02664925 -0.01924291
v -0.01731995 -0.02664925 -0.03074631
v -0.04373932 -0.02664925 0.004605432
v -0.05002289 -0.007910588 0.003183703
v -0.04273132 -0.02664924 0.02499566
v -0.04904541 -0.007910584 0.02805625
v -0.03215454 -0.02956671 -0.01610311
v -0.01594818 -0.02956671 -0.02632878
v -0.0392279 -0.02956671 0.005626211
v -0.0383136 -0.0295667 0.02362389
v -0.0005157471 -0.006936491 0.03370547
v -0.01508179 -0.006936491 0.0331007
v -0.01524963 0.003945146 0.03406676
v -0.0002410889 0.005433792 0.03500392
v -0.02847809 -0.006937165 0.03206407
v 0.0130365 0.003942159 0.03292103
v 0.01362091 -0.006936491 0.03190102
v 0.02390259 0.004093293 0.0285127
v 0.02623169 -0.006937802 0.02976211
v -0.02491089 -0.01520692 0.03058848
v -0.0146994 -0.01769898 0.02819951
v -0.001341858 -0.01805543 0.0282962
v 0.01097961 -0.017699 0.02712436
v 0.02271515 -0.0152208 0.02850316
v -0.03832672 -0.007590269 0.02490511
v -0.033927 0.006924456 0.02276393
v -0.02511841 0.004146164 0.03042908
v -0.03365509 -0.01842034 0.02297268
v -0.01936249 -0.02168394 0.02283106
v -0.002550354 -0.02215075 0.02181168
v 0.01426636 -0.02168397 0.02142305
v 0.02871582 -0.01843851 0.02024175
v 0.03332123 -0.007591102 0.02189046
v 0.02898498 0.006855219 0.02002472
v -0.02146789 0.01756952 0.01804996
v -0.01560486 0.01227465 0.02682953
v -0.003045044 0.02146859 0.01447187
v -0.0009655762 0.01525194 0.02492807
v 0.01503021 0.0175617 0.01662015
v 0.01226501 0.01226868 0.02573774
v -0.003121338 0.02956674 0.01379559
v -0.003045044 0.02146859 0.01447187
v -0.02146789 0.01756952 0.01804996
v -0.02680786 0.02454573 0.01858186
v -0.033927 0.006924456 0.02276393
v -0.04273132 0.01082808 0.02499566
v -0.03832672 -0.007590269 0.02490511
v -0.04904541 -0.007910584 0.02805625
v -0.03365509 -0.01842034 0.02297268
v -0.04273132 -0.02664924 0.02499566
v -0.0383136 -0.0295667 0.02362389
v -0.01936249 -0.02168394 0.02283106
v -0.02074219 -0.0295667 0.02244834
v -0.002550354 -0.02215075 0.02181168
v -0.002636108 -0.0295667 0.02130807
v 0.01426636 -0.02168397 0.02142305
v 0.01548096 -0.02956671 0.0209237
v 0.02871582 -0.01843851 0.02024175
v 0.03328857 -0.02956671 0.02062377
v 0.03779999 -0.02664925 0.02164456
v 0.03332123 -0.007591102 0.02189046
v 0.04378021 -0.007910585 0.02440752
v 0.02898498 0.006855219 0.02002472
v 0.03779999 0.01082808 0.02164455
v 0.01503021 0.0175617 0.01662015
v 0.02009796 0.02454573 0.01663731

vn 0.004042205 0.5673306 0.1070187
vn -0.06895474 0.5283985 -0.2222019
vn 0.05200643 0.527786 -0.2281897
vn -0.18571 0.5290515 -0.1376576
vn -0.2458933 0.521302 -0.03337645
vn -0.08143366 0.4032025 0.4051291
vn 0.165705 0.5264379 -0.1695235
vn 0.2328623 0.5240881 -0.06663436
vn 0.1124112 0.3999111 0.4009591
vn -0.1390921 0.3366769 -0.4479234
vn 0.1035045 0.3366766 -0.4574593
vn -0.3667875 0.3408964 -0.2873846
vn -0.4686661 0.3303276 -0.06759521
vn -0.2328886 0.2856057 0.4444385
vn 0.3244218 0.3377942 -0.3376077
vn -0.4511411 0 -0.3602846
vn -0.1712179 0 -0.551378
vn -0.5709994 0 -0.0853991
vn -0.3213488 0.0004591409 0.4796541
vn 0.1124112 0.3999111 0.4009591
vn 0.2328623 0.5240881 -0.06663436
vn 0.4511127 0.3350484 -0.1325639
vn 0.2646782 0.2842427 0.4271825
vn 0.3244218 0.3377942 -0.3376077
vn 0.165705 0.5264379 -0.1695235
vn 0.5536863 0 -0.1635996
vn 0.35647 0.0004355462 0.454161
vn 0.399211 0 -0.4170898
vn 0.1274102 0 -0.5631163
vn 0.1035045 0.3366766 -0.4574593
vn -0.1712179 0 -0.551378
vn -0.1390921 0.3366769 -0.4479234
vn 0.4345095 -0.3576046 -0.1290495
vn 0.2493403 -0.2894399 0.4328825
vn 0.3117484 -0.3610725 -0.3252275
vn 0.09960385 -0.3600254 -0.4402205
vn 0.1538591 -0.5545585 -0.04610423
vn 0.08420539 -0.3961614 0.4114595
vn 0.1274102 0 -0.5631163
vn -0.1712179 0 -0.551378
vn -0.1338507 -0.360025 -0.4310444
vn 0.09960385 -0.3600254 -0.4402205
vn -0.04729876 -0.5548831 -0.1523185
vn 0.0351968 -0.5548834 -0.1555599
vn 0.3117484 -0.3610725 -0.3252275
vn 0.1099968 -0.5550978 -0.1144575
vn 0.4345095 -0.3576046 -0.1290495
vn 0.1538591 -0.5545585 -0.04610423
vn 0 -0.5773503 0
vn 0 -0.5773503 0
vn 0 -0.5773503 0
vn 0 -0.5773503 0
vn 0.08420539 -0.3961614 0.4114595
vn 0.01370198 -0.4140796 0.4020991
vn -0.1233537 -0.5557011 -0.09650598
vn 0 -0.5773503 0
vn 0 -0.5773503 0
vn -0.1613251 -0.5539042 -0.02230621
vn 0.02054032 -0.4146993 0.4011682
vn -0.05054088 -0.3961266 0.4169685
vn 0.006528173 -0.5559683 0.1555311
vn -0.1712179 0 -0.551378
vn -0.4511411 0 -0.3602846
vn -0.3511443 -0.3640938 -0.2783282
vn -0.1338507 -0.360025 -0.4310444
vn -0.4498529 -0.3559306 -0.06541465
vn -0.5709994 0 -0.0853991
vn -0.2159724 -0.2879901 0.4513878
vn -0.3213488 0.0004591409 0.4796541
vn -0.1233537 -0.5557011 -0.09650598
vn -0.04729876 -0.5548831 -0.1523185
vn -0.1613251 -0.5539042 -0.02230621
vn -0.05054088 -0.3961266 0.4169685
vn 0.02440035 -0.1546988 0.5557034
vn -0.01349483 -0.1436736 0.5590252
vn -0.09883315 0.1696861 0.5429291
vn 0.02524499 0.1884578 0.5451418
vn -0.1957818 -0.01707165 0.5428733
vn 0.130003 0.1994464 0.5259787
vn 0.0766532 -0.1299143 0.5572969
vn 0.2689496 0.2650496 0.4367473
vn 0.2918782 -0.04412365 0.496179
vn -0.09631892 -0.2757085 0.4980369
vn -0.00755242 -0.3697139 0.4433823
vn 0.01892613 -0.3761468 0.4375942
vn 0.04699707 -0.3736605 0.4376099
vn 0.1543664 -0.284737 0.4779426
vn -0.09168579 -0.01259745 0.5698845
vn -0.06001164 0.187793 0.542647
vn -0.2249522 0.2737924 0.4558153
vn -0.010267 -0.1662136 0.5528119
vn -0.005217874 -0.273917 0.5082081
vn 0.02117453 -0.2861533 0.5010003
vn 0.04833658 -0.2777386 0.5038434
vn 0.06305324 -0.1731791 0.547144
vn 0.1702361 -0.0189299 0.5513571
vn 0.130781 0.2001332 0.5255248
vn 0.00426867 0.278271 0.5058461
vn -0.1119706 0.4148134 0.3856498
vn 0.02128186 0.3007135 0.4923939
vn 0.01826213 0.4487777 0.3627649
vn 0.04424535 0.2914669 0.4964098
vn 0.1449542 0.427841 0.3595465
vn 0.004042205 0.5673306 0.1070187
vn 0.02128186 0.3007135 0.4923939
vn 0.00426867 0.278271 0.5058461
vn -0.08143366 0.4032025 0.4051291
vn -0.06001164 0.187793 0.542647
vn -0.2328886 0.2856057 0.4444385
vn -0.09168579 -0.01259745 0.5698845
vn -0.3213488 0.0004591409 0.4796541
vn -0.010267 -0.1662136 0.5528119
vn -0.2159724 -0.2879901 0.4513878
vn -0.05054088 -0.3961266 0.4169685
vn -0.005217874 -0.273917 0.5082081
vn 0.02054032 -0.4146993 0.4011682
vn 0.02117453 -0.2861533 0.5010003
vn 0.006528173 -0.5559683 0.1555311
vn 0.04833658 -0.2777386 0.5038434
vn 0.01370198 -0.4140796 0.4020991
vn 0.06305324 -0.1731791 0.547144
vn 0.08420539 -0.3961614 0.4114595
vn 0.2493403 -0.2894399 0.4328825
vn 0.1702361 -0.0189299 0.5513571
vn 0.35647 0.0004355462 0.454161
vn 0.130781 0.2001332 0.5255248
vn 0.2646782 0.2842427 0.4271825
vn 0.04424535 0.2914669 0.4964098
vn 0.1124112 0.3999111 0.4009591

vt 0.2210925 0.05433324
vt 0.2210925 0.04189277
vt 0.2210925 0.04183401
vt 0.2210925 0.0432353
vt 0.2210925 0.04806346
vt 0.2210925 0.0521287
vt 0.2210925 0.04305191
vt 0.2210925 0.04743006
vt 0.2210925 0.05168777
vt 0.2210925 0.03504039
vt 0.2210925 0.03503555
vt 0.2210925 0.03571742
vt 0.2210925 0.03850494
vt 0.2210925 0.04272418
vt 0.2210925 0.03574308
vt 0.2210925 0.0289679
vt 0.2210925 0.02907759
vt 0.2210925 0.02875102
vt 0.2210925 0.02853549
vt 0.2210925 0.05168777
vt 0.2210925 0.04743006
vt 0.2210925 0.03826217
vt 0.2210925 0.04240247
vt 0.2210925 0.03574308
vt 0.2210925 0.04305191
vt 0.2210925 0.02865518
vt 0.2210925 0.02850171
vt 0.2210925 0.02889454
vt 0.2210925 0.0290449
vt 0.2210925 0.03503555
vt 0.2210925 0.02907759
vt 0.2210925 0.03504039
vt 0.2210925 0.01877415
vt 0.2210925 0.01431088
vt 0.2210925 0.02195634
vt 0.2210925 0.02312563
vt 0.2210925 0.01668754
vt 0.2210925 0.01043186
vt 0.2210925 0.0290449
vt 0.2210925 0.02907759
vt 0.2210925 0.02326708
vt 0.2210925 0.02312563
vt 0.2210925 0.02200139
vt 0.2210925 0.02184016
vt 0.2210925 0.02195634
vt 0.2210925 0.02059697
vt 0.2210925 0.01877415
vt 0.2210925 0.01668754
vt 0.2210925 0.01670068
vt 0.2210925 0.01475677
vt 0.2210925 0.0132724
vt 0.2210925 0.01029065
vt 0.2210925 0.01043186
vt 0.2210925 0.003847717
vt 0.2210925 0.02110174
vt 0.2210925 0.01361242
vt 0.2210925 0.01096743
vt 0.2210925 0.01716245
vt 0.2210925 0.004456667
vt 0.2210925 0.01087535
vt 0.2210925 0.002010478
vt 0.2210925 0.02907759
vt 0.2210925 0.0289679
vt 0.2210925 0.02238223
vt 0.2210925 0.02326708
vt 0.2210925 0.01925063
vt 0.2210925 0.02875102
vt 0.2210925 0.0146614
vt 0.2210925 0.02853549
vt 0.2210925 0.02110174
vt 0.2210925 0.02200139
vt 0.2210925 0.01716245
vt 0.2210925 0.01087535
vt 0.2569168 0.01733802
vt 0.2569168 0.01735979
vt 0.2569168 0.02886829
vt 0.2569168 0.03041722
vt 0.2569168 0.0173871
vt 0.2569168 0.02886152
vt 0.2569168 0.01735673
vt 0.2569168 0.02908629
vt 0.2569168 0.01738085
vt 0.2569168 0.008650525
vt 0.2569168 0.00604286
vt 0.2569168 0.005653012
vt 0.2569168 0.006040131
vt 0.2569168 0.008632341
vt 0.2569168 0.01682259
vt 0.2569168 0.0322269
vt 0.2569168 0.02914971
vt 0.2569168 0.005381186
vt 0.2569168 0.001915672
vt 0.2569168 0.001424768
vt 0.2569168 0.001912098
vt 0.2569168 0.005357366
vt 0.2569168 0.01681442
vt 0.2569168 0.03214871
vt 0.2569168 0.04356937
vt 0.2569168 0.03781071
vt 0.2569168 0.04774358
vt 0.2569168 0.04098382
vt 0.2569168 0.0435556
vt 0.2569168 0.03780021
vt 0.2104739 0.04266137
vt 0.2104739 0.03695468
vt 0.2104739 0.03419578
vt 0.2104739 0.03910779
vt 0.2104739 0.02667947
vt 0.2104739 0.02942044
vt 0.2104739 0.01644776
vt 0.2104739 0.01620999
vt 0.2104739 0.00882776
vt 0.2104739 0.003024582
vt 0.2104739 0.0009751118
vt 0.2104739 0.006527303
vt 0.2104739 0.0009772946
vt 0.2104739 0.006200138
vt 0.2104739 0.000979229
vt 0.2104739 0.00652771
vt 0.2104739 0.0009777873
vt 0.2104739 0.008816285
vt 0.2104739 0.0009760339
vt 0.2104739 0.003025513
vt 0.2104739 0.01644815
vt 0.2104739 0.01621011
vt 0.2104739 0.02663198
vt 0.2104739 0.02942138
vt 0.2104739 0.03419031
vt 0.2104739 0.03910831

f 3/3/3 2/2/2 1/1/1
f 2/2/2 4/4/4 1/1/1
f 4/4/4 5/5/5 1/1/1
f 5/5/5 6/6/6 1/1/1
f 7/7/7 3/3/3 1/1/1
f 8/8/8 7/7/7 1/1/1
f 9/9/9 8/8/8 1/1/1
f 10/10/10 2/2/2 3/3/3
f 11/11/11 10/10/10 3/3/3
f 11/11/11 3/3/3 7/7/7
f 12/12/12 4/4/4 2/2/2
f 10/10/10 12/12/12 2/2/2
f 13/13/13 5/5/5 4/4/4
f 12/12/12 13/13/13 4/4/4
f 14/14/14 6/6/6 5/5/5
f 13/13/13 14/14/14 5/5/5
f 15/15/15 11/11/11 7/7/7
f 16/16/16 12/12/12 10/10/10
f 17/17/17 16/16/16 10/10/10
f 18/18/18 13/13/13 12/12/12
f 16/16/16 18/18/18 12/12/12
f 19/19/19 14/14/14 13/13/13
f 18/18/18 19/19/19 13/13/13
f 22/22/22 21/21/21 20/20/20
f 23/23/23 22/22/22 20/20/20
f 22/22/22 24/24/24 21/21/21
f 24/24/24 25/25/25 21/21/21
f 26/26/26 22/22/22 23/23/23
f 27/27/27 26/26/26 23/23/23
f 28/28/28 24/24/24 22/22/22
f 26/26/26 28/28/28 22/22/22
f 28/28/28 29/29/29 24/24/24
f 29/29/29 30/30/30 24/24/24
f 29/29/29 31/31/31 30/30/30
f 31/31/31 32/32/32 30/30/30
f 33/33/33 26/26/26 27/27/27
f 34/34/34 33/33/33 27/27/27
f 35/35/35 28/28/28 26/26/26
f 33/33/33 35/35/35 26/26/26
f 36/36/36 29/29/29 28/28/28
f 35/35/35 36/36/36 28/28/28
f 37/37/37 33/33/33 34/34/34
f 38/38/38 37/37/37 34/34/34
f 41/41/41 40/40/40 39/39/39
f 42/42/42 41/41/41 39/39/39
f 43/43/43 41/41/41 42/42/42
f 44/44/44 43/43/43 42/42/42
f 44/44/44 42/42/42 45/45/45
f 46/46/46 44/44/44 45/45/45
f 46/46/46 45/45/45 47/47/47
f 48/48/48 46/46/46 47/47/47
f 49/49/49 43/43/43 44/44/44
f 50/50/50 49/49/49 44/44/44
f 50/50/50 44/44/44 46/46/46
f 51/51/51 50/50/50 46/46/46
f 51/51/51 46/46/46 48/48/48
f 52/52/52 51/51/51 48/48/48
f 52/52/52 48/48/48 53/53/53
f 54/54/54 52/52/52 53/53/53
f 43/43/43 49/49/49 55/55/55
f 49/49/49 56/56/56 55/55/55
f 56/56/56 57/57/57 55/55/55
f 57/57/57 58/58/58 55/55/55
f 57/57/57 59/59/59 58/58/58
f 59/59/59 60/60/60 58/58/58
f 61/61/61 49/49/49 50/50/50
f 61/61/61 50/50/50 51/51/51
f 61/61/61 51/51/51 52/52/52
f 61/61/61 52/52/52 54/54/54
f 61/61/61 59/59/59 57/57/57
f 61/61/61 57/57/57 56/56/56
f 61/61/61 56/56/56 49/49/49
f 64/64/64 63/63/63 62/62/62
f 65/65/65 64/64/64 62/62/62
f 64/64/64 66/66/66 63/63/63
f 66/66/66 67/67/67 63/63/63
f 66/66/66 68/68/68 67/67/67
f 68/68/68 69/69/69 67/67/67
f 70/70/70 64/64/64 65/65/65
f 71/71/71 70/70/70 65/65/65
f 72/72/72 66/66/66 64/64/64
f 70/70/70 72/72/72 64/64/64
f 73/73/73 68/68/68 66/66/66
f 72/72/72 73/73/73 66/66/66
f 76/76/76 75/75/75 74/74/74
f 77/77/77 76/76/76 74/74/74
f 76/76/76 78/78/78 75/75/75
f 77/77/77 74/74/74 79/79/79
f 74/74/74 80/80/80 79/79/79
f 79/79/79 80/80/80 81/81/81
f 80/80/80 82/82/82 81/81/81
f 83/83/83 75/75/75 78/78/78
f 74/74/74 75/75/75 84/84/84
f 84/84/84 75/75/75 83/83/83
f 85/85/85 74/74/74 84/84/84
f 86/86/86 80/80/80 74/74/74
f 85/85/85 86/86/86 74/74/74
f 87/87/87 82/82/82 80/80/80
f 86/86/86 87/87/87 80/80/80
f 83/83/83 78/78/78 88/88/88
f 88/88/88 78/78/78 89/89/89
f 78/78/78 90/90/90 89/89/89
f 90/90/90 78/78/78 76/76/76
f 91/91/91 83/83/83 88/88/88
f 84/84/84 83/83/83 91/91/91
f 92/92/92 84/84/84 91/91/91
f 85/85/85 84/84/84 92/92/92
f 93/93/93 85/85/85 92/92/92
f 86/86/86 85/85/85 93/93/93
f 94/94/94 86/86/86 93/93/93
f 87/87/87 86/86/86 94/94/94
f 95/95/95 87/87/87 94/94/94
f 82/82/82 87/87/87 95/95/95
f 96/96/96 82/82/82 95/95/95
f 81/81/81 82/82/82 96/96/96
f 97/97/97 81/81/81 96/96/96
f 89/89/89 90/90/90 98/98/98
f 90/90/90 99/99/99 98/98/98
f 98/98/98 99/99/99 100/100/100
f 99/99/99 101/101/101 100/100/100
f 100/100/100 101/101/101 102/102/102
f 102/102/102 103/103/103 97/97/97
f 101/101/101 103/103/103 102/102/102
f 103/103/103 81/81/81 97/97/97
f 101/101/101 99/99/99 77/77/77
f 101/101/101 77/77/77 103/103/103
f 99/99/99 76/76/76 77/77/77
f 77/77/77 79/79/79 103/103/103
f 103/103/103 79/79/79 81/81/81
f 99/99/99 90/90/90 76/76/76
f 106/106/106 105/105/105 104/104/104
f 107/107/107 106/106/106 104/104/104
f 108/108/108 106/106/106 107/107/107
f 109/109/109 108/108/108 107/107/107
f 110/110/110 108/108/108 109/109/109
f 111/111/111 110/110/110 109/109/109
f 112/112/112 110/110/110 111/111/111
f 113/113/113 112/112/112 111/111/111
f 114/114/114 112/112/112 113/113/113
f 115/115/115 112/112/112 114/114/114
f 116/116/116 115/115/115 114/114/114
f 117/117/117 115/115/115 116/116/116
f 118/118/118 117/117/117 116/116/116
f 119/119/119 117/117/117 118/118/118
f 120/120/120 119/119/119 118/118/118
f 121/121/121 119/119/119 120/120/120
f 122/122/122 121/121/121 120/120/120
f 123/123/123 121/121/121 122/122/122
f 124/124/124 121/121/121 123/123/123
f 125/125/125 124/124/124 123/123/123
f 126/126/126 124/124/124 125/125/125
f 127/127/127 126/126/126 125/125/125
f 128/128/128 126/126/126 127/127/127
f 129/129/129 128/128/128 127/127/127
f 105/105/105 128/128/128 129/129/129
f 104/104/104 105/105/105 129/129/129
# 0 polygons - 468 triangles
