# Export of HypnoseAR project by David Libeau and Romain Paris
# from Aaro4130 OBJ Exporter  - modified by Romain Paris

#
# object Onigiri.OBJ
#

v -0.01845245 -0.04083208 9.536743E-09
v -0.01849152 -0.03751156 0.01112755
v 0 -0.03838352 0.01112755
v 0 -0.04073188 9.536743E-09
v 0.01845245 -0.04083208 9.536743E-09
v 0.01849152 -0.03751156 0.01112755
v -0.04121979 -0.03195948 0.01112755
v -0.03464752 -0.03683892 0.01112755
v -0.03747314 -0.04092422 9.536743E-09
v -0.0445813 -0.03564685 9.536743E-09
v -0.01845245 -0.04083208 9.536743E-09
v -0.01849152 -0.03751156 0.01112755
v -0.04178131 -0.01836189 0.01112755
v -0.04121979 -0.03195948 0.01112755
v -0.0445813 -0.03564685 9.536743E-09
v -0.0451886 -0.02094036 0
v -0.03157959 0.005029113 0
v -0.02919861 0.003926987 0.01112755
v -0.009364929 0.03386157 0.01112754
v -0.01012848 0.0374049 0
v 0 0.04092422 0
v 0 0.0371155 0.01112754
v -0.009364929 0.03386157 0.01112754
v 0 -0.003879766 0.01467695
v 0 -0.005575783 0.01475549
v -0.02919861 0.003926987 0.01112755
v 0 0.0371155 0.01112754
v 0.009364929 0.03386157 0.01112754
v 0.02919861 0.003926987 0.01112755
v 0.01886993 -0.005314181 0.01266162
v 0.04178131 -0.01836189 0.01112755
v 0.04121979 -0.03195948 0.01112755
v 0.03464752 -0.03683892 0.01112755
v 0.01849152 -0.03751156 0.01112755
v 0 -0.03838352 0.01112755
v -0.01849152 -0.03751156 0.01112755
v 0 -0.005575783 0.01475549
v 0 -0.005325435 0.01477279
v -0.01886993 -0.005314181 0.01266162
v 0.01849152 -0.03751156 0.01112755
v -0.01886993 -0.005314181 0.01266162
v -0.04178131 -0.01836189 0.01112755
v -0.02919861 0.003926987 0.01112755
v -0.04121979 -0.03195948 0.01112755
v -0.03464752 -0.03683892 0.01112755
v -0.01849152 -0.03751156 0.01112755
v -0.01886993 -0.005314181 0.01266162
v -0.02919861 0.003926987 0.01112755
v 0 -0.005575783 0.01475549
v -0.01886993 -0.005314181 0.01266162
v 0 -0.005575783 0.01475549
v 0 -0.005325435 0.01477279
v 0.01886993 -0.005314181 0.01266162
v 0 -0.005325435 0.01477279
v 0.03747314 -0.04092422 9.536743E-09
v 0.03464752 -0.03683892 0.01112755
v 0.04121979 -0.03195948 0.01112755
v 0.0445813 -0.03564685 9.536743E-09
v 0.01845245 -0.04083208 9.536743E-09
v 0.01849152 -0.03751156 0.01112755
v 0.0445813 -0.03564685 9.536743E-09
v 0.04121979 -0.03195948 0.01112755
v 0.04178131 -0.01836189 0.01112755
v 0.0451886 -0.02094036 0
v 0.03157959 0.005029113 0
v 0.02919861 0.003926987 0.01112755
v 0.009364929 0.03386157 0.01112754
v 0.01012848 0.0374049 0
v 0 0.04092422 0
v 0 0.0371155 0.01112754
v 0.01849152 -0.03751156 0.01112755
v 0 -0.005325435 0.01477279
v 0.01886993 -0.005314181 0.01266162
v -0.01845245 -0.04083208 9.536743E-09
v 0 -0.04073188 9.536743E-09
v 0 -0.03838352 -0.01112754
v -0.01849152 -0.03751156 -0.01112754
v 0.01845245 -0.04083208 9.536743E-09
v 0.01849152 -0.03751156 -0.01112754
v -0.03747314 -0.04092422 9.536743E-09
v -0.03464752 -0.03683893 -0.01112754
v -0.04121979 -0.03195948 -0.01112754
v -0.0445813 -0.03564685 9.536743E-09
v -0.01845245 -0.04083208 9.536743E-09
v -0.01849152 -0.03751156 -0.01112754
v -0.0445813 -0.03564685 9.536743E-09
v -0.04121979 -0.03195948 -0.01112754
v -0.04178131 -0.0183619 -0.01112755
v -0.0451886 -0.02094036 0
v -0.03157959 0.005029113 0
v -0.02919861 0.003926985 -0.01112755
v -0.009364929 0.03386157 -0.01112755
v -0.01012848 0.0374049 0
v 0 0.04092422 0
v 0 0.03711549 -0.01112755
v -0.009364929 0.03386157 -0.01112755
v -0.02919861 0.003926985 -0.01112755
v 0 -0.005575785 -0.01475549
v 0 -0.00387977 -0.01467695
v -0.01886993 -0.005314183 -0.01266162
v -0.04178131 -0.0183619 -0.01112755
v -0.04121979 -0.03195948 -0.01112754
v -0.03464752 -0.03683893 -0.01112754
v -0.01849152 -0.03751156 -0.01112754
v 0 0.03711549 -0.01112755
v 0.009364929 0.03386157 -0.01112755
v 0.02919861 0.003926985 -0.01112755
v 0 -0.03838352 -0.01112754
v 0 -0.005575785 -0.01475549
v -0.01849152 -0.03751156 -0.01112754
v 0 -0.005325439 -0.01477279
v 0.01849152 -0.03751156 -0.01112754
v 0.01886993 -0.005314183 -0.01266162
v -0.01849152 -0.03751156 -0.01112754
v 0 -0.005325439 -0.01477279
v -0.01886993 -0.005314183 -0.01266162
v -0.01886993 -0.005314183 -0.01266162
v 0 -0.005325439 -0.01477279
v 0 -0.005575785 -0.01475549
v 0.01886993 -0.005314183 -0.01266162
v 0 -0.005325439 -0.01477279
v 0.04121979 -0.03195948 -0.01112754
v 0.03464752 -0.03683893 -0.01112754
v 0.03747314 -0.04092422 9.536743E-09
v 0.0445813 -0.03564685 9.536743E-09
v 0.01845245 -0.04083208 9.536743E-09
v 0.01849152 -0.03751156 -0.01112754
v 0.04178131 -0.0183619 -0.01112755
v 0.04121979 -0.03195948 -0.01112754
v 0.0445813 -0.03564685 9.536743E-09
v 0.0451886 -0.02094036 0
v 0.03157959 0.005029113 0
v 0.02919861 0.003926985 -0.01112755
v 0.009364929 0.03386157 -0.01112755
v 0.01012848 0.0374049 0
v 0 0.04092422 0
v 0 0.03711549 -0.01112755
v 0.01886993 -0.005314183 -0.01266162
v 0.04178131 -0.0183619 -0.01112755
v 0.02919861 0.003926985 -0.01112755
v 0.04121979 -0.03195948 -0.01112754
v 0.03464752 -0.03683893 -0.01112754
v 0.01849152 -0.03751156 -0.01112754
v 0.01886993 -0.005314183 -0.01266162
v 0.02919861 0.003926985 -0.01112755
v 0 -0.005575785 -0.01475549

vn -0.01080608 -0.5772491 0
vn -0.02146346 -0.2961704 0.4951321
vn 0 -0.378829 0.4356856
vn 0 -0.5773503 0
vn 0.01080608 -0.5772491 0
vn 0.02146346 -0.2961704 0.4951321
vn -0.2830908 -0.1444528 0.4820023
vn -0.1030115 -0.3089386 0.4767377
vn -0.1824483 -0.5477645 0
vn -0.5130698 -0.2647503 0
vn -0.01080608 -0.5772491 0
vn -0.02146346 -0.2961704 0.4951321
vn -0.3555033 0.08648673 0.4466214
vn -0.2830908 -0.1444528 0.4820023
vn -0.5130698 -0.2647503 0
vn -0.561894 0.132697 0
vn -0.4948887 0.2973525 0
vn -0.2789542 0.164974 0.477809
vn -0.2242383 0.2836394 0.4501102
vn -0.3557828 0.4546998 0
vn 0 0.5773503 0
vn 0 0.3480857 0.4606188
vn -0.2242383 0.2836394 0.4501102
vn 0 0.04433035 0.5756458
vn 0 -0.00672701 0.5773111
vn -0.2789542 0.164974 0.477809
vn 0 0.3480857 0.4606188
vn 0.2242383 0.2836394 0.4501102
vn 0.2789542 0.164974 0.477809
vn 0.03971613 -0.003245739 0.5759735
vn 0.3555033 0.08648673 0.4466214
vn 0.2830908 -0.1444528 0.4820023
vn 0.1030115 -0.3089386 0.4767377
vn 0.02146346 -0.2961704 0.4951321
vn 0 -0.378829 0.4356856
vn -0.02146346 -0.2961704 0.4951321
vn 0 -0.00672701 0.5773111
vn 0 -0.0009507376 0.5773495
vn -0.03971613 -0.003245739 0.5759735
vn 0.02146346 -0.2961704 0.4951321
vn -0.03971613 -0.003245739 0.5759735
vn -0.3555033 0.08648673 0.4466214
vn -0.2789542 0.164974 0.477809
vn -0.2830908 -0.1444528 0.4820023
vn -0.1030115 -0.3089386 0.4767377
vn -0.02146346 -0.2961704 0.4951321
vn -0.03971613 -0.003245739 0.5759735
vn -0.2789542 0.164974 0.477809
vn 0 -0.00672701 0.5773111
vn -0.03971613 -0.003245739 0.5759735
vn 0 -0.00672701 0.5773111
vn 0 -0.0009507376 0.5773495
vn 0.03971613 -0.003245739 0.5759735
vn 0 -0.0009507376 0.5773495
vn 0.1824483 -0.5477645 0
vn 0.1030115 -0.3089386 0.4767377
vn 0.2830908 -0.1444528 0.4820023
vn 0.5130698 -0.2647503 0
vn 0.01080608 -0.5772491 0
vn 0.02146346 -0.2961704 0.4951321
vn 0.5130698 -0.2647503 0
vn 0.2830908 -0.1444528 0.4820023
vn 0.3555033 0.08648673 0.4466214
vn 0.561894 0.132697 0
vn 0.4948887 0.2973525 0
vn 0.2789542 0.164974 0.477809
vn 0.2242383 0.2836394 0.4501102
vn 0.3557828 0.4546998 0
vn 0 0.5773503 0
vn 0 0.3480857 0.4606188
vn 0.02146346 -0.2961704 0.4951321
vn 0 -0.0009507376 0.5773495
vn 0.03971613 -0.003245739 0.5759735
vn -0.01080608 -0.5772491 0
vn 0 -0.5773503 0
vn 0 -0.3788292 -0.4356854
vn -0.02146347 -0.2961706 -0.4951319
vn 0.01080608 -0.5772491 0
vn 0.02146347 -0.2961706 -0.4951319
vn -0.1824483 -0.5477645 0
vn -0.1030114 -0.3089389 -0.4767376
vn -0.2830908 -0.144453 -0.4820023
vn -0.5130698 -0.2647503 0
vn -0.01080608 -0.5772491 0
vn -0.02146347 -0.2961706 -0.4951319
vn -0.5130698 -0.2647503 0
vn -0.2830908 -0.144453 -0.4820023
vn -0.3555033 0.0864866 -0.4466216
vn -0.561894 0.132697 0
vn -0.4948887 0.2973525 0
vn -0.2789542 0.1649739 -0.477809
vn -0.2242383 0.2836393 -0.4501102
vn -0.3557828 0.4546998 0
vn 0 0.5773503 0
vn 0 0.3480856 -0.4606189
vn -0.2242383 0.2836393 -0.4501102
vn -0.2789542 0.1649739 -0.477809
vn 0 -0.006727207 -0.5773111
vn 0 0.04433025 -0.5756459
vn -0.03971606 -0.003245957 -0.5759735
vn -0.3555033 0.0864866 -0.4466216
vn -0.2830908 -0.144453 -0.4820023
vn -0.1030114 -0.3089389 -0.4767376
vn -0.02146347 -0.2961706 -0.4951319
vn 0 0.3480856 -0.4606189
vn 0.2242383 0.2836393 -0.4501102
vn 0.2789542 0.1649739 -0.477809
vn 0 -0.3788292 -0.4356854
vn 0 -0.006727207 -0.5773111
vn -0.02146347 -0.2961706 -0.4951319
vn 0 -0.0009509759 -0.5773495
vn 0.02146347 -0.2961706 -0.4951319
vn 0.03971606 -0.003245957 -0.5759735
vn -0.02146347 -0.2961706 -0.4951319
vn 0 -0.0009509759 -0.5773495
vn -0.03971606 -0.003245957 -0.5759735
vn -0.03971606 -0.003245957 -0.5759735
vn 0 -0.0009509759 -0.5773495
vn 0 -0.006727207 -0.5773111
vn 0.03971606 -0.003245957 -0.5759735
vn 0 -0.0009509759 -0.5773495
vn 0.2830908 -0.144453 -0.4820023
vn 0.1030114 -0.3089389 -0.4767376
vn 0.1824483 -0.5477645 0
vn 0.5130698 -0.2647503 0
vn 0.01080608 -0.5772491 0
vn 0.02146347 -0.2961706 -0.4951319
vn 0.3555033 0.0864866 -0.4466216
vn 0.2830908 -0.144453 -0.4820023
vn 0.5130698 -0.2647503 0
vn 0.561894 0.132697 0
vn 0.4948887 0.2973525 0
vn 0.2789542 0.1649739 -0.477809
vn 0.2242383 0.2836393 -0.4501102
vn 0.3557828 0.4546998 0
vn 0 0.5773503 0
vn 0 0.3480856 -0.4606189
vn 0.03971606 -0.003245957 -0.5759735
vn 0.3555033 0.0864866 -0.4466216
vn 0.2789542 0.1649739 -0.477809
vn 0.2830908 -0.144453 -0.4820023
vn 0.1030114 -0.3089389 -0.4767376
vn 0.02146347 -0.2961706 -0.4951319
vn 0.03971606 -0.003245957 -0.5759735
vn 0.2789542 0.1649739 -0.477809
vn 0 -0.006727207 -0.5773111

vt 0.1577666 0.4738193
vt 0.1578864 0.4887989
vt 0.1948589 0.4870695
vt 0.1946611 0.4738718
vt 0.2315556 0.473557
vt 0.2318314 0.4885362
vt 0.01946225 0.04666644
vt 0.02459091 0.03842852
vt 0.01082845 0.02555785
vt 0.002851812 0.03895148
vt 0.03406507 0.01158588
vt 0.04385259 0.03005104
vt 0.02206689 0.06679506
vt 0.01946225 0.04666644
vt 0.002851812 0.03895148
vt 0.002812086 0.0662996
vt 0.0222082 0.1160748
vt 0.04193137 0.104165
vt 0.07752979 0.1599865
vt 0.06800494 0.1799077
vt 0.08947662 0.1867689
vt 0.08945387 0.1649872
vt 0.07752979 0.1599865
vt 0.08915979 0.08423153
vt 0.08939686 0.08198331
vt 0.04193137 0.104165
vt 0.08945387 0.1649872
vt 0.1013605 0.1599389
vt 0.1368747 0.1040826
vt 0.1222686 0.08462367
vt 0.1566763 0.06669382
vt 0.1592497 0.04656867
vt 0.1541106 0.03834236
vt 0.1348438 0.02999977
vt 0.1948589 0.4870695
vt 0.1578864 0.4887989
vt 0.1949234 0.5500992
vt 0.1949237 0.5505718
vt 0.1571573 0.5490392
vt 0.2318314 0.4885362
vt 0.05651473 0.08467545
vt 0.02206689 0.06679506
vt 0.04193137 0.104165
vt 0.01946225 0.04666644
vt 0.02459091 0.03842852
vt 0.04385259 0.03005104
vt 0.05651473 0.08467545
vt 0.04193137 0.104165
vt 0.08939686 0.08198331
vt 0.05651473 0.08467545
vt 0.08939686 0.08198331
vt 0.08935219 0.08143854
vt 0.1222686 0.08462367
vt 0.08944075 0.08143872
vt 0.1678483 0.02545404
vt 0.1541106 0.03834236
vt 0.1592497 0.04656867
vt 0.1758421 0.03882931
vt 0.1445998 0.0115257
vt 0.1348438 0.02999977
vt 0.1758421 0.03882931
vt 0.1592497 0.04656867
vt 0.1566763 0.06669382
vt 0.175923 0.06616678
vt 0.1566097 0.1159552
vt 0.1368747 0.1040826
vt 0.1013605 0.1599389
vt 0.1109257 0.179847
vt 0.08947662 0.1867689
vt 0.08945387 0.1649872
vt 0.2318314 0.4885362
vt 0.1949237 0.5505718
vt 0.2326149 0.548771
vt 0.1577666 0.4738193
vt 0.1946611 0.4738718
vt 0.1948589 0.4870695
vt 0.1578864 0.4887989
vt 0.2315556 0.473557
vt 0.2318314 0.4885362
vt 0.01082845 0.02555785
vt 0.02459091 0.03842852
vt 0.01946225 0.04666644
vt 0.002851812 0.03895148
vt 0.03406507 0.01158588
vt 0.04385259 0.03005104
vt 0.002851812 0.03895148
vt 0.01946225 0.04666644
vt 0.02206689 0.06679506
vt 0.002812086 0.0662996
vt 0.0222082 0.1160748
vt 0.04193137 0.104165
vt 0.07752979 0.1599865
vt 0.06800494 0.1799077
vt 0.08947662 0.1867689
vt 0.08945387 0.1649872
vt 0.07752979 0.1599865
vt 0.04193137 0.104165
vt 0.08939686 0.08198331
vt 0.08915979 0.08423153
vt 0.05651473 0.08467545
vt 0.02206689 0.06679506
vt 0.01946225 0.04666644
vt 0.02459091 0.03842852
vt 0.04385259 0.03005104
vt 0.08945387 0.1649872
vt 0.1013605 0.1599389
vt 0.1368747 0.1040826
vt 0.1948589 0.4870695
vt 0.1949234 0.5500992
vt 0.1578864 0.4887989
vt 0.1949237 0.5505718
vt 0.2318314 0.4885362
vt 0.2326149 0.548771
vt 0.1578864 0.4887989
vt 0.1949237 0.5505718
vt 0.1571573 0.5490392
vt 0.05651473 0.08467545
vt 0.08935219 0.08143854
vt 0.08939686 0.08198331
vt 0.1222686 0.08462367
vt 0.08944075 0.08143872
vt 0.1592497 0.04656867
vt 0.1541106 0.03834236
vt 0.1678483 0.02545404
vt 0.1758421 0.03882931
vt 0.1445998 0.0115257
vt 0.1348438 0.02999977
vt 0.1566763 0.06669382
vt 0.1592497 0.04656867
vt 0.1758421 0.03882931
vt 0.175923 0.06616678
vt 0.1566097 0.1159552
vt 0.1368747 0.1040826
vt 0.1013605 0.1599389
vt 0.1109257 0.179847
vt 0.08947662 0.1867689
vt 0.08945387 0.1649872
vt 0.1222686 0.08462367
vt 0.1566763 0.06669382
vt 0.1368747 0.1040826
vt 0.1592497 0.04656867
vt 0.1541106 0.03834236
vt 0.1348438 0.02999977
vt 0.1222686 0.08462367
vt 0.1368747 0.1040826
vt 0.08939686 0.08198331

f 3/3/3 2/2/2 1/1/1
f 4/4/4 3/3/3 1/1/1
f 3/3/3 4/4/4 5/5/5
f 6/6/6 3/3/3 5/5/5
f 9/9/9 8/8/8 7/7/7
f 10/10/10 9/9/9 7/7/7
f 9/9/9 11/11/11 8/8/8
f 11/11/11 12/12/12 8/8/8
f 15/15/15 14/14/14 13/13/13
f 16/16/16 15/15/15 13/13/13
f 17/17/17 16/16/16 13/13/13
f 18/18/18 17/17/17 13/13/13
f 17/17/17 18/18/18 19/19/19
f 20/20/20 17/17/17 19/19/19
f 21/21/21 20/20/20 19/19/19
f 22/22/22 21/21/21 19/19/19
f 25/25/25 24/24/24 23/23/23
f 26/26/26 25/25/25 23/23/23
f 23/23/23 24/24/24 27/27/27
f 24/24/24 25/25/25 28/28/28
f 24/24/24 28/28/28 27/27/27
f 25/25/25 29/29/29 28/28/28
f 29/29/29 25/25/25 30/30/30
f 31/31/31 29/29/29 30/30/30
f 32/32/32 31/31/31 30/30/30
f 33/33/33 32/32/32 30/30/30
f 34/34/34 33/33/33 30/30/30
f 37/37/37 36/36/36 35/35/35
f 37/37/37 38/38/38 36/36/36
f 38/38/38 39/39/39 36/36/36
f 40/40/40 37/37/37 35/35/35
f 38/38/38 37/37/37 40/40/40
f 43/43/43 42/42/42 41/41/41
f 42/42/42 44/44/44 41/41/41
f 44/44/44 45/45/45 41/41/41
f 45/45/45 46/46/46 41/41/41
f 49/49/49 48/48/48 47/47/47
f 52/52/52 51/51/51 50/50/50
f 51/51/51 54/54/54 53/53/53
f 57/57/57 56/56/56 55/55/55
f 58/58/58 57/57/57 55/55/55
f 55/55/55 56/56/56 59/59/59
f 56/56/56 60/60/60 59/59/59
f 63/63/63 62/62/62 61/61/61
f 64/64/64 63/63/63 61/61/61
f 63/63/63 64/64/64 65/65/65
f 66/66/66 63/63/63 65/65/65
f 67/67/67 66/66/66 65/65/65
f 68/68/68 67/67/67 65/65/65
f 67/67/67 68/68/68 69/69/69
f 70/70/70 67/67/67 69/69/69
f 73/73/73 72/72/72 71/71/71
f 76/76/76 75/75/75 74/74/74
f 77/77/77 76/76/76 74/74/74
f 75/75/75 76/76/76 78/78/78
f 76/76/76 79/79/79 78/78/78
f 82/82/82 81/81/81 80/80/80
f 83/83/83 82/82/82 80/80/80
f 80/80/80 81/81/81 84/84/84
f 81/81/81 85/85/85 84/84/84
f 88/88/88 87/87/87 86/86/86
f 89/89/89 88/88/88 86/86/86
f 88/88/88 89/89/89 90/90/90
f 91/91/91 88/88/88 90/90/90
f 92/92/92 91/91/91 90/90/90
f 93/93/93 92/92/92 90/90/90
f 92/92/92 93/93/93 94/94/94
f 95/95/95 92/92/92 94/94/94
f 98/98/98 97/97/97 96/96/96
f 99/99/99 98/98/98 96/96/96
f 97/97/97 98/98/98 100/100/100
f 101/101/101 97/97/97 100/100/100
f 102/102/102 101/101/101 100/100/100
f 103/103/103 102/102/102 100/100/100
f 104/104/104 103/103/103 100/100/100
f 99/99/99 96/96/96 105/105/105
f 98/98/98 99/99/99 106/106/106
f 106/106/106 99/99/99 105/105/105
f 107/107/107 98/98/98 106/106/106
f 110/110/110 109/109/109 108/108/108
f 111/111/111 109/109/109 110/110/110
f 109/109/109 112/112/112 108/108/108
f 109/109/109 111/111/111 112/112/112
f 111/111/111 113/113/113 112/112/112
f 116/116/116 115/115/115 114/114/114
f 119/119/119 118/118/118 117/117/117
f 121/121/121 119/119/119 120/120/120
f 124/124/124 123/123/123 122/122/122
f 125/125/125 124/124/124 122/122/122
f 124/124/124 126/126/126 123/123/123
f 126/126/126 127/127/127 123/123/123
f 130/130/130 129/129/129 128/128/128
f 131/131/131 130/130/130 128/128/128
f 132/132/132 131/131/131 128/128/128
f 133/133/133 132/132/132 128/128/128
f 132/132/132 133/133/133 134/134/134
f 135/135/135 132/132/132 134/134/134
f 136/136/136 135/135/135 134/134/134
f 137/137/137 136/136/136 134/134/134
f 140/140/140 139/139/139 138/138/138
f 139/139/139 141/141/141 138/138/138
f 141/141/141 142/142/142 138/138/138
f 142/142/142 143/143/143 138/138/138
f 146/146/146 145/145/145 144/144/144
# 0 polygons - 312 triangles
