# Export of HypnoseAR project by David Libeau and Romain Paris
# from Aaro4130 OBJ Exporter  - modified by Romain Paris

#
# object Pepper.OBJ
#

v 0.003633118 -0.02024889 -0.008771553
v 0.006468811 -0.0503544 -0.005951195
v 0.008867797 -0.0497872 0
v 0.007266235 -0.02024889 0
v -0.005138549 -0.02024889 -0.01240482
v 0.0006774902 -0.05172374 -0.00841629
v 0.006309204 0.01502823 -0.01072109
v 0.01072845 0.01459109 0
v 0.01138458 0.04416022 -0.01029484
v 0.01562225 0.04368518 0
v 0.01314667 -0.08246052 0
v 0.00115387 0.04530711 -0.01455906
v -0.004359741 0.01608356 -0.0151619
v 0.01401459 0.04911105 0
v 0.01041779 0.04951425 -0.008737717
v 0.001734619 0.05048766 -0.01235699
v -0.01512939 -0.02024889 -0.008771553
v -0.005114136 -0.05309309 -0.005951195
v 0.0006774902 -0.05172374 -0.00841629
v -0.005138549 -0.02024889 -0.01240482
v -0.01876282 -0.02024889 0
v -0.0154248 0.0171389 -0.01072109
v -0.004359741 0.01608356 -0.0151619
v -0.009076843 0.046454 -0.01029484
v 0.00115387 0.04530711 -0.01455906
v 0.01314667 -0.08246052 0
v -0.007513122 -0.05366029 0
v 0.001734619 0.05048766 -0.01235699
v -0.006948852 0.05146107 -0.008737717
v -0.01876282 -0.02024889 0
v -0.007513122 -0.05366029 0
v -0.005114136 -0.05309309 -0.005951195
v -0.01984406 0.01757603 0
v -0.01512939 -0.02024889 -0.008771553
v -0.0154248 0.0171389 -0.01072109
v -0.01331482 0.04692905 0
v -0.009076843 0.046454 -0.01029484
v -0.006948852 0.05146107 -0.008737717
v -0.01054565 0.05186425 0
v -0.01512939 -0.02024888 0.008771553
v -0.005114136 -0.05309309 0.005951233
v -0.007513122 -0.05366029 0
v -0.01876282 -0.02024889 0
v -0.0154248 0.0171389 0.01072109
v -0.01984406 0.01757603 0
v -0.009076843 0.046454 0.01029484
v -0.01331482 0.04692905 0
v 0.01314667 -0.08246052 0
v -0.01054565 0.05186425 0
v -0.006948852 0.05146107 0.008737679
v -0.005138549 -0.02024888 0.01240482
v 0.0006774902 -0.05172374 0.008416329
v -0.005114136 -0.05309309 0.005951233
v -0.01512939 -0.02024888 0.008771553
v 0.003633118 -0.02024888 0.008771553
v 0.006468811 -0.0503544 0.005951233
v -0.004359741 0.01608356 0.0151619
v -0.0154248 0.0171389 0.01072109
v 0.00115387 0.04530711 0.01455906
v -0.009076843 0.046454 0.01029484
v 0.01314667 -0.08246052 0
v 0.01138458 0.04416022 0.01029484
v 0.006309204 0.01502824 0.01072109
v -0.006948852 0.05146107 0.008737679
v 0.001734619 0.05048766 0.01235695
v 0.01041779 0.04951425 0.008737679
v 0.007266235 -0.02024889 0
v 0.008867797 -0.0497872 0
v 0.006468811 -0.0503544 0.005951233
v 0.003633118 -0.02024888 0.008771553
v 0.01072845 0.01459109 0
v 0.006309204 0.01502824 0.01072109
v 0.01562225 0.04368518 0
v 0.01138458 0.04416022 0.01029484
v 0.01314667 -0.08246052 0
v 0.01041779 0.04951425 0.008737679
v 0.01401459 0.04911105 0
v 0.01041779 0.04951425 -0.008737717
v 0.01401459 0.04911105 0
v 0.006433105 0.05305646 0
v 0.005274048 0.05318641 -0.002815933
v 0.001734619 0.05048766 -0.01235699
v 0.002475586 0.0535001 -0.003982315
v -0.006948852 0.05146107 -0.008737717
v -0.000322876 0.05381381 -0.002815933
v -0.01054565 0.05186425 0
v -0.001481934 0.05394374 0
v -0.006948852 0.05146107 0.008737679
v -0.01054565 0.05186425 0
v -0.001481934 0.05394374 0
v -0.000322876 0.05381381 0.002815933
v 0.001734619 0.05048766 0.01235695
v 0.002475586 0.0535001 0.003982315
v 0.01041779 0.04951425 0.008737679
v 0.005274048 0.05318641 0.002815933
v 0.006433105 0.05305646 0
v 0.01401459 0.04911105 0
v 0.006433105 0.05305646 0
v 0.006089783 0.06628474 0.0009875488
v 0.004721374 0.06656422 -0.002384186
v 0.005274048 0.05318641 -0.002815933
v 0.005274048 0.05318641 0.002815933
v 0.008976135 0.07474759 -0.002154846
v 0.009927368 0.0739177 0.0008925628
v 0.005274048 0.05318641 -0.002815933
v 0.004721374 0.06656422 -0.002384186
v 0.002475586 0.0535001 -0.003982315
v 0.001417847 0.06723892 -0.0009875488
v -0.000322876 0.05381381 -0.002815933
v -0.001481934 0.05394374 0
v 0.006679687 0.07675109 -0.0008925628
v 0.008976135 0.07474759 -0.002154846
v 0.01500275 0.08099996 -0.0008925628
v 0.01474182 0.07796372 -0.002154846
v 0.01984406 0.08246052 -0.001341248
v 0.01945221 0.077898 -0.003238067
v -0.001481934 0.05394374 0
v 0.001417847 0.06723892 -0.0009875488
v 0.002786255 0.06695946 0.002384186
v -0.000322876 0.05381381 0.002815933
v 0.00763092 0.07592121 0.002154846
v 0.006679687 0.07675109 -0.0008925628
v 0.01489471 0.07974231 0.002154846
v 0.01500275 0.08099996 -0.0008925628
v 0.0196817 0.08057067 0.003238067
v 0.01984406 0.08246052 -0.001341248
v -0.000322876 0.05381381 0.002815933
v 0.002786255 0.06695946 0.002384186
v 0.002475586 0.0535001 0.003982315
v 0.006089783 0.06628474 0.0009875488
v 0.005274048 0.05318641 0.002815933
v 0.009927368 0.0739177 0.0008925628
v 0.00763092 0.07592121 0.002154846
v 0.01463379 0.07670608 0.0008925628
v 0.01489471 0.07974231 0.002154846
v 0.01928985 0.07600816 0.001341248
v 0.0196817 0.08057067 0.003238067
v 0.009927368 0.0739177 0.0008925628
v 0.01463379 0.07670608 0.0008925628
v 0.01474182 0.07796372 -0.002154846
v 0.008976135 0.07474759 -0.002154846
v 0.01945221 0.077898 -0.003238067
v 0.01928985 0.07600816 0.001341248
v 0.01984406 0.08246052 -0.001341248
v 0.01945221 0.077898 -0.003238067
v 0.01928985 0.07600816 0.001341248
v 0.0196817 0.08057067 0.003238067

vn 0.4083984 -0.02600105 -0.407269
vn 0.4118126 0.006226475 -0.4046046
vn 0.5748801 0.0533499 0
vn 0.5772116 -0.01265603 0
vn 0.01051484 -0.0566522 -0.5744678
vn 0.0255987 -0.1049765 -0.5671489
vn 0.4044884 -0.05870952 -0.4077691
vn 0.5722761 -0.07637687 0
vn 0.4105892 0.06064618 -0.4013376
vn 0.5762408 0.0357743 0
vn 0.1731817 -0.5507644 0
vn 0.01447034 0.1203299 -0.5644862
vn 0.004562791 -0.01520217 -0.577132
vn 0.4409868 0.3726446 0
vn 0.3252871 0.3866292 -0.2793555
vn 0.0478896 0.4200829 -0.3931543
vn -0.3951977 -0.08892199 -0.4113939
vn -0.3565939 -0.2174879 -0.3985889
vn 0.0255987 -0.1049765 -0.5671489
vn 0.01051484 -0.0566522 -0.5744678
vn -0.5682073 -0.1023416 0
vn -0.4026323 0.03276945 -0.4124884
vn 0.004562791 -0.01520217 -0.577132
vn -0.3778613 0.1810688 -0.3972005
vn 0.01447034 0.1203299 -0.5644862
vn 0.1731817 -0.5507644 0
vn -0.5134404 -0.2640308 0
vn 0.0478896 0.4200829 -0.3931543
vn -0.226862 0.453115 -0.2766836
vn -0.5682073 -0.1023416 0
vn -0.5134404 -0.2640308 0
vn -0.3565939 -0.2174879 -0.3985889
vn -0.574746 0.05477539 0
vn -0.3951977 -0.08892199 -0.4113939
vn -0.4026323 0.03276945 -0.4124884
vn -0.5391297 0.2065733 0
vn -0.3778613 0.1810688 -0.3972005
vn -0.226862 0.453115 -0.2766836
vn -0.3399174 0.4666792 0
vn -0.3951979 -0.08892179 0.4113938
vn -0.3565942 -0.217488 0.3985887
vn -0.5134404 -0.2640308 0
vn -0.5682073 -0.1023416 0
vn -0.4026323 0.03276945 0.4124884
vn -0.574746 0.05477539 0
vn -0.377861 0.1810698 0.3972003
vn -0.5391297 0.2065733 0
vn 0.1731817 -0.5507644 0
vn -0.3399174 0.4666792 0
vn -0.2268614 0.4531154 0.2766833
vn 0.01051481 -0.05665185 0.5744678
vn 0.02559874 -0.1049764 0.567149
vn -0.3565942 -0.217488 0.3985887
vn -0.3951979 -0.08892179 0.4113938
vn 0.4083985 -0.02600083 0.4072689
vn 0.411813 0.00622656 0.4046043
vn 0.004562786 -0.01520217 0.577132
vn -0.4026323 0.03276945 0.4124884
vn 0.01447053 0.1203316 0.5644858
vn -0.377861 0.1810698 0.3972003
vn 0.1731817 -0.5507644 0
vn 0.4105892 0.06064727 0.4013374
vn 0.4044884 -0.05870952 0.4077691
vn -0.2268614 0.4531154 0.2766833
vn 0.04788969 0.4200837 0.3931534
vn 0.3252867 0.3866297 0.2793553
vn 0.5772116 -0.01265603 0
vn 0.5748801 0.0533499 0
vn 0.411813 0.00622656 0.4046043
vn 0.4083985 -0.02600083 0.4072689
vn 0.5722761 -0.07637687 0
vn 0.4044884 -0.05870952 0.4077691
vn 0.5762408 0.0357743 0
vn 0.4105892 0.06064727 0.4013374
vn 0.1731817 -0.5507644 0
vn 0.3252867 0.3866297 0.2793553
vn 0.4409868 0.3726446 0
vn 0.3252871 0.3866292 -0.2793555
vn 0.4409868 0.3726446 0
vn 0.4836606 0.3152849 0.001059916
vn 0.3543263 0.330085 -0.3143725
vn 0.0478896 0.4200829 -0.3931543
vn 0.04292988 0.3647977 -0.4454357
vn -0.226862 0.453115 -0.2766836
vn -0.2710181 0.4005446 -0.3153515
vn -0.3399174 0.4666792 0
vn -0.4013292 0.415052 -0.0001072697
vn -0.2268614 0.4531154 0.2766833
vn -0.3399174 0.4666792 0
vn -0.4013292 0.415052 -0.0001072697
vn -0.2711093 0.4002564 0.3156388
vn 0.04788969 0.4200837 0.3931534
vn 0.04249909 0.3653241 0.4450455
vn 0.3252867 0.3866297 0.2793553
vn 0.3555564 0.3295794 0.3135129
vn 0.4836606 0.3152849 0.001059916
vn 0.4409868 0.3726446 0
vn 0.4836606 0.3152849 0.001059916
vn 0.5273584 -0.06777529 0.2250175
vn 0.2199996 0.007482051 -0.5337391
vn 0.3543263 0.330085 -0.3143725
vn 0.3555564 0.3295794 0.3135129
vn 0.1598267 -0.1397421 -0.5368993
vn 0.383053 -0.3662553 0.2290431
vn 0.3543263 0.330085 -0.3143725
vn 0.2199996 0.007482051 -0.5337391
vn 0.04292988 0.3647977 -0.4454357
vn -0.5007561 0.1833232 -0.2212898
vn -0.2710181 0.4005446 -0.3153515
vn -0.4013292 0.415052 -0.0001072697
vn -0.3675235 0.3822387 -0.228371
vn 0.1598267 -0.1397421 -0.5368993
vn -0.2105775 0.4923132 -0.2159122
vn -0.007009171 -0.2063463 -0.539171
vn 0.2246155 0.4861709 -0.2156826
vn 0.2536201 -0.2239783 -0.4678075
vn -0.4013292 0.415052 -0.0001072697
vn -0.5007561 0.1833232 -0.2212898
vn -0.2006286 0.1092905 0.5302237
vn -0.2711093 0.4002564 0.3156388
vn -0.1444453 0.1566413 0.5365934
vn -0.3675235 0.3822387 -0.228371
vn -0.1260455 0.2058452 0.5244746
vn -0.2105775 0.4923132 -0.2159122
vn 0.2381771 0.1728274 0.496725
vn 0.2246155 0.4861709 -0.2156826
vn -0.2711093 0.4002564 0.3156388
vn -0.2006286 0.1092905 0.5302237
vn 0.04249909 0.3653241 0.4450455
vn 0.5273584 -0.06777529 0.2250175
vn 0.3555564 0.3295794 0.3135129
vn 0.383053 -0.3662553 0.2290431
vn -0.1444453 0.1566413 0.5365934
vn 0.09005883 -0.5212624 0.2313184
vn -0.1260455 0.2058452 0.5244746
vn 0.26229 -0.4791894 0.1868549
vn 0.2381771 0.1728274 0.496725
vn 0.383053 -0.3662553 0.2290431
vn 0.09005883 -0.5212624 0.2313184
vn -0.007009171 -0.2063463 -0.539171
vn 0.1598267 -0.1397421 -0.5368993
vn 0.2536201 -0.2239783 -0.4678075
vn 0.26229 -0.4791894 0.1868549
vn 0.2246155 0.4861709 -0.2156826
vn 0.2536201 -0.2239783 -0.4678075
vn 0.26229 -0.4791894 0.1868549
vn 0.2381771 0.1728274 0.496725

vt 0.4061156 0.5930965
vt 0.4424254 0.5908911
vt 0.4386744 0.5931445
vt 0.4016376 0.5964938
vt 0.4076532 0.5860242
vt 0.4451893 0.5862172
vt 0.3631139 0.5950574
vt 0.3581868 0.599193
vt 0.3266517 0.5947721
vt 0.3219894 0.5987387
vt 0.4797516 0.5964803
vt 0.3270238 0.5865215
vt 0.3636748 0.5864538
vt 0.3151288 0.5974854
vt 0.3190858 0.5941187
vt 0.3194017 0.587116
vt 0.4052966 0.5784689
vt 0.4453472 0.5818607
vt 0.4451893 0.5862172
vt 0.4076532 0.5860242
vt 0.4005014 0.576201
vt 0.3595237 0.5781131
vt 0.3636748 0.5864538
vt 0.3228879 0.57882
vt 0.3270238 0.5865215
vt 0.4797516 0.5964803
vt 0.4428066 0.5803735
vt 0.3194017 0.587116
vt 0.3158914 0.5805794
vt 0.4005014 0.576201
vt 0.4428066 0.5803735
vt 0.4453472 0.5818607
vt 0.3531167 0.575358
vt 0.4052966 0.5784689
vt 0.3595237 0.5781131
vt 0.3166666 0.576179
vt 0.3228879 0.57882
vt 0.3158914 0.5805794
vt 0.3106111 0.5783378
vt 0.4052963 0.5786458
vt 0.4453577 0.5820269
vt 0.4428465 0.5805417
vt 0.4005443 0.576381
vt 0.3595127 0.5782905
vt 0.3531585 0.5755391
vt 0.3228752 0.5789907
vt 0.3167046 0.5763532
vt 0.4797846 0.5966269
vt 0.3106478 0.5785092
vt 0.3158851 0.5807478
vt 0.4076316 0.586191
vt 0.4451858 0.5863776
vt 0.4453577 0.5820269
vt 0.4052963 0.5786458
vt 0.4061079 0.5932539
vt 0.4424312 0.5910452
vt 0.3636383 0.58662
vt 0.3595127 0.5782905
vt 0.3269868 0.586682
vt 0.3228752 0.5789907
vt 0.4797846 0.5966269
vt 0.3266309 0.5949215
vt 0.3630944 0.5952122
vt 0.3158851 0.5807478
vt 0.3193748 0.5872757
vt 0.3190728 0.594269
vt 0.4016703 0.5966466
vt 0.4387077 0.5932956
vt 0.4424312 0.5910452
vt 0.4061079 0.5932539
vt 0.3582166 0.5993422
vt 0.3630944 0.5952122
vt 0.3220161 0.5988828
vt 0.3266309 0.5949215
vt 0.4797846 0.5966269
vt 0.3190728 0.594269
vt 0.3151559 0.5976311
vt 0.3190858 0.5941187
vt 0.3151288 0.5974854
vt 0.3098602 0.5915747
vt 0.3111355 0.5904897
vt 0.3194017 0.587116
vt 0.3112373 0.5882329
vt 0.3158914 0.5805794
vt 0.310106 0.5861263
vt 0.3106111 0.5783378
vt 0.3084043 0.5854039
vt 0.3158851 0.5807478
vt 0.3106478 0.5785092
vt 0.3084373 0.5855659
vt 0.3101251 0.5862873
vt 0.3193748 0.5872757
vt 0.3112498 0.5883911
vt 0.3190728 0.594269
vt 0.3111525 0.5906448
vt 0.3098902 0.5917284
vt 0.3151559 0.5976311
vt 0.4732925 0.6050323
vt 0.4732925 0.6295536
vt 0.4732925 0.6295536
vt 0.4732925 0.6050323
vt 0.4732925 0.6050323
vt 0.4732925 0.6454045
vt 0.4732925 0.6454045
vt 0.4732925 0.6050323
vt 0.4732925 0.6295536
vt 0.4732925 0.6050323
vt 0.4732925 0.6295536
vt 0.4732925 0.6050323
vt 0.4732925 0.6050323
vt 0.4732925 0.6454045
vt 0.4732925 0.6454045
vt 0.4732925 0.6519105
vt 0.4732925 0.6519105
vt 0.4732925 0.6730468
vt 0.4732925 0.6730468
vt 0.4732925 0.6050323
vt 0.4732925 0.6295536
vt 0.4732925 0.6295536
vt 0.4732925 0.6050323
vt 0.4732925 0.6454045
vt 0.4732925 0.6454045
vt 0.4732925 0.6519105
vt 0.4732925 0.6519105
vt 0.4732925 0.6730468
vt 0.4732925 0.6730468
vt 0.4732925 0.6050323
vt 0.4732925 0.6295536
vt 0.4732925 0.6050323
vt 0.4732925 0.6295536
vt 0.4732925 0.6050323
vt 0.4732925 0.6454045
vt 0.4732925 0.6454045
vt 0.4732925 0.6519105
vt 0.4732925 0.6519105
vt 0.4732925 0.6730468
vt 0.4732925 0.6730468
vt 0.4732925 0.6454045
vt 0.4732925 0.6519105
vt 0.4732925 0.6519105
vt 0.4732925 0.6454045
vt 0.4732925 0.6730468
vt 0.4732925 0.6730468
vt 0.4732925 0.6595815
vt 0.4732925 0.6595815
vt 0.4732925 0.6595815
vt 0.4732925 0.6595815

f 3/3/3 2/2/2 1/1/1
f 4/4/4 3/3/3 1/1/1
f 1/1/1 2/2/2 5/5/5
f 2/2/2 6/6/6 5/5/5
f 4/4/4 1/1/1 7/7/7
f 8/8/8 4/4/4 7/7/7
f 8/8/8 7/7/7 9/9/9
f 10/10/10 8/8/8 9/9/9
f 11/11/11 2/2/2 3/3/3
f 11/11/11 6/6/6 2/2/2
f 9/9/9 7/7/7 12/12/12
f 7/7/7 13/13/13 12/12/12
f 1/1/1 5/5/5 13/13/13
f 7/7/7 1/1/1 13/13/13
f 10/10/10 9/9/9 14/14/14
f 9/9/9 15/15/15 14/14/14
f 9/9/9 12/12/12 15/15/15
f 12/12/12 16/16/16 15/15/15
f 19/19/19 18/18/18 17/17/17
f 20/20/20 19/19/19 17/17/17
f 17/17/17 18/18/18 21/21/21
f 20/20/20 17/17/17 22/22/22
f 23/23/23 20/20/20 22/22/22
f 23/23/23 22/22/22 24/24/24
f 25/25/25 23/23/23 24/24/24
f 26/26/26 18/18/18 19/19/19
f 26/26/26 27/27/27 18/18/18
f 25/25/25 24/24/24 28/28/28
f 24/24/24 29/29/29 28/28/28
f 32/32/32 31/31/31 30/30/30
f 34/34/34 30/30/30 33/33/33
f 35/35/35 34/34/34 33/33/33
f 35/35/35 33/33/33 36/36/36
f 37/37/37 35/35/35 36/36/36
f 37/37/37 36/36/36 38/38/38
f 36/36/36 39/39/39 38/38/38
f 42/42/42 41/41/41 40/40/40
f 43/43/43 42/42/42 40/40/40
f 43/43/43 40/40/40 44/44/44
f 45/45/45 43/43/43 44/44/44
f 45/45/45 44/44/44 46/46/46
f 47/47/47 45/45/45 46/46/46
f 48/48/48 41/41/41 42/42/42
f 47/47/47 46/46/46 49/49/49
f 46/46/46 50/50/50 49/49/49
f 53/53/53 52/52/52 51/51/51
f 54/54/54 53/53/53 51/51/51
f 51/51/51 52/52/52 55/55/55
f 52/52/52 56/56/56 55/55/55
f 54/54/54 51/51/51 57/57/57
f 58/58/58 54/54/54 57/57/57
f 58/58/58 57/57/57 59/59/59
f 60/60/60 58/58/58 59/59/59
f 61/61/61 52/52/52 53/53/53
f 61/61/61 56/56/56 52/52/52
f 59/59/59 57/57/57 62/62/62
f 57/57/57 63/63/63 62/62/62
f 51/51/51 55/55/55 63/63/63
f 57/57/57 51/51/51 63/63/63
f 60/60/60 59/59/59 64/64/64
f 59/59/59 65/65/65 64/64/64
f 59/59/59 62/62/62 65/65/65
f 62/62/62 66/66/66 65/65/65
f 69/69/69 68/68/68 67/67/67
f 70/70/70 69/69/69 67/67/67
f 70/70/70 67/67/67 71/71/71
f 72/72/72 70/70/70 71/71/71
f 72/72/72 71/71/71 73/73/73
f 74/74/74 72/72/72 73/73/73
f 75/75/75 68/68/68 69/69/69
f 74/74/74 73/73/73 76/76/76
f 73/73/73 77/77/77 76/76/76
f 80/80/80 79/79/79 78/78/78
f 81/81/81 80/80/80 78/78/78
f 81/81/81 78/78/78 82/82/82
f 83/83/83 81/81/81 82/82/82
f 83/83/83 82/82/82 84/84/84
f 85/85/85 83/83/83 84/84/84
f 85/85/85 84/84/84 86/86/86
f 87/87/87 85/85/85 86/86/86
f 90/90/90 89/89/89 88/88/88
f 91/91/91 90/90/90 88/88/88
f 91/91/91 88/88/88 92/92/92
f 93/93/93 91/91/91 92/92/92
f 93/93/93 92/92/92 94/94/94
f 95/95/95 93/93/93 94/94/94
f 96/96/96 95/95/95 94/94/94
f 97/97/97 96/96/96 94/94/94
f 100/100/100 99/99/99 98/98/98
f 101/101/101 100/100/100 98/98/98
f 98/98/98 99/99/99 102/102/102
f 100/100/100 103/103/103 99/99/99
f 103/103/103 104/104/104 99/99/99
f 107/107/107 106/106/106 105/105/105
f 108/108/108 106/106/106 107/107/107
f 109/109/109 108/108/108 107/107/107
f 110/110/110 108/108/108 109/109/109
f 108/108/108 111/111/111 106/106/106
f 111/111/111 112/112/112 106/106/106
f 111/111/111 113/113/113 112/112/112
f 113/113/113 114/114/114 112/112/112
f 113/113/113 115/115/115 114/114/114
f 115/115/115 116/116/116 114/114/114
f 119/119/119 118/118/118 117/117/117
f 120/120/120 119/119/119 117/117/117
f 119/119/119 121/121/121 118/118/118
f 121/121/121 122/122/122 118/118/118
f 121/121/121 123/123/123 122/122/122
f 123/123/123 124/124/124 122/122/122
f 123/123/123 125/125/125 124/124/124
f 125/125/125 126/126/126 124/124/124
f 129/129/129 128/128/128 127/127/127
f 130/130/130 128/128/128 129/129/129
f 131/131/131 130/130/130 129/129/129
f 130/130/130 132/132/132 128/128/128
f 132/132/132 133/133/133 128/128/128
f 132/132/132 134/134/134 133/133/133
f 134/134/134 135/135/135 133/133/133
f 134/134/134 136/136/136 135/135/135
f 136/136/136 137/137/137 135/135/135
f 140/140/140 139/139/139 138/138/138
f 141/141/141 140/140/140 138/138/138
f 140/140/140 142/142/142 139/139/139
f 142/142/142 143/143/143 139/139/139
f 146/146/146 145/145/145 144/144/144
f 147/147/147 146/146/146 144/144/144
# 0 polygons - 378 triangles
